<?xml version="1.0" encoding="utf-8"?>
<!-- Generator: Adobe Illustrator 27.5.0, SVG Export Plug-In . SVG Version: 6.00 Build 0)  -->
<svg version="1.1" id="Layer_1" xmlns="http://www.w3.org/2000/svg" xmlns:xlink="http://www.w3.org/1999/xlink" x="0px" y="0px"
	 viewBox="0 0 293.411 398.198" style="enable-background:new 0 0 293.411 398.198;" xml:space="preserve">
<g>
	<g>
		<path style="fill:#FFFFFF;" d="M37.057,388.24c0.086,0.004,0.172,0.004,0.259,0.004h229.626c0.087,0,0.173,0,0.259-0.004
			c1.444-0.039,8.917-0.584,14.251-7.47c3.069-3.96,4.625-9.02,4.625-15.04V43.307c0-16.137-11.289-22.301-18.876-22.508
			c-0.086-0.002-0.172-0.004-0.259-0.004h-0.513c-0.044,0-0.088,0-0.131,0.002H37.316c-0.086,0-0.172,0-0.258,0.003
			c-7.587,0.206-18.876,6.37-18.876,22.511l0,11.773c-0.005,0.13-0.008,0.26-0.008,0.391V355.93c0,0.137,0.003,0.274,0.009,0.412
			v9.39C18.183,381.869,29.471,388.034,37.057,388.24z"/>
		<path style="fill:#F1F1F1;" d="M36.072,387.255c0.086,0.003,0.173,0.004,0.259,0.004h229.625c0.086,0,0.173-0.001,0.259-0.004
			c1.444-0.042,8.917-0.584,14.251-7.471c3.069-3.959,4.625-9.019,4.625-15.04V42.32c0-16.136-11.289-22.281-18.876-22.508
			c-0.086-0.001-0.173-0.003-0.259-0.003h-0.513c-0.044,0-0.088,0-0.131,0.001H36.331c-0.086,0-0.172,0.001-0.258,0.004
			c-7.587,0.226-18.876,6.37-18.876,22.51l0,11.774c-0.005,0.129-0.008,0.26-0.008,0.392v300.453c0,0.138,0.003,0.275,0.009,0.412
			v9.391C17.198,380.884,28.486,387.029,36.072,387.255z"/>
		<path style="fill:#E2E2E2;" d="M35.086,386.27c0.086,0.003,0.173,0.004,0.259,0.004h229.626c0.086,0,0.173-0.001,0.259-0.004
			c1.444-0.042,8.918-0.584,14.251-7.471c3.069-3.959,4.625-9.018,4.625-15.04V41.336c0-16.137-11.289-22.281-18.876-22.508
			c-0.086-0.002-0.173-0.004-0.259-0.004h-0.513c-0.044,0-0.088,0-0.131,0.001H35.345c-0.085,0-0.172,0.001-0.258,0.003
			C27.5,19.055,16.211,25.199,16.211,41.34l0,11.773c-0.005,0.129-0.008,0.26-0.008,0.391v300.454c0,0.138,0.002,0.275,0.009,0.412
			v9.392C16.212,379.898,27.5,386.045,35.086,386.27z"/>
		<path style="fill:#D4D4D4;" d="M34.101,385.285c0.086,0.002,0.172,0.003,0.259,0.003h229.625c0.087,0,0.173-0.001,0.259-0.003
			c1.444-0.043,8.918-0.585,14.251-7.472c3.069-3.958,4.625-9.019,4.625-15.04V40.351c0-16.137-11.29-22.282-18.876-22.508
			c-0.086-0.003-0.172-0.004-0.259-0.004h-0.513c-0.044,0-0.087,0-0.131,0.001H34.36c-0.086,0-0.172,0.001-0.258,0.004
			c-7.587,0.226-18.876,6.37-18.876,22.51l0,11.774c-0.005,0.129-0.008,0.26-0.008,0.391v300.454c0,0.139,0.003,0.275,0.009,0.412
			v9.392C15.227,378.913,26.515,385.06,34.101,385.285z"/>
		<path style="fill:#C5C5C5;" d="M33.116,384.3c0.086,0.003,0.172,0.003,0.259,0.003H263c0.087,0,0.173,0,0.259-0.003
			c1.445-0.043,8.918-0.585,14.251-7.472c3.069-3.958,4.625-9.018,4.625-15.04V39.365c0-16.137-11.289-22.282-18.876-22.508
			c-0.086-0.003-0.172-0.004-0.259-0.004h-0.513c-0.044,0-0.087,0-0.131,0.001H33.374c-0.086,0-0.172,0.001-0.258,0.004
			c-7.587,0.226-18.876,6.37-18.876,22.511l0,11.774c-0.005,0.129-0.008,0.26-0.008,0.391v300.454c0,0.139,0.003,0.275,0.009,0.412
			v9.392C14.242,377.928,25.529,384.073,33.116,384.3z"/>
		<path style="fill:#B7B7B7;" d="M32.13,383.315c0.086,0.002,0.172,0.004,0.259,0.004h229.625c0.087,0,0.173-0.002,0.259-0.004
			c1.445-0.043,8.918-0.585,14.251-7.471c3.069-3.959,4.625-9.02,4.625-15.041V38.38c0-16.136-11.289-22.282-18.876-22.508
			c-0.086-0.003-0.172-0.004-0.259-0.004h-0.513c-0.044,0-0.087,0-0.131,0.001H32.389c-0.086,0-0.172,0.001-0.258,0.004
			c-7.587,0.226-18.876,6.371-18.876,22.511v11.773c-0.005,0.129-0.008,0.26-0.008,0.391v300.454c0,0.139,0.003,0.275,0.009,0.412
			v9.392C13.256,376.942,24.544,383.088,32.13,383.315z"/>
		<path style="fill:#A8A8A8;" d="M31.144,382.329c0.086,0.002,0.173,0.004,0.259,0.004H261.03c0.086,0,0.172-0.002,0.259-0.004
			c1.444-0.043,8.917-0.585,14.251-7.472c3.068-3.958,4.624-9.018,4.624-15.041V37.395c0-16.136-11.289-22.282-18.875-22.508
			c-0.087-0.003-0.173-0.004-0.259-0.004h-0.514c-0.043,0-0.087,0-0.131,0.001H31.403c-0.085,0-0.172,0.001-0.258,0.004
			c-7.586,0.226-18.876,6.371-18.876,22.511l0.001,11.774c-0.005,0.129-0.008,0.26-0.008,0.391v300.454
			c0,0.139,0.002,0.276,0.009,0.412v9.392C12.271,375.957,23.559,382.103,31.144,382.329z"/>
		<path style="fill:#9A9A9A;" d="M30.159,381.344c0.086,0.002,0.173,0.004,0.259,0.004h229.626c0.086,0,0.172-0.002,0.258-0.004
			c1.444-0.043,8.917-0.584,14.252-7.472c3.068-3.958,4.624-9.018,4.624-15.041V36.408c0-16.135-11.289-22.281-18.876-22.507
			c-0.086-0.003-0.172-0.004-0.258-0.004h-0.515c-0.042,0-0.087,0-0.13,0H30.418c-0.086,0-0.172,0.002-0.258,0.004
			c-7.587,0.227-18.876,6.372-18.876,22.511l0,11.774c-0.005,0.128-0.008,0.26-0.008,0.39v300.455c0,0.139,0.002,0.275,0.009,0.411
			v9.393C11.286,374.972,22.573,381.117,30.159,381.344z"/>
		<path style="fill:#8B8B8B;" d="M29.174,380.358c0.086,0.002,0.172,0.004,0.259,0.004h229.625c0.086,0,0.172-0.002,0.259-0.004
			c1.444-0.044,8.917-0.585,14.251-7.472c3.068-3.958,4.625-9.018,4.625-15.041V35.423c0-16.136-11.289-22.281-18.876-22.507
			c-0.087-0.002-0.173-0.004-0.259-0.004h-0.514c-0.043,0-0.087,0-0.131,0H29.433c-0.086,0-0.172,0.002-0.258,0.004
			c-7.587,0.227-18.876,6.371-18.876,22.511l0,11.774c-0.005,0.129-0.008,0.26-0.008,0.391v300.453c0,0.14,0.003,0.277,0.009,0.412
			v9.393C10.3,373.986,21.588,380.132,29.174,380.358z"/>
		<path style="fill:#7D7D7D;" d="M28.189,379.372c0.086,0.003,0.172,0.004,0.259,0.004h229.626c0.086,0,0.173-0.001,0.259-0.004
			c1.444-0.042,8.917-0.584,14.251-7.471c3.068-3.959,4.625-9.019,4.625-15.04V34.438c0-16.136-11.289-22.282-18.876-22.508
			c-0.086-0.002-0.173-0.004-0.259-0.004h-0.513c-0.044,0-0.088,0-0.131,0.002H28.448c-0.086,0-0.172,0.002-0.258,0.003
			c-7.587,0.226-18.877,6.371-18.877,22.511l0.001,11.773c-0.004,0.13-0.008,0.26-0.008,0.391v300.455
			c0,0.138,0.003,0.275,0.009,0.412v9.392C9.315,373,20.603,379.147,28.189,379.372z"/>
		<path style="fill:#6E6E6E;" d="M27.203,378.387c0.086,0.003,0.172,0.004,0.259,0.004h229.626c0.086,0,0.173-0.001,0.259-0.004
			c1.444-0.043,8.917-0.584,14.251-7.471c3.069-3.959,4.625-9.018,4.625-15.041V33.453c0-16.137-11.289-22.283-18.876-22.508
			c-0.086-0.003-0.173-0.004-0.259-0.004h-0.513c-0.044,0-0.088,0-0.131,0.001H27.462c-0.086,0-0.172,0.001-0.258,0.003
			c-7.587,0.227-18.876,6.371-18.876,22.511l0,11.774c-0.005,0.129-0.008,0.26-0.008,0.391v300.454c0,0.138,0.003,0.275,0.009,0.411
			v9.393C8.329,372.016,19.617,378.162,27.203,378.387z"/>
		<path style="fill:#606060;" d="M26.218,377.402c0.086,0.002,0.173,0.003,0.259,0.003h229.626c0.086,0,0.173-0.001,0.259-0.003
			c1.444-0.039,8.918-0.585,14.251-7.472c3.069-3.958,4.625-9.019,4.625-15.04V32.467c0-16.136-11.289-22.301-18.876-22.508
			c-0.086-0.002-0.173-0.003-0.259-0.003h-0.513c-0.044,0-0.088,0-0.131,0.001H26.477c-0.085,0-0.172,0.001-0.258,0.004
			c-7.587,0.205-18.876,6.37-18.876,22.51l0.001,11.774c-0.005,0.129-0.008,0.26-0.008,0.391V345.09
			c0,0.139,0.002,0.275,0.009,0.412v9.391C7.344,371.03,18.631,377.195,26.218,377.402z"/>
	</g>
	<path style="fill:#FFFFFF;" d="M26.218,377.402c0.086,0.002,0.173,0.003,0.259,0.003h229.626c0.086,0,0.173-0.001,0.259-0.003
		c1.444-0.039,8.918-0.585,14.251-7.472c3.069-3.958,4.625-9.019,4.625-15.04V32.467c0-16.136-11.289-22.301-18.876-22.508
		c-0.086-0.002-0.173-0.003-0.259-0.003h-0.513c-0.044,0-0.088,0-0.131,0.001H26.477c-0.085,0-0.172,0.001-0.258,0.004
		c-7.587,0.205-18.876,6.37-18.876,22.51l0.001,11.774c-0.005,0.129-0.008,0.26-0.008,0.391V345.09c0,0.139,0.002,0.275,0.009,0.412
		v9.391C7.344,371.03,18.631,377.195,26.218,377.402z"/>
	<g>
		<g>
			<g>
				<path style="fill:#FFFFFF;" d="M256.103,19.457H145.977h-9.373H26.477c0,0-9.634,0.262-9.634,13.014l0.001,86.915v148.59v86.917
					c0,12.75,9.632,13.013,9.632,13.013h110.127h9.373h110.126c0,0,9.633-0.263,9.633-13.013v-86.917v-148.59V32.471
					C265.735,19.719,256.103,19.457,256.103,19.457z"/>
				<defs>
					<filter id="Adobe_OpacityMaskFilter" filterUnits="userSpaceOnUse" x="16.844" y="207.505" width="248.891" height="160.4">
						<feFlood  style="flood-color:white;flood-opacity:1" result="back"/>
						<feBlend  in="SourceGraphic" in2="back" mode="normal"/>
					</filter>
				</defs>
				<mask maskUnits="userSpaceOnUse" x="16.844" y="207.505" width="248.891" height="160.4" id="SVGID_1_">
					<g style="filter:url(#Adobe_OpacityMaskFilter);">
						<defs>
							
								<filter id="Adobe_OpacityMaskFilter_00000016072384508197113980000017893835235103013309_" filterUnits="userSpaceOnUse" x="16.844" y="207.505" width="248.891" height="160.4">
								<feFlood  style="flood-color:white;flood-opacity:1" result="back"/>
								<feBlend  in="SourceGraphic" in2="back" mode="normal"/>
							</filter>
						</defs>
						<mask maskUnits="userSpaceOnUse" x="16.844" y="207.505" width="248.891" height="160.4" id="SVGID_1_">
							<g style="filter:url(#Adobe_OpacityMaskFilter_00000016072384508197113980000017893835235103013309_);">
							</g>
						</mask>
						
							<radialGradient id="SVGID_00000046325569927474569870000014249886841709658297_" cx="137.4384" cy="-99.3346" r="503.8667" gradientUnits="userSpaceOnUse">
							<stop  offset="0.6156" style="stop-color:#000000"/>
							<stop  offset="0.7516" style="stop-color:#020202"/>
							<stop  offset="0.8037" style="stop-color:#090909"/>
							<stop  offset="0.8413" style="stop-color:#151515"/>
							<stop  offset="0.8721" style="stop-color:#262626"/>
							<stop  offset="0.8986" style="stop-color:#3C3C3C"/>
							<stop  offset="0.9222" style="stop-color:#585858"/>
							<stop  offset="0.9436" style="stop-color:#797979"/>
							<stop  offset="0.9634" style="stop-color:#9F9F9F"/>
							<stop  offset="0.9817" style="stop-color:#CBCBCB"/>
							<stop  offset="0.9982" style="stop-color:#F9F9F9"/>
							<stop  offset="1" style="stop-color:#FFFFFF"/>
						</radialGradient>
						<path style="mask:url(#SVGID_1_);fill:url(#SVGID_00000046325569927474569870000014249886841709658297_);" d="
							M163.595,207.518c-48.917,0.011-97.833,0.031-146.75,0.051v147.324c0,12.75,9.632,13.013,9.632,13.013h229.626
							c0,0,9.633-0.263,9.633-13.013V207.505C231.688,207.509,197.642,207.511,163.595,207.518z"/>
					</g>
				</mask>
				
					<radialGradient id="SVGID_00000021818684719530166840000014853518856405232052_" cx="137.4384" cy="-99.3346" r="503.8667" gradientUnits="userSpaceOnUse">
					<stop  offset="0.6156" style="stop-color:#FFFFFF"/>
					<stop  offset="0.7878" style="stop-color:#FDFDFD"/>
					<stop  offset="0.8537" style="stop-color:#F6F6F6"/>
					<stop  offset="0.9014" style="stop-color:#EAEAEA"/>
					<stop  offset="0.9403" style="stop-color:#D9D9D9"/>
					<stop  offset="0.9735" style="stop-color:#C3C3C3"/>
					<stop  offset="1" style="stop-color:#ABABAB"/>
				</radialGradient>
				<path style="fill:url(#SVGID_00000021818684719530166840000014853518856405232052_);" d="M163.595,207.518
					c-48.917,0.011-97.833,0.031-146.75,0.051v147.324c0,12.75,9.632,13.013,9.632,13.013h229.626c0,0,9.633-0.263,9.633-13.013
					V207.505C231.688,207.509,197.642,207.511,163.595,207.518z"/>
				<defs>
					
						<filter id="Adobe_OpacityMaskFilter_00000018226826734229233450000006005499202293688249_" filterUnits="userSpaceOnUse" x="16.843" y="19.457" width="248.893" height="173.938">
						<feFlood  style="flood-color:white;flood-opacity:1" result="back"/>
						<feBlend  in="SourceGraphic" in2="back" mode="normal"/>
					</filter>
				</defs>
				
					<mask maskUnits="userSpaceOnUse" x="16.843" y="19.457" width="248.893" height="173.938" id="SVGID_00000097468584161458730080000008500574852531530137_">
					<g style="filter:url(#Adobe_OpacityMaskFilter_00000018226826734229233450000006005499202293688249_);">
						<defs>
							
								<filter id="Adobe_OpacityMaskFilter_00000026871192737526898910000001632311590950057910_" filterUnits="userSpaceOnUse" x="16.843" y="19.457" width="248.893" height="173.938">
								<feFlood  style="flood-color:white;flood-opacity:1" result="back"/>
								<feBlend  in="SourceGraphic" in2="back" mode="normal"/>
							</filter>
						</defs>
						
							<mask maskUnits="userSpaceOnUse" x="16.843" y="19.457" width="248.893" height="173.938" id="SVGID_00000097468584161458730080000008500574852531530137_">
							<g style="filter:url(#Adobe_OpacityMaskFilter_00000026871192737526898910000001632311590950057910_);">
							</g>
						</mask>
						
							<radialGradient id="SVGID_00000124127577457631521670000017020845307158863281_" cx="142.4232" cy="341.0083" r="361.0532" gradientUnits="userSpaceOnUse">
							<stop  offset="0.6156" style="stop-color:#000000"/>
							<stop  offset="0.7096" style="stop-color:#020202"/>
							<stop  offset="0.7623" style="stop-color:#0A0A0A"/>
							<stop  offset="0.8047" style="stop-color:#181818"/>
							<stop  offset="0.8418" style="stop-color:#2C2C2C"/>
							<stop  offset="0.8752" style="stop-color:#464646"/>
							<stop  offset="0.9062" style="stop-color:#656565"/>
							<stop  offset="0.9352" style="stop-color:#8A8A8A"/>
							<stop  offset="0.9626" style="stop-color:#B6B6B6"/>
							<stop  offset="0.9879" style="stop-color:#E5E5E5"/>
							<stop  offset="1" style="stop-color:#FFFFFF"/>
						</radialGradient>
						
							<path style="mask:url(#SVGID_00000097468584161458730080000008500574852531530137_);fill:url(#SVGID_00000124127577457631521670000017020845307158863281_);" d="
							M16.844,193.304c20.946,0.017,41.891,0.032,62.837,0.044c60.362,0.034,120.724,0.038,181.087,0.047
							c1.654,0,3.31-0.002,4.967-0.002V32.471c0-12.752-9.633-13.014-9.633-13.014H26.477c0,0-9.634,0.262-9.634,13.014
							l0.001,86.915V193.304z"/>
					</g>
				</mask>
				
					<radialGradient id="SVGID_00000114755994263420063350000004501999255201324940_" cx="142.4232" cy="341.0083" r="361.0532" gradientUnits="userSpaceOnUse">
					<stop  offset="0.6156" style="stop-color:#FFFFFF"/>
					<stop  offset="0.747" style="stop-color:#FDFDFD"/>
					<stop  offset="0.8206" style="stop-color:#F5F5F5"/>
					<stop  offset="0.8799" style="stop-color:#E7E7E7"/>
					<stop  offset="0.9316" style="stop-color:#D3D3D3"/>
					<stop  offset="0.9778" style="stop-color:#BABABA"/>
					<stop  offset="1" style="stop-color:#ABABAB"/>
				</radialGradient>
				<path style="fill:url(#SVGID_00000114755994263420063350000004501999255201324940_);" d="M16.844,193.304
					c20.946,0.017,41.891,0.032,62.837,0.044c60.362,0.034,120.724,0.038,181.087,0.047c1.654,0,3.31-0.002,4.967-0.002V32.471
					c0-12.752-9.633-13.014-9.633-13.014H26.477c0,0-9.634,0.262-9.634,13.014l0.001,86.915V193.304z"/>
			</g>
			<g>
				<defs>
					
						<filter id="Adobe_OpacityMaskFilter_00000007388917704600703290000003634176259302601916_" filterUnits="userSpaceOnUse" x="21.428" y="19.456" width="244.309" height="348.448">
						<feFlood  style="flood-color:white;flood-opacity:1" result="back"/>
						<feBlend  in="SourceGraphic" in2="back" mode="normal"/>
					</filter>
				</defs>
				
					<mask maskUnits="userSpaceOnUse" x="21.428" y="19.456" width="244.309" height="348.448" id="SVGID_00000116202170545356026100000000385977556800808579_">
					<g style="filter:url(#Adobe_OpacityMaskFilter_00000007388917704600703290000003634176259302601916_);">
						<defs>
							
								<filter id="Adobe_OpacityMaskFilter_00000080892612915781867810000003536841430097883560_" filterUnits="userSpaceOnUse" x="21.428" y="19.456" width="244.309" height="348.448">
								<feFlood  style="flood-color:white;flood-opacity:1" result="back"/>
								<feBlend  in="SourceGraphic" in2="back" mode="normal"/>
							</filter>
						</defs>
						
							<mask maskUnits="userSpaceOnUse" x="21.428" y="19.456" width="244.309" height="348.448" id="SVGID_00000116202170545356026100000000385977556800808579_">
							<g style="filter:url(#Adobe_OpacityMaskFilter_00000080892612915781867810000003536841430097883560_);">
							</g>
						</mask>
						
							<radialGradient id="SVGID_00000090991939343512439110000013672539599254092450_" cx="6.1975" cy="19.2993" r="400.8938" gradientUnits="userSpaceOnUse">
							<stop  offset="0.0988" style="stop-color:#000000"/>
							<stop  offset="1" style="stop-color:#FFFFFF"/>
						</radialGradient>
						
							<path style="mask:url(#SVGID_00000116202170545356026100000000385977556800808579_);fill:url(#SVGID_00000090991939343512439110000013672539599254092450_);" d="
							M265.232,32.449v86.791v148.375l0.001,86.79c0,12.733-9.644,12.995-9.644,12.995H145.353h-9.383H25.731
							c0,0-2.078-0.059-4.303-1.393c2.482,1.822,5.048,1.896,5.048,1.896h110.129h9.372h110.125c0,0,9.635-0.262,9.635-13.014
							v-86.916v-148.59V32.469c0-12.75-9.635-13.013-9.635-13.013h-0.513C255.59,19.456,265.232,19.718,265.232,32.449z"/>
					</g>
				</mask>
				
					<radialGradient id="SVGID_00000160891259783000854950000008514370675428944023_" cx="6.1975" cy="19.2993" r="400.8938" gradientUnits="userSpaceOnUse">
					<stop  offset="0.0988" style="stop-color:#FFFFFF"/>
					<stop  offset="1" style="stop-color:#ABABAB"/>
				</radialGradient>
				<path style="fill:url(#SVGID_00000160891259783000854950000008514370675428944023_);" d="M265.232,32.449v86.791v148.375
					l0.001,86.79c0,12.733-9.644,12.995-9.644,12.995H145.353h-9.383H25.731c0,0-2.078-0.059-4.303-1.393
					c2.482,1.822,5.048,1.896,5.048,1.896h110.129h9.372h110.125c0,0,9.635-0.262,9.635-13.014v-86.916v-148.59V32.469
					c0-12.75-9.635-13.013-9.635-13.013h-0.513C255.59,19.456,265.232,19.718,265.232,32.449z"/>
			</g>
			<defs>
				
					<filter id="Adobe_OpacityMaskFilter_00000171715434760074452290000000630924011840602023_" filterUnits="userSpaceOnUse" x="16.843" y="19.457" width="244.311" height="348.448">
					<feFlood  style="flood-color:white;flood-opacity:1" result="back"/>
					<feBlend  in="SourceGraphic" in2="back" mode="normal"/>
				</filter>
			</defs>
			
				<mask maskUnits="userSpaceOnUse" x="16.843" y="19.457" width="244.311" height="348.448" id="SVGID_00000147898487081263341770000017180974675955596218_">
				<g style="filter:url(#Adobe_OpacityMaskFilter_00000171715434760074452290000000630924011840602023_);">
					<defs>
						
							<filter id="Adobe_OpacityMaskFilter_00000105420514549221658530000007064399573924061355_" filterUnits="userSpaceOnUse" x="16.843" y="19.457" width="244.311" height="348.448">
							<feFlood  style="flood-color:white;flood-opacity:1" result="back"/>
							<feBlend  in="SourceGraphic" in2="back" mode="normal"/>
						</filter>
					</defs>
					
						<mask maskUnits="userSpaceOnUse" x="16.843" y="19.457" width="244.311" height="348.448" id="SVGID_00000147898487081263341770000017180974675955596218_">
						<g style="filter:url(#Adobe_OpacityMaskFilter_00000105420514549221658530000007064399573924061355_);">
						</g>
					</mask>
					
						<radialGradient id="SVGID_00000078757877619167784980000017180858357989460122_" cx="84.8277" cy="120.8656" r="341.4549" gradientUnits="userSpaceOnUse">
						<stop  offset="0" style="stop-color:#000000"/>
						<stop  offset="0.0074" style="stop-color:#090909"/>
						<stop  offset="0.0477" style="stop-color:#373737"/>
						<stop  offset="0.0931" style="stop-color:#626262"/>
						<stop  offset="0.1419" style="stop-color:#888888"/>
						<stop  offset="0.195" style="stop-color:#A8A8A8"/>
						<stop  offset="0.2537" style="stop-color:#C4C4C4"/>
						<stop  offset="0.32" style="stop-color:#DADADA"/>
						<stop  offset="0.3974" style="stop-color:#EBEBEB"/>
						<stop  offset="0.4931" style="stop-color:#F6F6F6"/>
						<stop  offset="0.6274" style="stop-color:#FDFDFD"/>
						<stop  offset="1" style="stop-color:#FFFFFF"/>
					</radialGradient>
					
						<path style="mask:url(#SVGID_00000147898487081263341770000017180974675955596218_);fill:url(#SVGID_00000078757877619167784980000017180858357989460122_);" d="
						M17.348,354.912V268.12V119.746v-86.79c0-12.733,9.643-12.995,9.643-12.995h110.238h9.381H256.85c0,0,2.076,0.059,4.303,1.393
						c-2.483-1.822-5.051-1.896-5.051-1.896H145.977h-9.373H26.477c0,0-9.634,0.262-9.634,13.014l0.001,86.915v148.59v86.917
						c0,12.75,9.632,13.013,9.632,13.013h0.514C26.991,367.905,17.348,367.644,17.348,354.912z"/>
				</g>
			</mask>
			
				<radialGradient id="SVGID_00000127754852222434363310000013065600317154008506_" cx="84.8277" cy="120.8656" r="341.4549" gradientUnits="userSpaceOnUse">
				<stop  offset="0" style="stop-color:#FFFFFF"/>
				<stop  offset="0.1413" style="stop-color:#FFFFFF"/>
				<stop  offset="1" style="stop-color:#FFFFFF"/>
			</radialGradient>
			<path style="fill:url(#SVGID_00000127754852222434363310000013065600317154008506_);" d="M17.348,354.912V268.12V119.746v-86.79
				c0-12.733,9.643-12.995,9.643-12.995h110.238h9.381H256.85c0,0,2.076,0.059,4.303,1.393c-2.483-1.822-5.051-1.896-5.051-1.896
				H145.977h-9.373H26.477c0,0-9.634,0.262-9.634,13.014l0.001,86.915v148.59v86.917c0,12.75,9.632,13.013,9.632,13.013h0.514
				C26.991,367.905,17.348,367.644,17.348,354.912z"/>
			<g>
				<defs>
					
						<filter id="Adobe_OpacityMaskFilter_00000038413133017844659450000002538367150832999828_" filterUnits="userSpaceOnUse" x="16.835" y="44.636" width="0.505" height="300.454">
						<feFlood  style="flood-color:white;flood-opacity:1" result="back"/>
						<feBlend  in="SourceGraphic" in2="back" mode="normal"/>
					</filter>
				</defs>
				
					<mask maskUnits="userSpaceOnUse" x="16.835" y="44.636" width="0.505" height="300.454" id="SVGID_00000126288980795389872220000012985533220673605515_">
					<g style="filter:url(#Adobe_OpacityMaskFilter_00000038413133017844659450000002538367150832999828_);">
						<defs>
							
								<filter id="Adobe_OpacityMaskFilter_00000079485266799955029730000001231827315127842488_" filterUnits="userSpaceOnUse" x="16.835" y="44.636" width="0.505" height="300.454">
								<feFlood  style="flood-color:white;flood-opacity:1" result="back"/>
								<feBlend  in="SourceGraphic" in2="back" mode="normal"/>
							</filter>
						</defs>
						
							<mask maskUnits="userSpaceOnUse" x="16.835" y="44.636" width="0.505" height="300.454" id="SVGID_00000126288980795389872220000012985533220673605515_">
							<g style="filter:url(#Adobe_OpacityMaskFilter_00000079485266799955029730000001231827315127842488_);">
							</g>
						</mask>
						
							<radialGradient id="SVGID_00000018940056340723587160000014868910625689438907_" cx="341.1113" cy="19.2987" r="400.8553" gradientTransform="matrix(-1 0 0 1 617.418 0)" gradientUnits="userSpaceOnUse">
							<stop  offset="0.0988" style="stop-color:#000000"/>
							<stop  offset="1" style="stop-color:#FFFFFF"/>
						</radialGradient>
						
							<path style="mask:url(#SVGID_00000126288980795389872220000012985533220673605515_);fill:url(#SVGID_00000018940056340723587160000014868910625689438907_);" d="
							M16.835,44.636V345.09c0.168-0.608,0.334-1.219,0.503-1.826l0.002-75.648V50.081C17.169,48.266,17.001,46.45,16.835,44.636z"
							/>
					</g>
				</mask>
				
					<radialGradient id="SVGID_00000163753172691989572070000013142454957995299497_" cx="341.1113" cy="19.2987" r="400.8553" gradientTransform="matrix(-1 0 0 1 617.418 0)" gradientUnits="userSpaceOnUse">
					<stop  offset="0.0988" style="stop-color:#FFFFFF"/>
					<stop  offset="1" style="stop-color:#ABABAB"/>
				</radialGradient>
				<path style="fill:url(#SVGID_00000163753172691989572070000013142454957995299497_);" d="M16.835,44.636V345.09
					c0.168-0.608,0.334-1.219,0.503-1.826l0.002-75.648V50.081C17.169,48.266,17.001,46.45,16.835,44.636z"/>
			</g>
		</g>
		<g>
			<g>
				<path style="fill:#FF2601;" d="M53.196,84.621l0.003-0.004h-0.004c-6.298-3.492-11.343-14.076-11.504-14.415v-0.008l0,0.003
					l-0.003-0.003v0.008c-0.161,0.339-5.206,10.923-11.503,14.415h-0.004l0.002,0.004l-0.002,0.001h0.004
					c6.297,3.493,11.342,14.077,11.503,14.416v0.009c0,0,0.001-0.004,0.003-0.004l0,0.004v-0.009
					c0.162-0.339,5.206-10.923,11.504-14.416h0.004L53.196,84.621z"/>
				<g>
					<path style="fill:#FF2601;" d="M35.318,59.021c0,0.852,0.048,1.493,0.144,1.925c0.095,0.433,0.263,0.784,0.505,1.057
						c0.242,0.271,0.591,0.484,1.046,0.638c0.455,0.154,1.026,0.273,1.716,0.352c0.689,0.082,1.599,0.137,2.729,0.166v1.606H25.196
						v-1.606c1.629-0.074,2.792-0.172,3.488-0.297c0.697-0.125,1.229-0.313,1.595-0.562c0.368-0.249,0.635-0.601,0.804-1.056
						c0.169-0.455,0.253-1.195,0.253-2.223V41.177c0-0.586-0.104-1.016-0.309-1.288c-0.207-0.271-0.506-0.406-0.903-0.406
						c-0.469,0-1.137,0.242-2.002,0.726c-0.866,0.484-1.936,1.152-3.212,2.003l-0.969-1.694l10.298-6.138h1.209
						c-0.088,1.406-0.132,3.357-0.132,5.852V59.021z"/>
					<path style="fill:#FF2601;" d="M49.555,65.116c-3.169,0-5.527-1.246-7.074-3.741c-1.548-2.492-2.322-6.277-2.322-11.354
						c0-2.697,0.239-5.031,0.715-6.996c0.478-1.967,1.145-3.591,2.003-4.875c0.858-1.283,1.888-2.232,3.091-2.849
						c1.202-0.615,2.516-0.923,3.938-0.923c3.213,0,5.604,1.238,7.174,3.716c1.569,2.481,2.354,6.229,2.354,11.245
						c0,5.192-0.84,9.121-2.52,11.782C55.234,63.785,52.781,65.116,49.555,65.116z M44.45,49.362c0,4.782,0.443,8.291,1.332,10.528
						c0.886,2.237,2.263,3.356,4.125,3.356c1.775,0,3.092-1.053,3.95-3.158c0.858-2.105,1.286-5.364,1.286-9.779
						c0-3.374-0.218-6.107-0.659-8.196c-0.44-2.091-1.054-3.591-1.838-4.5c-0.784-0.91-1.733-1.364-2.848-1.364
						c-1.013,0-1.86,0.301-2.542,0.901c-0.683,0.603-1.233,1.467-1.651,2.597c-0.418,1.13-0.715,2.505-0.891,4.127
						C44.537,45.492,44.45,47.324,44.45,49.362z"/>
				</g>
			</g>
			<g>
				<path style="fill:#FF2601;" d="M230.057,301.991l-0.002,0.003h0.004c6.298,3.492,11.342,14.076,11.504,14.416v0.007l0.001-0.004
					c0.002,0.002,0.002,0.004,0.002,0.004v-0.007c0.162-0.34,5.207-10.924,11.504-14.416h0.005l-0.002-0.002l0.002-0.003h-0.005
					c-6.297-3.492-11.342-14.077-11.504-14.415v-0.01l-0.002,0.005l-0.001-0.005v0.01c-0.162,0.338-5.206,10.923-11.504,14.415
					h-0.004L230.057,301.991z"/>
				<g>
					<path style="fill:#FF2601;" d="M247.935,327.59c0-0.851-0.048-1.492-0.144-1.924c-0.095-0.434-0.264-0.785-0.506-1.057
						c-0.242-0.272-0.59-0.484-1.045-0.639c-0.455-0.154-1.026-0.272-1.716-0.352c-0.691-0.082-1.6-0.137-2.73-0.166v-1.605h16.262
						v1.605c-1.628,0.074-2.792,0.173-3.487,0.298c-0.698,0.124-1.229,0.311-1.595,0.561c-0.368,0.248-0.636,0.6-0.805,1.056
						c-0.169,0.454-0.253,1.194-0.253,2.222v17.845c0,0.587,0.103,1.017,0.309,1.288c0.206,0.271,0.506,0.406,0.901,0.406
						c0.47,0,1.138-0.241,2.003-0.726c0.865-0.484,1.936-1.152,3.212-2.002l0.969,1.694l-10.299,6.138h-1.21
						c0.09-1.406,0.133-3.358,0.133-5.853V327.59z"/>
					<path style="fill:#FF2601;" d="M233.699,321.496c3.169,0,5.527,1.245,7.073,3.74c1.549,2.492,2.322,6.277,2.322,11.354
						c0,2.697-0.239,5.03-0.714,6.996c-0.479,1.967-1.146,3.591-2.004,4.875c-0.858,1.283-1.889,2.233-3.092,2.85
						c-1.202,0.615-2.516,0.923-3.938,0.923c-3.213,0-5.604-1.239-7.174-3.718c-1.57-2.479-2.353-6.228-2.353-11.244
						c0-5.192,0.84-9.12,2.519-11.783C228.019,322.826,230.472,321.496,233.699,321.496z M238.803,337.25
						c0-4.783-0.442-8.292-1.331-10.529c-0.886-2.238-2.263-3.354-4.125-3.354c-1.774,0-3.092,1.052-3.95,3.157
						c-0.858,2.104-1.287,5.364-1.287,9.779c0,3.375,0.219,6.107,0.658,8.197c0.441,2.091,1.055,3.59,1.839,4.499
						c0.784,0.91,1.734,1.364,2.85,1.364c1.013,0,1.858-0.301,2.541-0.901c0.682-0.602,1.232-1.468,1.651-2.597
						c0.417-1.13,0.714-2.506,0.89-4.127C238.716,341.119,238.803,339.287,238.803,337.25z"/>
				</g>
			</g>
			<g>
				<g>
					<path style="fill:#FF2601;" d="M210.105,298.192l0.003-0.003h-0.009c-12.499-6.933-22.511-27.941-22.831-28.613v-0.016
						l-0.003,0.008c-0.002-0.003-0.003-0.008-0.003-0.008l-0.001,0.016c-0.319,0.673-10.334,21.681-22.83,28.613h-0.01l0.004,0.003
						c0,0-0.002,0-0.004,0.003h0.01c12.496,6.932,22.511,27.939,22.83,28.611l0.001,0.018c0,0,0.001-0.004,0.003-0.008
						c0,0.004,0.003,0.008,0.003,0.008v-0.018c0.32-0.672,10.332-21.68,22.831-28.611h0.009L210.105,298.192z"/>
					<path style="fill:#FF2601;" d="M210.105,89.17c0-0.003,0.003-0.003,0.003-0.003h-0.009
						c-12.499-6.933-22.511-27.94-22.831-28.614v-0.015l-0.003,0.007c-0.002-0.002-0.003-0.007-0.003-0.007l-0.001,0.015
						c-0.319,0.674-10.334,21.682-22.83,28.614h-0.01c0,0,0.004,0,0.004,0.003l-0.004,0.002h0.01
						c12.496,6.933,22.511,27.94,22.83,28.611l0.001,0.018c0,0,0.001-0.004,0.003-0.008l0.003,0.008v-0.018
						c0.32-0.671,10.332-21.679,22.831-28.611h0.009L210.105,89.17z"/>
					<path style="fill:#FF2601;" d="M210.105,228.518l0.003-0.002h-0.009c-12.499-6.934-22.511-27.941-22.831-28.614v-0.015
						l-0.003,0.007l-0.003-0.007l-0.001,0.015c-0.319,0.673-10.334,21.681-22.83,28.614h-0.01l0.004,0.002c0,0-0.002,0-0.004,0.003
						h0.01c12.496,6.933,22.511,27.94,22.83,28.611l0.001,0.018l0.003-0.008l0.003,0.008v-0.018
						c0.32-0.671,10.332-21.679,22.831-28.611h0.009C210.108,228.518,210.105,228.518,210.105,228.518z"/>
					<path style="fill:#FF2601;" d="M210.105,158.844l0.003-0.002h-0.009c-12.499-6.934-22.511-27.941-22.831-28.614v-0.015
						l-0.003,0.007l-0.003-0.007l-0.001,0.015c-0.319,0.673-10.334,21.681-22.83,28.614h-0.01l0.004,0.002l-0.004,0.003h0.01
						c12.496,6.933,22.511,27.94,22.83,28.611l0.001,0.019l0.003-0.009l0.003,0.009v-0.019c0.32-0.671,10.332-21.679,22.831-28.611
						h0.009L210.105,158.844z"/>
				</g>
				<g>
					<path style="fill:#FF2601;" d="M118.155,298.192l0.004-0.003h-0.009c-12.499-6.933-22.511-27.941-22.832-28.613v-0.016
						l-0.003,0.008c-0.002-0.003-0.003-0.008-0.003-0.008l-0.002,0.016c-0.319,0.673-10.334,21.681-22.83,28.613H72.47
						c0.003,0,0.004,0,0.004,0s-0.001,0.003-0.004,0.006h0.011c12.496,6.932,22.51,27.939,22.83,28.611l0.002,0.018
						c0,0,0.001-0.004,0.003-0.008c0,0.004,0.003,0.008,0.003,0.008v-0.018c0.32-0.672,10.333-21.68,22.832-28.611h0.009
						L118.155,298.192z"/>
					<path style="fill:#FF2601;" d="M118.155,89.17c0-0.003,0.004-0.003,0.004-0.003h-0.009
						c-12.499-6.933-22.511-27.94-22.832-28.614v-0.015l-0.003,0.007c-0.002-0.002-0.003-0.007-0.003-0.007l-0.002,0.015
						c-0.319,0.674-10.334,21.682-22.83,28.614H72.47c0.003,0,0.004,0,0.004,0.003c0,0-0.001,0-0.004,0.002h0.011
						c12.496,6.933,22.51,27.94,22.83,28.611l0.002,0.018c0,0,0.001-0.004,0.003-0.008l0.003,0.008v-0.018
						c0.32-0.671,10.333-21.679,22.832-28.611h0.009L118.155,89.17z"/>
					<path style="fill:#FF2601;" d="M118.155,228.518l0.004-0.002h-0.009c-12.499-6.934-22.511-27.941-22.832-28.614v-0.015
						l-0.003,0.007l-0.003-0.007l-0.002,0.015c-0.319,0.673-10.334,21.681-22.83,28.614H72.47c0.003,0,0.004,0,0.004,0
						s-0.001,0.002-0.004,0.005h0.011c12.496,6.933,22.51,27.94,22.83,28.611l0.002,0.018l0.003-0.008l0.003,0.008v-0.018
						c0.32-0.671,10.333-21.679,22.832-28.611h0.009C118.158,228.518,118.155,228.518,118.155,228.518z"/>
					<path style="fill:#FF2601;" d="M118.155,158.844l0.004-0.002h-0.009c-12.499-6.934-22.511-27.941-22.832-28.614v-0.015
						l-0.003,0.007l-0.003-0.007l-0.002,0.015c-0.319,0.673-10.334,21.681-22.83,28.614H72.47c0.003,0,0.004,0,0.004,0
						s-0.001,0.002-0.004,0.005h0.011c12.496,6.933,22.51,27.94,22.83,28.611l0.002,0.019l0.003-0.009l0.003,0.009v-0.019
						c0.32-0.671,10.333-21.679,22.832-28.611h0.009L118.155,158.844z"/>
				</g>
				<path style="fill:#FF2601;" d="M164.13,263.281l0.003-0.003h-0.009c-12.499-6.933-22.511-27.94-22.832-28.614v-0.015
					l-0.002,0.007l-0.003-0.007l-0.002,0.015c-0.318,0.674-10.333,21.682-22.83,28.614h-0.01l0.005,0.003l-0.005,0.003h0.01
					c12.496,6.932,22.511,27.939,22.83,28.611l0.002,0.018l0.003-0.009l0.002,0.009v-0.018c0.321-0.672,10.333-21.68,22.832-28.611
					h0.009L164.13,263.281z"/>
				<path style="fill:#FF2601;" d="M164.13,122.609l0.003-0.002h-0.009c-12.499-6.934-22.511-27.941-22.832-28.614v-0.015
					l-0.002,0.007l-0.003-0.007l-0.002,0.015c-0.318,0.673-10.333,21.681-22.83,28.614h-0.01l0.005,0.002c0,0-0.002,0-0.005,0.003
					h0.01c12.496,6.933,22.511,27.94,22.83,28.611l0.002,0.018c0,0,0.001-0.005,0.003-0.009l0.002,0.009v-0.018
					c0.321-0.671,10.333-21.679,22.832-28.611h0.009L164.13,122.609z"/>
			</g>
		</g>
	</g>
</g>
</svg>
