<?xml version="1.0" encoding="utf-8"?>
<!-- Generator: Adobe Illustrator 27.5.0, SVG Export Plug-In . SVG Version: 6.00 Build 0)  -->
<svg version="1.1" id="Layer_1" xmlns="http://www.w3.org/2000/svg" xmlns:xlink="http://www.w3.org/1999/xlink" x="0px" y="0px"
	 viewBox="0 0 293.41 398.199" style="enable-background:new 0 0 293.41 398.199;" xml:space="preserve">
<g>
	<g>
		<path style="fill:#FFFFFF;" d="M267.199,20.798c-0.086-0.003-0.172-0.004-0.258-0.004h-0.514c-0.043,0-0.087,0-0.13,0.001H37.316
			c-0.086,0-0.172,0.002-0.258,0.004c-7.587,0.205-18.876,6.37-18.876,22.51v11.786c-0.005,0.126-0.008,0.253-0.008,0.379v300.454
			c0,0.126,0.002,0.252,0.008,0.378v9.426c0,16.138,11.288,22.302,18.875,22.509c0.086,0.002,0.172,0.004,0.259,0.004h229.625
			c0.086,0,0.172-0.002,0.259-0.004c1.444-0.04,8.916-0.584,14.252-7.474c3.067-3.96,4.623-9.021,4.623-15.038V43.307
			C286.075,27.168,274.786,21.003,267.199,20.798z"/>
		<path style="fill:#F1F1F1;" d="M266.213,19.813c-0.086-0.002-0.172-0.004-0.258-0.004h-0.514c-0.043,0-0.087,0-0.13,0.001H36.331
			c-0.086,0-0.172,0.002-0.258,0.004c-7.587,0.226-18.876,6.37-18.876,22.51v11.785c-0.005,0.126-0.008,0.253-0.008,0.38v300.453
			c0,0.127,0.003,0.253,0.008,0.379v9.426c0,16.137,11.289,22.283,18.875,22.508c0.086,0.003,0.173,0.004,0.259,0.004h229.625
			c0.086,0,0.172-0.001,0.259-0.004c1.443-0.042,8.916-0.584,14.252-7.474c3.067-3.959,4.623-9.02,4.623-15.037V42.321
			C285.09,26.183,273.8,20.038,266.213,19.813z"/>
		<path style="fill:#E2E2E2;" d="M265.228,18.827c-0.086-0.003-0.172-0.004-0.258-0.004h-0.513c-0.044,0-0.087,0-0.131,0.001H35.345
			c-0.085,0-0.172,0.001-0.258,0.004c-7.587,0.227-18.876,6.37-18.876,22.51v11.785c-0.005,0.127-0.007,0.253-0.007,0.38v300.453
			c0,0.127,0.002,0.253,0.007,0.379v9.426c0,16.137,11.289,22.283,18.875,22.509c0.086,0.002,0.173,0.003,0.259,0.003H264.97
			c0.086,0,0.173-0.001,0.259-0.003c1.444-0.043,8.916-0.585,14.252-7.475c3.067-3.959,4.623-9.02,4.623-15.037V41.336
			C284.104,25.197,272.815,19.054,265.228,18.827z"/>
		<path style="fill:#D4D4D4;" d="M264.243,17.842c-0.086-0.003-0.172-0.004-0.258-0.004h-0.514c-0.043,0-0.087,0-0.13,0.001H34.36
			c-0.086,0-0.172,0.001-0.258,0.004c-7.587,0.227-18.876,6.37-18.876,22.511v11.784c-0.005,0.127-0.007,0.253-0.007,0.38v300.453
			c0,0.127,0.002,0.254,0.007,0.379v9.426c0,16.137,11.289,22.283,18.875,22.509c0.086,0.003,0.172,0.003,0.259,0.003h229.625
			c0.086,0,0.172,0,0.259-0.003c1.444-0.043,8.916-0.585,14.252-7.475c3.068-3.959,4.623-9.019,4.623-15.037V40.351
			C283.119,24.213,271.83,18.068,264.243,17.842z"/>
		<path style="fill:#C5C5C5;" d="M263.257,16.856c-0.086-0.003-0.172-0.004-0.258-0.004h-0.514c-0.044,0-0.087,0-0.13,0.001H33.375
			c-0.086,0-0.172,0.001-0.258,0.004C25.53,17.084,14.24,23.229,14.24,39.368v11.785c-0.005,0.126-0.007,0.252-0.007,0.379v300.453
			c0,0.127,0.002,0.254,0.007,0.379v9.426c0,16.137,11.289,22.283,18.875,22.509c0.086,0.003,0.172,0.004,0.259,0.004H263
			c0.086,0,0.172-0.001,0.259-0.004c1.444-0.043,8.916-0.585,14.252-7.475c3.068-3.959,4.623-9.019,4.623-15.037V39.365
			C282.133,23.228,270.844,17.082,263.257,16.856z"/>
		<path style="fill:#B7B7B7;" d="M262.272,15.871c-0.085-0.003-0.171-0.004-0.257-0.004H261.5c-0.044,0-0.087,0-0.13,0.001H32.389
			c-0.086,0-0.172,0.001-0.258,0.004c-7.587,0.227-18.876,6.371-18.876,22.511v11.785c-0.005,0.126-0.008,0.252-0.008,0.379V351
			c0,0.127,0.002,0.254,0.008,0.379v9.426c0,16.137,11.289,22.282,18.875,22.509c0.086,0.003,0.172,0.004,0.259,0.004h229.625
			c0.086,0,0.172-0.001,0.259-0.004c1.443-0.043,8.916-0.585,14.252-7.474c3.067-3.96,4.623-9.02,4.623-15.038V38.38
			C281.148,22.242,269.858,16.097,262.272,15.871z"/>
		<path style="fill:#A8A8A8;" d="M261.286,14.886c-0.085-0.003-0.172-0.004-0.258-0.004h-0.514c-0.043,0-0.087,0-0.13,0.001H31.403
			c-0.086,0-0.172,0.001-0.258,0.004c-7.587,0.226-18.876,6.371-18.876,22.511v11.785c-0.005,0.126-0.007,0.252-0.007,0.379v300.453
			c0,0.128,0.002,0.254,0.007,0.379v9.426c0,16.137,11.288,22.282,18.875,22.509c0.086,0.002,0.172,0.004,0.259,0.004h229.625
			c0.086,0,0.172-0.002,0.259-0.004c1.444-0.043,8.916-0.585,14.252-7.474c3.067-3.96,4.623-9.02,4.623-15.038V37.395
			C280.163,21.257,268.874,15.111,261.286,14.886z"/>
		<path style="fill:#9A9A9A;" d="M260.301,13.899c-0.086-0.002-0.172-0.003-0.258-0.003h-0.514c-0.044,0-0.087,0-0.13,0.001H30.419
			c-0.086,0-0.172,0.001-0.258,0.004c-7.587,0.226-18.876,6.371-18.876,22.511v11.784c-0.005,0.127-0.007,0.252-0.007,0.38v300.453
			c0,0.128,0.002,0.254,0.007,0.378v9.426c0,16.138,11.289,22.283,18.875,22.509c0.086,0.003,0.172,0.004,0.259,0.004h229.624
			c0.086,0,0.173-0.001,0.259-0.004c1.444-0.043,8.916-0.584,14.252-7.474c3.067-3.96,4.623-9.018,4.623-15.037V36.409
			C279.177,20.271,267.888,14.126,260.301,13.899z"/>
		<path style="fill:#8B8B8B;" d="M259.316,12.914c-0.086-0.002-0.172-0.003-0.258-0.003h-0.514c-0.044,0-0.087,0-0.13,0.001H29.433
			c-0.086,0-0.172,0.001-0.258,0.003c-7.587,0.227-18.876,6.371-18.876,22.511v11.785c-0.005,0.126-0.007,0.252-0.007,0.38v300.453
			c0,0.128,0.002,0.253,0.007,0.378v9.426c0,16.138,11.289,22.283,18.875,22.509c0.086,0.003,0.172,0.004,0.259,0.004h229.625
			c0.086,0,0.172-0.001,0.259-0.004c1.444-0.042,8.916-0.584,14.252-7.474c3.068-3.96,4.623-9.02,4.623-15.037V35.423
			C278.192,19.285,266.903,13.141,259.316,12.914z"/>
		<path style="fill:#7D7D7D;" d="M258.331,11.93c-0.086-0.002-0.173-0.004-0.258-0.004h-0.514c-0.043,0-0.087,0-0.13,0.001H28.447
			c-0.085,0-0.171,0.001-0.257,0.003C20.603,12.156,9.314,18.301,9.314,34.44v11.785c-0.005,0.126-0.007,0.253-0.007,0.38v300.453
			c0,0.127,0.002,0.253,0.007,0.378v9.426c0,16.138,11.289,22.283,18.875,22.509c0.086,0.003,0.172,0.004,0.258,0.004h229.626
			c0.086,0,0.172-0.001,0.259-0.004c1.443-0.042,8.915-0.584,14.252-7.474c3.067-3.96,4.622-9.02,4.622-15.038V34.438
			C277.206,18.3,265.917,12.155,258.331,11.93z"/>
		<path style="fill:#6E6E6E;" d="M257.345,10.944c-0.086-0.003-0.172-0.004-0.258-0.004h-0.514c-0.044,0-0.087,0-0.13,0.001H27.462
			c-0.086,0-0.172,0.001-0.258,0.004c-7.587,0.226-18.876,6.37-18.876,22.51V45.24c-0.005,0.126-0.007,0.253-0.007,0.38v300.453
			c0,0.127,0.002,0.253,0.007,0.378v9.426c0,16.138,11.29,22.283,18.875,22.509c0.086,0.003,0.172,0.004,0.259,0.004h229.625
			c0.086,0,0.172-0.001,0.259-0.004c1.444-0.042,8.916-0.584,14.253-7.474c3.067-3.959,4.623-9.02,4.623-15.037V33.453
			C276.221,17.314,264.932,11.17,257.345,10.944z"/>
		<path style="fill:#606060;" d="M256.359,9.959c-0.085-0.003-0.172-0.004-0.258-0.004h-0.514c-0.044,0-0.087,0-0.13,0.001H26.477
			c-0.085,0-0.172,0.001-0.258,0.004c-7.587,0.206-18.876,6.37-18.876,22.51v11.785c-0.005,0.126-0.007,0.253-0.007,0.38v300.453
			c0,0.127,0.002,0.253,0.007,0.379v9.426c0,16.137,11.288,22.302,18.875,22.508c0.086,0.003,0.173,0.004,0.259,0.004h229.625
			c0.086,0,0.173-0.001,0.259-0.004c1.444-0.038,8.916-0.584,14.252-7.474c3.067-3.959,4.623-9.02,4.623-15.037V32.468
			C275.236,16.329,263.947,10.165,256.359,9.959z"/>
	</g>
	<path style="fill:#FFFFFF;" d="M256.359,9.959c-0.085-0.003-0.172-0.004-0.258-0.004h-0.514c-0.044,0-0.087,0-0.13,0.001H26.477
		c-0.085,0-0.172,0.001-0.258,0.004c-7.587,0.206-18.876,6.37-18.876,22.51v11.785c-0.005,0.126-0.007,0.253-0.007,0.38v300.453
		c0,0.127,0.002,0.253,0.007,0.379v9.426c0,16.137,11.288,22.302,18.875,22.508c0.086,0.003,0.173,0.004,0.259,0.004h229.625
		c0.086,0,0.173-0.001,0.259-0.004c1.444-0.038,8.916-0.584,14.252-7.474c3.067-3.959,4.623-9.02,4.623-15.037V32.468
		C275.236,16.329,263.947,10.165,256.359,9.959z"/>
	<g>
		<g>
			<g>
				<path style="fill:#FFFFFF;" d="M256.102,19.456H145.975h-9.373H26.477c0,0-9.634,0.262-9.634,13.014v86.915v148.59v86.918
					c0,12.749,9.634,13.012,9.634,13.012h110.125h9.373h110.127c0,0,9.632-0.263,9.632-13.012v-86.918v-148.59V32.47
					C265.734,19.718,256.102,19.456,256.102,19.456z"/>
				<defs>
					<filter id="Adobe_OpacityMaskFilter" filterUnits="userSpaceOnUse" x="16.843" y="207.504" width="248.891" height="160.4">
						<feFlood  style="flood-color:white;flood-opacity:1" result="back"/>
						<feBlend  in="SourceGraphic" in2="back" mode="normal"/>
					</filter>
				</defs>
				<mask maskUnits="userSpaceOnUse" x="16.843" y="207.504" width="248.891" height="160.4" id="SVGID_1_">
					<g style="filter:url(#Adobe_OpacityMaskFilter);">
						<defs>
							
								<filter id="Adobe_OpacityMaskFilter_00000117635626013333375180000010631525297701218492_" filterUnits="userSpaceOnUse" x="16.843" y="207.504" width="248.891" height="160.4">
								<feFlood  style="flood-color:white;flood-opacity:1" result="back"/>
								<feBlend  in="SourceGraphic" in2="back" mode="normal"/>
							</filter>
						</defs>
						<mask maskUnits="userSpaceOnUse" x="16.843" y="207.504" width="248.891" height="160.4" id="SVGID_1_">
							<g style="filter:url(#Adobe_OpacityMaskFilter_00000117635626013333375180000010631525297701218492_);">
							</g>
						</mask>
						
							<radialGradient id="SVGID_00000085966209210132702830000012998062121531415186_" cx="137.437" cy="-99.3356" r="503.8667" gradientUnits="userSpaceOnUse">
							<stop  offset="0.6156" style="stop-color:#000000"/>
							<stop  offset="0.7516" style="stop-color:#020202"/>
							<stop  offset="0.8037" style="stop-color:#090909"/>
							<stop  offset="0.8413" style="stop-color:#151515"/>
							<stop  offset="0.8721" style="stop-color:#262626"/>
							<stop  offset="0.8986" style="stop-color:#3C3C3C"/>
							<stop  offset="0.9222" style="stop-color:#585858"/>
							<stop  offset="0.9436" style="stop-color:#797979"/>
							<stop  offset="0.9634" style="stop-color:#9F9F9F"/>
							<stop  offset="0.9817" style="stop-color:#CBCBCB"/>
							<stop  offset="0.9982" style="stop-color:#F9F9F9"/>
							<stop  offset="1" style="stop-color:#FFFFFF"/>
						</radialGradient>
						<path style="mask:url(#SVGID_1_);fill:url(#SVGID_00000085966209210132702830000012998062121531415186_);" d="
							M163.595,207.517c-48.918,0.011-97.835,0.031-146.752,0.052v147.324c0,12.749,9.634,13.012,9.634,13.012h229.625
							c0,0,9.632-0.263,9.632-13.012V207.504C231.687,207.508,197.642,207.51,163.595,207.517z"/>
					</g>
				</mask>
				
					<radialGradient id="SVGID_00000047759980113036767610000005333836085589787820_" cx="137.437" cy="-99.3356" r="503.8667" gradientUnits="userSpaceOnUse">
					<stop  offset="0.6156" style="stop-color:#FFFFFF"/>
					<stop  offset="0.7878" style="stop-color:#FDFDFD"/>
					<stop  offset="0.8537" style="stop-color:#F6F6F6"/>
					<stop  offset="0.9014" style="stop-color:#EAEAEA"/>
					<stop  offset="0.9403" style="stop-color:#D9D9D9"/>
					<stop  offset="0.9735" style="stop-color:#C3C3C3"/>
					<stop  offset="1" style="stop-color:#ABABAB"/>
				</radialGradient>
				<path style="fill:url(#SVGID_00000047759980113036767610000005333836085589787820_);" d="M163.595,207.517
					c-48.918,0.011-97.835,0.031-146.752,0.052v147.324c0,12.749,9.634,13.012,9.634,13.012h229.625c0,0,9.632-0.263,9.632-13.012
					V207.504C231.687,207.508,197.642,207.51,163.595,207.517z"/>
				<defs>
					
						<filter id="Adobe_OpacityMaskFilter_00000026133348375233996990000007742667310385238409_" filterUnits="userSpaceOnUse" x="16.843" y="19.456" width="248.891" height="173.936">
						<feFlood  style="flood-color:white;flood-opacity:1" result="back"/>
						<feBlend  in="SourceGraphic" in2="back" mode="normal"/>
					</filter>
				</defs>
				
					<mask maskUnits="userSpaceOnUse" x="16.843" y="19.456" width="248.891" height="173.936" id="SVGID_00000138563032160372151280000005488152370774075562_">
					<g style="filter:url(#Adobe_OpacityMaskFilter_00000026133348375233996990000007742667310385238409_);">
						<defs>
							
								<filter id="Adobe_OpacityMaskFilter_00000127749623007720481660000008625259030672691381_" filterUnits="userSpaceOnUse" x="16.843" y="19.456" width="248.891" height="173.936">
								<feFlood  style="flood-color:white;flood-opacity:1" result="back"/>
								<feBlend  in="SourceGraphic" in2="back" mode="normal"/>
							</filter>
						</defs>
						
							<mask maskUnits="userSpaceOnUse" x="16.843" y="19.456" width="248.891" height="173.936" id="SVGID_00000138563032160372151280000005488152370774075562_">
							<g style="filter:url(#Adobe_OpacityMaskFilter_00000127749623007720481660000008625259030672691381_);">
							</g>
						</mask>
						
							<radialGradient id="SVGID_00000115490743414277116800000014398346291844457100_" cx="142.4225" cy="341.0055" r="361.0511" gradientUnits="userSpaceOnUse">
							<stop  offset="0.6156" style="stop-color:#000000"/>
							<stop  offset="0.7096" style="stop-color:#020202"/>
							<stop  offset="0.7623" style="stop-color:#0A0A0A"/>
							<stop  offset="0.8047" style="stop-color:#181818"/>
							<stop  offset="0.8418" style="stop-color:#2C2C2C"/>
							<stop  offset="0.8752" style="stop-color:#464646"/>
							<stop  offset="0.9062" style="stop-color:#656565"/>
							<stop  offset="0.9352" style="stop-color:#8A8A8A"/>
							<stop  offset="0.9626" style="stop-color:#B6B6B6"/>
							<stop  offset="0.9879" style="stop-color:#E5E5E5"/>
							<stop  offset="1" style="stop-color:#FFFFFF"/>
						</radialGradient>
						
							<path style="mask:url(#SVGID_00000138563032160372151280000005488152370774075562_);fill:url(#SVGID_00000115490743414277116800000014398346291844457100_);" d="
							M16.843,193.303c20.945,0.016,41.891,0.032,62.837,0.044c60.363,0.034,120.725,0.038,181.087,0.046c1.657,0,3.313,0,4.968,0
							V32.47c0-12.752-9.632-13.014-9.632-13.014H26.477c0,0-9.634,0.262-9.634,13.014v86.915V193.303z"/>
					</g>
				</mask>
				
					<radialGradient id="SVGID_00000068643062737365168930000016478239151324218534_" cx="142.4225" cy="341.0055" r="361.0511" gradientUnits="userSpaceOnUse">
					<stop  offset="0.6156" style="stop-color:#FFFFFF"/>
					<stop  offset="0.747" style="stop-color:#FDFDFD"/>
					<stop  offset="0.8206" style="stop-color:#F5F5F5"/>
					<stop  offset="0.8799" style="stop-color:#E7E7E7"/>
					<stop  offset="0.9316" style="stop-color:#D3D3D3"/>
					<stop  offset="0.9778" style="stop-color:#BABABA"/>
					<stop  offset="1" style="stop-color:#ABABAB"/>
				</radialGradient>
				<path style="fill:url(#SVGID_00000068643062737365168930000016478239151324218534_);" d="M16.843,193.303
					c20.945,0.016,41.891,0.032,62.837,0.044c60.363,0.034,120.725,0.038,181.087,0.046c1.657,0,3.313,0,4.968,0V32.47
					c0-12.752-9.632-13.014-9.632-13.014H26.477c0,0-9.634,0.262-9.634,13.014v86.915V193.303z"/>
			</g>
			<g>
				<defs>
					
						<filter id="Adobe_OpacityMaskFilter_00000094596783830326987810000016031202717028594575_" filterUnits="userSpaceOnUse" x="21.426" y="19.455" width="244.31" height="348.448">
						<feFlood  style="flood-color:white;flood-opacity:1" result="back"/>
						<feBlend  in="SourceGraphic" in2="back" mode="normal"/>
					</filter>
				</defs>
				
					<mask maskUnits="userSpaceOnUse" x="21.426" y="19.455" width="244.31" height="348.448" id="SVGID_00000071520454735503249880000010550326666952376454_">
					<g style="filter:url(#Adobe_OpacityMaskFilter_00000094596783830326987810000016031202717028594575_);">
						<defs>
							
								<filter id="Adobe_OpacityMaskFilter_00000112596339559873997440000001755189471172336304_" filterUnits="userSpaceOnUse" x="21.426" y="19.455" width="244.31" height="348.448">
								<feFlood  style="flood-color:white;flood-opacity:1" result="back"/>
								<feBlend  in="SourceGraphic" in2="back" mode="normal"/>
							</filter>
						</defs>
						
							<mask maskUnits="userSpaceOnUse" x="21.426" y="19.455" width="244.31" height="348.448" id="SVGID_00000071520454735503249880000010550326666952376454_">
							<g style="filter:url(#Adobe_OpacityMaskFilter_00000112596339559873997440000001755189471172336304_);">
							</g>
						</mask>
						
							<radialGradient id="SVGID_00000063619976082547399150000010444175292775949720_" cx="6.1956" cy="19.2982" r="400.8942" gradientUnits="userSpaceOnUse">
							<stop  offset="0.0988" style="stop-color:#000000"/>
							<stop  offset="1" style="stop-color:#FFFFFF"/>
						</radialGradient>
						
							<path style="mask:url(#SVGID_00000071520454735503249880000010550326666952376454_);fill:url(#SVGID_00000063619976082547399150000010444175292775949720_);" d="
							M265.23,32.449v86.79v148.375l0.001,86.79c0,12.734-9.644,12.994-9.644,12.994H145.352h-9.383H25.729
							c0,0-2.078-0.058-4.303-1.391c2.482,1.82,5.049,1.895,5.049,1.895h110.129h9.372h110.125c0,0,9.634-0.263,9.634-13.014
							v-86.915V119.384V32.468c0-12.751-9.634-13.013-9.634-13.013h-0.514C255.588,19.455,265.23,19.717,265.23,32.449z"/>
					</g>
				</mask>
				
					<radialGradient id="SVGID_00000176740396187352169990000014815677150599341972_" cx="6.1956" cy="19.2982" r="400.8942" gradientUnits="userSpaceOnUse">
					<stop  offset="0.0988" style="stop-color:#FFFFFF"/>
					<stop  offset="1" style="stop-color:#ABABAB"/>
				</radialGradient>
				<path style="fill:url(#SVGID_00000176740396187352169990000014815677150599341972_);" d="M265.23,32.449v86.79v148.375
					l0.001,86.79c0,12.734-9.644,12.994-9.644,12.994H145.352h-9.383H25.729c0,0-2.078-0.058-4.303-1.391
					c2.482,1.82,5.049,1.895,5.049,1.895h110.129h9.372h110.125c0,0,9.634-0.263,9.634-13.014v-86.915V119.384V32.468
					c0-12.751-9.634-13.013-9.634-13.013h-0.514C255.588,19.455,265.23,19.717,265.23,32.449z"/>
			</g>
			<defs>
				
					<filter id="Adobe_OpacityMaskFilter_00000031171876115537286210000008318961487600753341_" filterUnits="userSpaceOnUse" x="16.843" y="19.456" width="244.309" height="348.448">
					<feFlood  style="flood-color:white;flood-opacity:1" result="back"/>
					<feBlend  in="SourceGraphic" in2="back" mode="normal"/>
				</filter>
			</defs>
			
				<mask maskUnits="userSpaceOnUse" x="16.843" y="19.456" width="244.309" height="348.448" id="SVGID_00000119808709144727689340000007151501888666616249_">
				<g style="filter:url(#Adobe_OpacityMaskFilter_00000031171876115537286210000008318961487600753341_);">
					<defs>
						
							<filter id="Adobe_OpacityMaskFilter_00000078012960252434191430000003893215259929169046_" filterUnits="userSpaceOnUse" x="16.843" y="19.456" width="244.309" height="348.448">
							<feFlood  style="flood-color:white;flood-opacity:1" result="back"/>
							<feBlend  in="SourceGraphic" in2="back" mode="normal"/>
						</filter>
					</defs>
					
						<mask maskUnits="userSpaceOnUse" x="16.843" y="19.456" width="244.309" height="348.448" id="SVGID_00000119808709144727689340000007151501888666616249_">
						<g style="filter:url(#Adobe_OpacityMaskFilter_00000078012960252434191430000003893215259929169046_);">
						</g>
					</mask>
					
						<radialGradient id="SVGID_00000044886087353678335290000012469286505633467796_" cx="84.8274" cy="120.8646" r="341.4542" gradientUnits="userSpaceOnUse">
						<stop  offset="0" style="stop-color:#000000"/>
						<stop  offset="0.0074" style="stop-color:#090909"/>
						<stop  offset="0.0477" style="stop-color:#373737"/>
						<stop  offset="0.0931" style="stop-color:#626262"/>
						<stop  offset="0.1419" style="stop-color:#888888"/>
						<stop  offset="0.195" style="stop-color:#A8A8A8"/>
						<stop  offset="0.2537" style="stop-color:#C4C4C4"/>
						<stop  offset="0.32" style="stop-color:#DADADA"/>
						<stop  offset="0.3974" style="stop-color:#EBEBEB"/>
						<stop  offset="0.4931" style="stop-color:#F6F6F6"/>
						<stop  offset="0.6274" style="stop-color:#FDFDFD"/>
						<stop  offset="1" style="stop-color:#FFFFFF"/>
					</radialGradient>
					
						<path style="mask:url(#SVGID_00000119808709144727689340000007151501888666616249_);fill:url(#SVGID_00000044886087353678335290000012469286505633467796_);" d="
						M17.346,354.911v-86.792V119.745v-86.79c0-12.733,9.643-12.995,9.643-12.995h110.238h9.381h110.241
						c0,0,2.076,0.059,4.303,1.392c-2.484-1.821-5.05-1.896-5.05-1.896H145.975h-9.373H26.477c0,0-9.634,0.262-9.634,13.014v86.915
						v148.59v86.918c0,12.749,9.634,13.012,9.634,13.012h0.513C26.989,367.904,17.346,367.642,17.346,354.911z"/>
				</g>
			</mask>
			
				<radialGradient id="SVGID_00000114039335859467828350000009283605418903751555_" cx="84.8274" cy="120.8646" r="341.4542" gradientUnits="userSpaceOnUse">
				<stop  offset="0" style="stop-color:#FFFFFF"/>
				<stop  offset="0.1413" style="stop-color:#FFFFFF"/>
				<stop  offset="1" style="stop-color:#FFFFFF"/>
			</radialGradient>
			<path style="fill:url(#SVGID_00000114039335859467828350000009283605418903751555_);" d="M17.346,354.911v-86.792V119.745v-86.79
				c0-12.733,9.643-12.995,9.643-12.995h110.238h9.381h110.241c0,0,2.076,0.059,4.303,1.392c-2.484-1.821-5.05-1.896-5.05-1.896
				H145.975h-9.373H26.477c0,0-9.634,0.262-9.634,13.014v86.915v148.59v86.918c0,12.749,9.634,13.012,9.634,13.012h0.513
				C26.989,367.904,17.346,367.642,17.346,354.911z"/>
			<g>
				<defs>
					
						<filter id="Adobe_OpacityMaskFilter_00000119109656821461727350000015484814774850679433_" filterUnits="userSpaceOnUse" x="16.836" y="44.634" width="0.505" height="300.455">
						<feFlood  style="flood-color:white;flood-opacity:1" result="back"/>
						<feBlend  in="SourceGraphic" in2="back" mode="normal"/>
					</filter>
				</defs>
				
					<mask maskUnits="userSpaceOnUse" x="16.836" y="44.634" width="0.505" height="300.455" id="SVGID_00000083779378760719714850000006795421198442568878_">
					<g style="filter:url(#Adobe_OpacityMaskFilter_00000119109656821461727350000015484814774850679433_);">
						<defs>
							
								<filter id="Adobe_OpacityMaskFilter_00000159431360841874450240000013777760907372032671_" filterUnits="userSpaceOnUse" x="16.836" y="44.634" width="0.505" height="300.455">
								<feFlood  style="flood-color:white;flood-opacity:1" result="back"/>
								<feBlend  in="SourceGraphic" in2="back" mode="normal"/>
							</filter>
						</defs>
						
							<mask maskUnits="userSpaceOnUse" x="16.836" y="44.634" width="0.505" height="300.455" id="SVGID_00000083779378760719714850000006795421198442568878_">
							<g style="filter:url(#Adobe_OpacityMaskFilter_00000159431360841874450240000013777760907372032671_);">
							</g>
						</mask>
						
							<radialGradient id="SVGID_00000059999658741492665720000006723369832610361277_" cx="341.1111" cy="19.2967" r="400.856" gradientTransform="matrix(-1 0 0 1 617.418 0)" gradientUnits="userSpaceOnUse">
							<stop  offset="0.0988" style="stop-color:#000000"/>
							<stop  offset="1" style="stop-color:#FFFFFF"/>
						</radialGradient>
						
							<path style="mask:url(#SVGID_00000083779378760719714850000006795421198442568878_);fill:url(#SVGID_00000059999658741492665720000006723369832610361277_);" d="
							M16.836,44.634v300.455c0.167-0.608,0.332-1.218,0.503-1.826l0.002-75.648V50.08C17.167,48.265,17,46.449,16.836,44.634z"/>
					</g>
				</mask>
				
					<radialGradient id="SVGID_00000047038599285170863880000015765075273845091243_" cx="341.1111" cy="19.2967" r="400.856" gradientTransform="matrix(-1 0 0 1 617.418 0)" gradientUnits="userSpaceOnUse">
					<stop  offset="0.0988" style="stop-color:#FFFFFF"/>
					<stop  offset="1" style="stop-color:#ABABAB"/>
				</radialGradient>
				<path style="fill:url(#SVGID_00000047038599285170863880000015765075273845091243_);" d="M16.836,44.634v300.455
					c0.167-0.608,0.332-1.218,0.503-1.826l0.002-75.648V50.08C17.167,48.265,17,46.449,16.836,44.634z"/>
			</g>
		</g>
		<g>
			<path style="fill:#FF2601;" d="M42.666,86.751c-5.194,3.811-7.76,7.795-7.827,7.897v0.006l-0.001-0.003l-0.002,0.003v-0.006
				c-0.067-0.103-2.634-4.087-7.828-7.897c-5.263-3.861-6.46-8.677-4.578-12.312c1.883-3.634,9.411-5.404,12.408,1.814
				c2.996-7.219,10.525-5.448,12.408-1.814C49.127,78.074,47.929,82.89,42.666,86.751z"/>
			<path style="fill:#FF2601;" d="M38.203,61.255c0.719,0,1.298-0.044,1.738-0.133c0.44-0.088,0.793-0.233,1.058-0.439
				c0.263-0.205,0.472-0.474,0.626-0.803c0.154-0.331,0.349-0.841,0.583-1.529h1.871l-0.375,6.424H25.596v-1.057
				c0.63-1.539,1.48-3.115,2.552-4.729c1.071-1.614,2.589-3.513,4.554-5.699c1.701-1.877,2.927-3.301,3.675-4.27
				c0.821-1.055,1.434-1.968,1.838-2.739c0.403-0.769,0.692-1.494,0.868-2.177c0.178-0.683,0.265-1.368,0.265-2.059
				c0-1.1-0.176-2.071-0.527-2.915c-0.353-0.844-0.892-1.507-1.619-1.991c-0.725-0.483-1.638-0.725-2.739-0.725
				c-2.744,0-4.592,1.525-5.545,4.576h-2.663v-4.225c1.776-0.837,3.437-1.441,4.984-1.815c1.548-0.374,2.938-0.561,4.17-0.561
				c2.729,0,4.789,0.598,6.183,1.793c1.395,1.196,2.091,2.93,2.091,5.204c0,0.777-0.078,1.493-0.232,2.146
				c-0.154,0.652-0.396,1.298-0.726,1.936c-0.329,0.639-0.774,1.324-1.33,2.058c-0.558,0.734-1.174,1.478-1.849,2.233
				c-0.674,0.756-1.842,2.013-3.498,3.773c-2.787,2.948-4.834,5.524-6.139,7.724H38.203z"/>
		</g>
		<g>
			<path style="fill:#FF2601;" d="M237.324,300.03c5.194-3.81,7.761-7.794,7.828-7.897v-0.006l0.001,0.003l0.001-0.003v0.006
				c0.067,0.103,2.635,4.088,7.828,7.897c5.263,3.861,6.461,8.678,4.579,12.312c-1.883,3.634-9.412,5.404-12.409-1.814
				c-2.995,7.218-10.524,5.447-12.407,1.814C230.863,308.708,232.062,303.892,237.324,300.03z"/>
			<path style="fill:#FF2601;" d="M241.788,325.527c-0.719,0-1.298,0.044-1.738,0.132c-0.439,0.088-0.792,0.233-1.057,0.44
				c-0.263,0.206-0.473,0.474-0.626,0.804c-0.155,0.33-0.349,0.84-0.583,1.53h-1.872l0.374-6.426h18.108v1.057
				c-0.63,1.539-1.479,3.115-2.552,4.73c-1.07,1.614-2.588,3.514-4.554,5.7c-1.701,1.877-2.927,3.3-3.675,4.269
				c-0.821,1.055-1.433,1.969-1.838,2.739c-0.403,0.77-0.692,1.496-0.868,2.179c-0.177,0.681-0.265,1.367-0.265,2.057
				c0,1.101,0.176,2.071,0.528,2.916c0.353,0.843,0.891,1.507,1.618,1.99c0.725,0.484,1.638,0.727,2.739,0.727
				c2.743,0,4.591-1.525,5.545-4.577h2.663v4.225c-1.776,0.837-3.436,1.442-4.984,1.815c-1.548,0.374-2.939,0.56-4.17,0.56
				c-2.728,0-4.789-0.598-6.183-1.793c-1.394-1.196-2.09-2.93-2.09-5.204c0-0.777,0.077-1.492,0.231-2.145
				c0.153-0.653,0.396-1.298,0.727-1.936c0.329-0.638,0.774-1.323,1.33-2.058c0.558-0.733,1.174-1.478,1.849-2.232
				c0.674-0.757,1.841-2.014,3.498-3.774c2.786-2.948,4.834-5.523,6.139-7.723H241.788z"/>
		</g>
		<g>
			<path style="fill:#FF2601;" d="M156.826,101.814c-10.309,7.563-15.403,15.47-15.535,15.677v0.011l-0.003-0.006l-0.003,0.006
				v-0.011c-0.132-0.207-5.228-8.114-15.535-15.677c-10.446-7.664-12.823-17.222-9.087-24.434
				c3.736-7.212,18.678-10.729,24.626,3.599c5.945-14.327,20.889-10.811,24.625-3.599C169.651,84.593,167.273,94.15,156.826,101.814
				z"/>
			<path style="fill:#FF2601;" d="M125.751,284.971c10.309-7.561,15.402-15.469,15.535-15.676v-0.011l0.003,0.006l0.003-0.006v0.011
				c0.133,0.207,5.228,8.115,15.536,15.677c10.445,7.664,12.823,17.222,9.086,24.434c-3.736,7.212-18.677,10.729-24.625-3.599
				c-5.945,14.327-20.889,10.811-24.625,3.599C112.926,302.192,115.304,292.636,125.751,284.971z"/>
		</g>
	</g>
</g>
</svg>
