<?xml version="1.0" encoding="utf-8"?>
<!-- Generator: Adobe Illustrator 27.5.0, SVG Export Plug-In . SVG Version: 6.00 Build 0)  -->
<svg version="1.1" id="Layer_1" xmlns="http://www.w3.org/2000/svg" xmlns:xlink="http://www.w3.org/1999/xlink" x="0px" y="0px"
	 viewBox="0 0 293.41 398.198" style="enable-background:new 0 0 293.41 398.198;" xml:space="preserve">
<g>
	<g>
		<path style="fill:#FFFFFF;" d="M267.199,20.799c-0.086-0.004-0.173-0.004-0.259-0.004h-0.514c-0.044,0-0.088,0-0.131,0H37.316
			c-0.088,0-0.174,0.001-0.26,0.004c-7.588,0.206-18.874,6.373-18.874,22.51v11.788c-0.005,0.124-0.008,0.251-0.008,0.377v300.454
			c0,0.126,0.003,0.252,0.008,0.378v9.426c0,16.14,11.288,22.302,18.875,22.508c0.086,0.003,0.171,0.004,0.259,0.004H266.94
			c0.086,0,0.173-0.001,0.259-0.004c1.443-0.038,8.916-0.583,14.25-7.47c3.069-3.959,4.626-9.019,4.626-15.039V43.306
			C286.075,27.17,274.786,21.005,267.199,20.799z"/>
		<path style="fill:#F1F1F1;" d="M266.214,19.813c-0.086-0.003-0.173-0.004-0.259-0.004h-0.514c-0.044,0-0.088,0-0.131,0.001H36.33
			c-0.087,0-0.173,0.002-0.259,0.004c-7.587,0.226-18.875,6.372-18.875,22.51V54.11c-0.005,0.125-0.008,0.252-0.008,0.378v300.454
			c0,0.126,0.003,0.252,0.008,0.378v9.426c0,16.139,11.289,22.283,18.876,22.508c0.086,0.003,0.171,0.004,0.258,0.004h229.625
			c0.086,0,0.173-0.001,0.259-0.004c1.443-0.042,8.916-0.583,14.25-7.47c3.069-3.96,4.626-9.02,4.626-15.04V42.32
			C285.09,26.184,273.801,20.038,266.214,19.813z"/>
		<path style="fill:#E2E2E2;" d="M265.228,18.827c-0.086-0.003-0.172-0.004-0.259-0.004h-0.514c-0.044,0-0.087,0-0.131,0.001H35.345
			c-0.087,0-0.173,0.002-0.259,0.004C27.5,19.055,16.211,25.2,16.211,41.338v11.787c-0.005,0.125-0.008,0.252-0.008,0.378v300.454
			c0,0.126,0.003,0.252,0.008,0.378v9.427c0,16.138,11.289,22.282,18.876,22.508c0.086,0.002,0.171,0.003,0.258,0.003H264.97
			c0.087,0,0.173-0.001,0.259-0.003c1.443-0.043,8.916-0.585,14.25-7.471c3.069-3.959,4.626-9.02,4.626-15.04V41.336
			C284.104,25.198,272.815,19.053,265.228,18.827z"/>
		<path style="fill:#D4D4D4;" d="M264.243,17.842c-0.086-0.003-0.172-0.004-0.259-0.004h-0.514c-0.044,0-0.087,0-0.131,0.001H34.359
			c-0.086,0-0.173,0.001-0.259,0.004c-7.586,0.226-18.875,6.372-18.875,22.511V52.14c-0.005,0.126-0.007,0.252-0.007,0.378v300.454
			c0,0.126,0.002,0.253,0.007,0.378v9.427c0,16.138,11.29,22.282,18.876,22.508c0.086,0.003,0.172,0.003,0.258,0.003h229.625
			c0.087,0,0.173,0,0.259-0.003c1.444-0.043,8.916-0.585,14.25-7.471c3.069-3.959,4.626-9.02,4.626-15.04V40.351
			C283.119,24.213,271.83,18.067,264.243,17.842z"/>
		<path style="fill:#C5C5C5;" d="M263.258,16.857c-0.086-0.003-0.172-0.004-0.259-0.004h-0.514c-0.044,0-0.087,0-0.131,0.001H33.374
			c-0.086,0-0.173,0.001-0.259,0.004c-7.587,0.226-18.875,6.372-18.875,22.511v11.786c-0.005,0.126-0.007,0.252-0.007,0.378v300.454
			c0,0.126,0.002,0.253,0.007,0.378v9.427c0,16.138,11.29,22.282,18.876,22.508c0.086,0.003,0.172,0.004,0.258,0.004h229.625
			c0.087,0,0.173-0.001,0.259-0.004c1.444-0.043,8.916-0.585,14.25-7.471c3.069-3.959,4.626-9.02,4.626-15.04V39.365
			C282.134,23.229,270.845,17.082,263.258,16.857z"/>
		<path style="fill:#B7B7B7;" d="M262.273,15.871c-0.087-0.003-0.173-0.004-0.26-0.004H261.5c-0.043,0-0.087,0-0.131,0.001H32.389
			c-0.086,0-0.173,0.001-0.259,0.004c-7.587,0.226-18.875,6.372-18.875,22.511V50.17c-0.005,0.125-0.007,0.251-0.007,0.377v300.454
			c0,0.126,0.002,0.253,0.007,0.378v9.427c0,16.138,11.289,22.282,18.876,22.508c0.086,0.003,0.172,0.004,0.258,0.004h229.625
			c0.087,0,0.173-0.001,0.26-0.004c1.443-0.043,8.915-0.585,14.25-7.471c3.068-3.959,4.625-9.018,4.625-15.04V38.38
			C281.148,22.243,269.859,16.097,262.273,15.871z"/>
		<path style="fill:#A8A8A8;" d="M261.288,14.886c-0.087-0.003-0.173-0.004-0.259-0.004h-0.515c-0.043,0-0.087,0-0.131,0.001H31.403
			c-0.086,0-0.173,0.001-0.259,0.004c-7.587,0.226-18.875,6.373-18.875,22.511v11.787c-0.004,0.125-0.007,0.251-0.007,0.377v300.454
			c0,0.127,0.003,0.253,0.007,0.378v9.427c0,16.138,11.289,22.282,18.876,22.508c0.086,0.002,0.172,0.004,0.258,0.004h229.626
			c0.086,0,0.172-0.002,0.259-0.004c1.443-0.043,8.915-0.585,14.25-7.471c3.068-3.959,4.625-9.019,4.625-15.04V37.395
			C280.163,21.258,268.874,15.111,261.288,14.886z"/>
		<path style="fill:#9A9A9A;" d="M260.303,13.899c-0.088-0.002-0.173-0.003-0.26-0.003h-0.514c-0.043,0-0.088,0-0.131,0.001H30.417
			c-0.085,0-0.172,0.001-0.258,0.004c-7.587,0.226-18.876,6.372-18.876,22.511v11.787c-0.003,0.125-0.007,0.251-0.007,0.377v300.455
			c0,0.126,0.004,0.252,0.007,0.376v9.428c0,16.137,11.29,22.282,18.876,22.508c0.087,0.002,0.173,0.004,0.258,0.004h229.626
			c0.087,0,0.172-0.002,0.26-0.004c1.442-0.044,8.915-0.585,14.25-7.471c3.068-3.96,4.625-9.02,4.625-15.041V36.409
			C279.178,20.271,267.889,14.126,260.303,13.899z"/>
		<path style="fill:#8B8B8B;" d="M259.317,12.914c-0.087-0.002-0.174-0.003-0.26-0.003h-0.515c-0.043,0-0.087,0-0.13,0.001H29.432
			c-0.086,0-0.172,0.001-0.259,0.003c-7.586,0.226-18.874,6.373-18.874,22.512v11.786c-0.005,0.125-0.008,0.251-0.008,0.377v300.455
			c0,0.126,0.003,0.252,0.008,0.377v9.427c0,16.138,11.289,22.283,18.875,22.508c0.087,0.003,0.172,0.004,0.258,0.004h229.626
			c0.086,0,0.173-0.001,0.26-0.004c1.442-0.042,8.914-0.584,14.25-7.47c3.067-3.96,4.625-9.02,4.625-15.041V35.423
			C278.192,19.286,266.903,13.141,259.317,12.914z"/>
		<path style="fill:#7D7D7D;" d="M258.331,11.93c-0.086-0.002-0.173-0.004-0.259-0.004h-0.514c-0.044,0-0.088,0-0.131,0.001H28.447
			c-0.087,0-0.173,0.001-0.26,0.003C20.602,12.156,9.314,18.303,9.314,34.44v11.787c-0.005,0.125-0.008,0.251-0.008,0.378V347.06
			c0,0.126,0.003,0.252,0.008,0.377v9.427c0,16.139,11.289,22.282,18.875,22.508c0.087,0.003,0.172,0.004,0.259,0.004h229.625
			c0.086,0,0.173-0.001,0.259-0.004c1.443-0.042,8.915-0.584,14.25-7.47c3.069-3.96,4.626-9.02,4.626-15.04V34.438
			C277.207,18.301,265.918,12.155,258.331,11.93z"/>
		<path style="fill:#6E6E6E;" d="M257.346,10.944c-0.086-0.003-0.173-0.004-0.259-0.004h-0.514c-0.044,0-0.088,0-0.131,0.001H27.462
			c-0.087,0-0.173,0.001-0.259,0.004c-7.587,0.225-18.875,6.372-18.875,22.51v11.787C8.323,45.367,8.32,45.494,8.32,45.62v300.454
			c0,0.126,0.003,0.252,0.008,0.377v9.427c0,16.139,11.289,22.282,18.875,22.508c0.087,0.003,0.172,0.004,0.259,0.004h229.625
			c0.086,0,0.173-0.001,0.259-0.004c1.443-0.042,8.916-0.584,14.25-7.47c3.069-3.96,4.626-9.02,4.626-15.04V33.453
			C276.222,17.316,264.932,11.17,257.346,10.944z"/>
		<path style="fill:#606060;" d="M256.36,9.959c-0.086-0.003-0.173-0.004-0.259-0.004h-0.514c-0.044,0-0.088,0-0.131,0.001H26.477
			c-0.087,0-0.173,0.001-0.259,0.004c-7.587,0.206-18.875,6.372-18.875,22.51v11.787c-0.005,0.125-0.008,0.252-0.008,0.378v300.454
			c0,0.126,0.003,0.252,0.008,0.378v9.426c0,16.139,11.288,22.303,18.876,22.508c0.086,0.003,0.171,0.004,0.258,0.004h229.625
			c0.086,0,0.173-0.001,0.259-0.004c1.443-0.038,8.916-0.584,14.25-7.47c3.069-3.96,4.626-9.02,4.626-15.04V32.468
			C275.236,16.33,263.947,10.166,256.36,9.959z"/>
	</g>
	<path style="fill:#FFFFFF;" d="M256.36,9.959c-0.086-0.003-0.173-0.004-0.259-0.004h-0.514c-0.044,0-0.088,0-0.131,0.001H26.477
		c-0.087,0-0.173,0.001-0.259,0.004c-7.587,0.206-18.875,6.372-18.875,22.51v11.787c-0.005,0.125-0.008,0.252-0.008,0.378v300.454
		c0,0.126,0.003,0.252,0.008,0.378v9.426c0,16.139,11.288,22.303,18.876,22.508c0.086,0.003,0.171,0.004,0.258,0.004h229.625
		c0.086,0,0.173-0.001,0.259-0.004c1.443-0.038,8.916-0.584,14.25-7.47c3.069-3.96,4.626-9.02,4.626-15.04V32.468
		C275.236,16.33,263.947,10.166,256.36,9.959z"/>
	<g>
		<g>
			<g>
				<path style="fill:#FFFFFF;" d="M256.102,19.457H145.975h-9.373H26.477c0,0-9.634,0.262-9.634,13.013v86.916v148.59v86.917
					c0,12.75,9.634,13.012,9.634,13.012h110.125h9.373h110.127c0,0,9.633-0.262,9.633-13.012v-86.917v-148.59V32.47
					C265.734,19.719,256.102,19.457,256.102,19.457z"/>
				<defs>
					<filter id="Adobe_OpacityMaskFilter" filterUnits="userSpaceOnUse" x="16.843" y="207.505" width="248.892" height="160.399">
						<feFlood  style="flood-color:white;flood-opacity:1" result="back"/>
						<feBlend  in="SourceGraphic" in2="back" mode="normal"/>
					</filter>
				</defs>
				<mask maskUnits="userSpaceOnUse" x="16.843" y="207.505" width="248.892" height="160.399" id="SVGID_1_">
					<g style="filter:url(#Adobe_OpacityMaskFilter);">
						<defs>
							
								<filter id="Adobe_OpacityMaskFilter_00000160167055953859525100000016872989085400146869_" filterUnits="userSpaceOnUse" x="16.843" y="207.505" width="248.892" height="160.399">
								<feFlood  style="flood-color:white;flood-opacity:1" result="back"/>
								<feBlend  in="SourceGraphic" in2="back" mode="normal"/>
							</filter>
						</defs>
						<mask maskUnits="userSpaceOnUse" x="16.843" y="207.505" width="248.892" height="160.399" id="SVGID_1_">
							<g style="filter:url(#Adobe_OpacityMaskFilter_00000160167055953859525100000016872989085400146869_);">
							</g>
						</mask>
						
							<radialGradient id="SVGID_00000159437608975773122590000010224433636934334090_" cx="137.4373" cy="-99.3327" r="503.8639" gradientUnits="userSpaceOnUse">
							<stop  offset="0.6156" style="stop-color:#000000"/>
							<stop  offset="0.7516" style="stop-color:#020202"/>
							<stop  offset="0.8037" style="stop-color:#090909"/>
							<stop  offset="0.8413" style="stop-color:#151515"/>
							<stop  offset="0.8721" style="stop-color:#262626"/>
							<stop  offset="0.8986" style="stop-color:#3C3C3C"/>
							<stop  offset="0.9222" style="stop-color:#585858"/>
							<stop  offset="0.9436" style="stop-color:#797979"/>
							<stop  offset="0.9634" style="stop-color:#9F9F9F"/>
							<stop  offset="0.9817" style="stop-color:#CBCBCB"/>
							<stop  offset="0.9982" style="stop-color:#F9F9F9"/>
							<stop  offset="1" style="stop-color:#FFFFFF"/>
						</radialGradient>
						<path style="mask:url(#SVGID_1_);fill:url(#SVGID_00000159437608975773122590000010224433636934334090_);" d="
							M163.595,207.518c-48.918,0.011-97.835,0.031-146.752,0.051v147.324c0,12.75,9.634,13.012,9.634,13.012h229.625
							c0,0,9.633-0.262,9.633-13.012V207.505C231.688,207.509,197.642,207.511,163.595,207.518z"/>
					</g>
				</mask>
				
					<radialGradient id="SVGID_00000042703795268215536960000006780987712335733134_" cx="137.4373" cy="-99.3327" r="503.8639" gradientUnits="userSpaceOnUse">
					<stop  offset="0.6156" style="stop-color:#FFFFFF"/>
					<stop  offset="0.7878" style="stop-color:#FDFDFD"/>
					<stop  offset="0.8537" style="stop-color:#F6F6F6"/>
					<stop  offset="0.9014" style="stop-color:#EAEAEA"/>
					<stop  offset="0.9403" style="stop-color:#D9D9D9"/>
					<stop  offset="0.9735" style="stop-color:#C3C3C3"/>
					<stop  offset="1" style="stop-color:#ABABAB"/>
				</radialGradient>
				<path style="fill:url(#SVGID_00000042703795268215536960000006780987712335733134_);" d="M163.595,207.518
					c-48.918,0.011-97.835,0.031-146.752,0.051v147.324c0,12.75,9.634,13.012,9.634,13.012h229.625c0,0,9.633-0.262,9.633-13.012
					V207.505C231.688,207.509,197.642,207.511,163.595,207.518z"/>
				<defs>
					
						<filter id="Adobe_OpacityMaskFilter_00000053524380859991225550000007507634123281119136_" filterUnits="userSpaceOnUse" x="16.843" y="19.457" width="248.892" height="173.938">
						<feFlood  style="flood-color:white;flood-opacity:1" result="back"/>
						<feBlend  in="SourceGraphic" in2="back" mode="normal"/>
					</filter>
				</defs>
				
					<mask maskUnits="userSpaceOnUse" x="16.843" y="19.457" width="248.892" height="173.938" id="SVGID_00000043418893928876565350000003746218032371976352_">
					<g style="filter:url(#Adobe_OpacityMaskFilter_00000053524380859991225550000007507634123281119136_);">
						<defs>
							
								<filter id="Adobe_OpacityMaskFilter_00000024682532412883349310000005133405901815354283_" filterUnits="userSpaceOnUse" x="16.843" y="19.457" width="248.892" height="173.938">
								<feFlood  style="flood-color:white;flood-opacity:1" result="back"/>
								<feBlend  in="SourceGraphic" in2="back" mode="normal"/>
							</filter>
						</defs>
						
							<mask maskUnits="userSpaceOnUse" x="16.843" y="19.457" width="248.892" height="173.938" id="SVGID_00000043418893928876565350000003746218032371976352_">
							<g style="filter:url(#Adobe_OpacityMaskFilter_00000024682532412883349310000005133405901815354283_);">
							</g>
						</mask>
						
							<radialGradient id="SVGID_00000145024106247494673950000012074010606687004308_" cx="142.4228" cy="341.0084" r="361.0526" gradientUnits="userSpaceOnUse">
							<stop  offset="0.6156" style="stop-color:#000000"/>
							<stop  offset="0.7096" style="stop-color:#020202"/>
							<stop  offset="0.7623" style="stop-color:#0A0A0A"/>
							<stop  offset="0.8047" style="stop-color:#181818"/>
							<stop  offset="0.8418" style="stop-color:#2C2C2C"/>
							<stop  offset="0.8752" style="stop-color:#464646"/>
							<stop  offset="0.9062" style="stop-color:#656565"/>
							<stop  offset="0.9352" style="stop-color:#8A8A8A"/>
							<stop  offset="0.9626" style="stop-color:#B6B6B6"/>
							<stop  offset="0.9879" style="stop-color:#E5E5E5"/>
							<stop  offset="1" style="stop-color:#FFFFFF"/>
						</radialGradient>
						
							<path style="mask:url(#SVGID_00000043418893928876565350000003746218032371976352_);fill:url(#SVGID_00000145024106247494673950000012074010606687004308_);" d="
							M16.843,193.303c20.946,0.016,41.891,0.033,62.837,0.045c60.362,0.034,120.725,0.038,181.087,0.047
							c1.656,0,3.311-0.002,4.968-0.002V32.47c0-12.751-9.633-13.013-9.633-13.013H26.477c0,0-9.634,0.262-9.634,13.013v86.916
							V193.303z"/>
					</g>
				</mask>
				
					<radialGradient id="SVGID_00000060000930733754011390000011730224177986747046_" cx="142.4228" cy="341.0084" r="361.0526" gradientUnits="userSpaceOnUse">
					<stop  offset="0.6156" style="stop-color:#FFFFFF"/>
					<stop  offset="0.747" style="stop-color:#FDFDFD"/>
					<stop  offset="0.8206" style="stop-color:#F5F5F5"/>
					<stop  offset="0.8799" style="stop-color:#E7E7E7"/>
					<stop  offset="0.9316" style="stop-color:#D3D3D3"/>
					<stop  offset="0.9778" style="stop-color:#BABABA"/>
					<stop  offset="1" style="stop-color:#ABABAB"/>
				</radialGradient>
				<path style="fill:url(#SVGID_00000060000930733754011390000011730224177986747046_);" d="M16.843,193.303
					c20.946,0.016,41.891,0.033,62.837,0.045c60.362,0.034,120.725,0.038,181.087,0.047c1.656,0,3.311-0.002,4.968-0.002V32.47
					c0-12.751-9.633-13.013-9.633-13.013H26.477c0,0-9.634,0.262-9.634,13.013v86.916V193.303z"/>
			</g>
			<g>
				<defs>
					
						<filter id="Adobe_OpacityMaskFilter_00000050622049909902857640000004491918016282919554_" filterUnits="userSpaceOnUse" x="21.427" y="19.456" width="244.309" height="348.448">
						<feFlood  style="flood-color:white;flood-opacity:1" result="back"/>
						<feBlend  in="SourceGraphic" in2="back" mode="normal"/>
					</filter>
				</defs>
				
					<mask maskUnits="userSpaceOnUse" x="21.427" y="19.456" width="244.309" height="348.448" id="SVGID_00000008111635810451771590000005116541694291871911_">
					<g style="filter:url(#Adobe_OpacityMaskFilter_00000050622049909902857640000004491918016282919554_);">
						<defs>
							
								<filter id="Adobe_OpacityMaskFilter_00000072999803758997568260000006245957392069321869_" filterUnits="userSpaceOnUse" x="21.427" y="19.456" width="244.309" height="348.448">
								<feFlood  style="flood-color:white;flood-opacity:1" result="back"/>
								<feBlend  in="SourceGraphic" in2="back" mode="normal"/>
							</filter>
						</defs>
						
							<mask maskUnits="userSpaceOnUse" x="21.427" y="19.456" width="244.309" height="348.448" id="SVGID_00000008111635810451771590000005116541694291871911_">
							<g style="filter:url(#Adobe_OpacityMaskFilter_00000072999803758997568260000006245957392069321869_);">
							</g>
						</mask>
						
							<radialGradient id="SVGID_00000125576652159138421820000001649069456195273873_" cx="6.1961" cy="19.2993" r="400.8941" gradientUnits="userSpaceOnUse">
							<stop  offset="0.0988" style="stop-color:#000000"/>
							<stop  offset="1" style="stop-color:#FFFFFF"/>
						</radialGradient>
						
							<path style="mask:url(#SVGID_00000008111635810451771590000005116541694291871911_);fill:url(#SVGID_00000125576652159138421820000001649069456195273873_);" d="
							M265.23,32.449v86.791v148.374l0.002,86.791c0,12.733-9.644,12.995-9.644,12.995H145.352h-9.383H25.729
							c0,0-2.077-0.059-4.303-1.392c2.482,1.821,5.049,1.896,5.049,1.896h110.128h9.373h110.125c0,0,9.635-0.263,9.635-13.014
							v-86.916v-148.59V32.468c0-12.75-9.635-13.012-9.635-13.012h-0.514C255.588,19.456,265.23,19.717,265.23,32.449z"/>
					</g>
				</mask>
				
					<radialGradient id="SVGID_00000023259071811096485810000011548144863371543458_" cx="6.1961" cy="19.2993" r="400.8941" gradientUnits="userSpaceOnUse">
					<stop  offset="0.0988" style="stop-color:#FFFFFF"/>
					<stop  offset="1" style="stop-color:#ABABAB"/>
				</radialGradient>
				<path style="fill:url(#SVGID_00000023259071811096485810000011548144863371543458_);" d="M265.23,32.449v86.791v148.374
					l0.002,86.791c0,12.733-9.644,12.995-9.644,12.995H145.352h-9.383H25.729c0,0-2.077-0.059-4.303-1.392
					c2.482,1.821,5.049,1.896,5.049,1.896h110.128h9.373h110.125c0,0,9.635-0.263,9.635-13.014v-86.916v-148.59V32.468
					c0-12.75-9.635-13.012-9.635-13.012h-0.514C255.588,19.456,265.23,19.717,265.23,32.449z"/>
			</g>
			<defs>
				
					<filter id="Adobe_OpacityMaskFilter_00000098191345855941776230000000347201773152641713_" filterUnits="userSpaceOnUse" x="16.843" y="19.457" width="244.31" height="348.447">
					<feFlood  style="flood-color:white;flood-opacity:1" result="back"/>
					<feBlend  in="SourceGraphic" in2="back" mode="normal"/>
				</filter>
			</defs>
			
				<mask maskUnits="userSpaceOnUse" x="16.843" y="19.457" width="244.31" height="348.447" id="SVGID_00000121246297268392307120000005819155227243282602_">
				<g style="filter:url(#Adobe_OpacityMaskFilter_00000098191345855941776230000000347201773152641713_);">
					<defs>
						
							<filter id="Adobe_OpacityMaskFilter_00000056422872597569755610000012781805046560532156_" filterUnits="userSpaceOnUse" x="16.843" y="19.457" width="244.31" height="348.447">
							<feFlood  style="flood-color:white;flood-opacity:1" result="back"/>
							<feBlend  in="SourceGraphic" in2="back" mode="normal"/>
						</filter>
					</defs>
					
						<mask maskUnits="userSpaceOnUse" x="16.843" y="19.457" width="244.31" height="348.447" id="SVGID_00000121246297268392307120000005819155227243282602_">
						<g style="filter:url(#Adobe_OpacityMaskFilter_00000056422872597569755610000012781805046560532156_);">
						</g>
					</mask>
					
						<radialGradient id="SVGID_00000018198120121266133230000016357128674072224148_" cx="84.8276" cy="120.8653" r="341.4537" gradientUnits="userSpaceOnUse">
						<stop  offset="0" style="stop-color:#000000"/>
						<stop  offset="0.0074" style="stop-color:#090909"/>
						<stop  offset="0.0477" style="stop-color:#373737"/>
						<stop  offset="0.0931" style="stop-color:#626262"/>
						<stop  offset="0.1419" style="stop-color:#888888"/>
						<stop  offset="0.195" style="stop-color:#A8A8A8"/>
						<stop  offset="0.2537" style="stop-color:#C4C4C4"/>
						<stop  offset="0.32" style="stop-color:#DADADA"/>
						<stop  offset="0.3974" style="stop-color:#EBEBEB"/>
						<stop  offset="0.4931" style="stop-color:#F6F6F6"/>
						<stop  offset="0.6274" style="stop-color:#FDFDFD"/>
						<stop  offset="1" style="stop-color:#FFFFFF"/>
					</radialGradient>
					
						<path style="mask:url(#SVGID_00000121246297268392307120000005819155227243282602_);fill:url(#SVGID_00000018198120121266133230000016357128674072224148_);" d="
						M17.347,354.911V268.12V119.745v-86.79c0-12.732,9.643-12.994,9.643-12.994h110.238h9.381H256.85c0,0,2.075,0.059,4.303,1.392
						c-2.484-1.821-5.051-1.896-5.051-1.896H145.975h-9.373H26.477c0,0-9.634,0.262-9.634,13.013v86.916v148.59v86.917
						c0,12.75,9.634,13.012,9.634,13.012h0.513C26.989,367.904,17.347,367.643,17.347,354.911z"/>
				</g>
			</mask>
			
				<radialGradient id="SVGID_00000068657076363814563990000000507965348606125493_" cx="84.8276" cy="120.8653" r="341.4537" gradientUnits="userSpaceOnUse">
				<stop  offset="0" style="stop-color:#FFFFFF"/>
				<stop  offset="0.1413" style="stop-color:#FFFFFF"/>
				<stop  offset="1" style="stop-color:#FFFFFF"/>
			</radialGradient>
			<path style="fill:url(#SVGID_00000068657076363814563990000000507965348606125493_);" d="M17.347,354.911V268.12V119.745v-86.79
				c0-12.732,9.643-12.994,9.643-12.994h110.238h9.381H256.85c0,0,2.075,0.059,4.303,1.392c-2.484-1.821-5.051-1.896-5.051-1.896
				H145.975h-9.373H26.477c0,0-9.634,0.262-9.634,13.013v86.916v148.59v86.917c0,12.75,9.634,13.012,9.634,13.012h0.513
				C26.989,367.904,17.347,367.643,17.347,354.911z"/>
			<g>
				<defs>
					
						<filter id="Adobe_OpacityMaskFilter_00000091713483873529879980000002221295171823406522_" filterUnits="userSpaceOnUse" x="16.835" y="44.635" width="0.505" height="300.454">
						<feFlood  style="flood-color:white;flood-opacity:1" result="back"/>
						<feBlend  in="SourceGraphic" in2="back" mode="normal"/>
					</filter>
				</defs>
				
					<mask maskUnits="userSpaceOnUse" x="16.835" y="44.635" width="0.505" height="300.454" id="SVGID_00000183208293272010096210000013475286407676855200_">
					<g style="filter:url(#Adobe_OpacityMaskFilter_00000091713483873529879980000002221295171823406522_);">
						<defs>
							
								<filter id="Adobe_OpacityMaskFilter_00000101785342409756985860000004746137412055611577_" filterUnits="userSpaceOnUse" x="16.835" y="44.635" width="0.505" height="300.454">
								<feFlood  style="flood-color:white;flood-opacity:1" result="back"/>
								<feBlend  in="SourceGraphic" in2="back" mode="normal"/>
							</filter>
						</defs>
						
							<mask maskUnits="userSpaceOnUse" x="16.835" y="44.635" width="0.505" height="300.454" id="SVGID_00000183208293272010096210000013475286407676855200_">
							<g style="filter:url(#Adobe_OpacityMaskFilter_00000101785342409756985860000004746137412055611577_);">
							</g>
						</mask>
						
							<radialGradient id="SVGID_00000049211565939696691070000003559438876305236922_" cx="341.1117" cy="19.2978" r="400.8553" gradientTransform="matrix(-1 0 0 1 617.418 0)" gradientUnits="userSpaceOnUse">
							<stop  offset="0.0988" style="stop-color:#000000"/>
							<stop  offset="1" style="stop-color:#FFFFFF"/>
						</radialGradient>
						
							<path style="mask:url(#SVGID_00000183208293272010096210000013475286407676855200_);fill:url(#SVGID_00000049211565939696691070000003559438876305236922_);" d="
							M16.835,44.635v300.454c0.167-0.608,0.332-1.218,0.503-1.825l0.002-75.649V50.081C17.167,48.265,17,46.449,16.835,44.635z"/>
					</g>
				</mask>
				
					<radialGradient id="SVGID_00000085971326523307688400000014206934113683891856_" cx="341.1117" cy="19.2978" r="400.8553" gradientTransform="matrix(-1 0 0 1 617.418 0)" gradientUnits="userSpaceOnUse">
					<stop  offset="0.0988" style="stop-color:#FFFFFF"/>
					<stop  offset="1" style="stop-color:#ABABAB"/>
				</radialGradient>
				<path style="fill:url(#SVGID_00000085971326523307688400000014206934113683891856_);" d="M16.835,44.635v300.454
					c0.167-0.608,0.332-1.218,0.503-1.825l0.002-75.649V50.081C17.167,48.265,17,46.449,16.835,44.635z"/>
			</g>
		</g>
		<g>
			<g>
				<path style="fill:#FF2601;" d="M47.27,84.62c0.002-0.001,0.003-0.001,0.003-0.001l-0.004-0.002
					c-6.298-3.492-11.345-14.075-11.506-14.415v-0.008l-0.001,0.003c-0.002-0.002-0.002-0.003-0.002-0.003v0.008
					c-0.16,0.34-5.206,10.923-11.503,14.415h-0.006c0.002,0.002,0.003,0.002,0.003,0.002s-0.001,0.001-0.003,0.003h0.006
					C30.554,88.113,35.6,98.699,35.76,99.037v0.009c0,0,0-0.003,0.002-0.004l0.001,0.004v-0.009
					c0.161-0.338,5.208-10.924,11.506-14.415h0.004C47.272,84.622,47.271,84.62,47.27,84.62z"/>
				<path style="fill:#FF2601;" d="M27.005,40.956v-4.182c1.702-0.805,3.293-1.407,4.774-1.803c1.48-0.396,2.912-0.594,4.292-0.594
					c1.656,0,3.107,0.256,4.355,0.77c1.246,0.513,2.2,1.251,2.86,2.211c0.66,0.961,0.99,2.109,0.99,3.443
					c0,1.248-0.249,2.344-0.748,3.29s-1.199,1.771-2.102,2.476c-0.902,0.703-2.071,1.394-3.51,2.067v0.199
					c0.895,0.161,1.757,0.437,2.586,0.824c0.828,0.39,1.565,0.892,2.211,1.508c0.645,0.615,1.163,1.354,1.552,2.211
					c0.388,0.858,0.583,1.838,0.583,2.937c0,1.703-0.371,3.213-1.112,4.534c-0.74,1.32-1.874,2.362-3.398,3.125
					c-1.526,0.762-3.383,1.144-5.566,1.144c-1.263,0-2.622-0.143-4.081-0.43c-1.462-0.286-2.8-0.663-4.018-1.133V58.89h2.641
					c0.514,1.524,1.191,2.633,2.035,3.323c0.844,0.689,1.992,1.033,3.444,1.033c1.907,0,3.349-0.521,4.323-1.563
					c0.976-1.041,1.464-2.583,1.464-4.621c0-2.143-0.646-3.776-1.937-4.906c-1.291-1.13-3.184-1.695-5.677-1.695h-1.979v-1.936
					c1.979-0.117,3.646-0.498,5.004-1.143c1.357-0.646,2.365-1.476,3.026-2.487c0.659-1.012,0.99-2.148,0.99-3.41
					c0-1.629-0.434-2.883-1.298-3.763c-0.867-0.88-2.128-1.32-3.785-1.32c-1.379,0-2.501,0.373-3.366,1.122
					c-0.866,0.748-1.505,1.892-1.914,3.433H27.005z"/>
			</g>
			<g>
				<path style="fill:#FF2601;" d="M234.527,301.991c-0.002,0.001-0.003,0.001-0.003,0.001l0.005,0.002
					c6.297,3.491,11.343,14.075,11.505,14.415v0.007c0,0,0.001-0.001,0.001-0.003c0.002,0.002,0.002,0.003,0.002,0.003v-0.007
					c0.16-0.34,5.206-10.924,11.503-14.415h0.006c-0.002-0.002-0.003-0.002-0.003-0.002s0.001-0.001,0.003-0.003h-0.006
					c-6.297-3.492-11.343-14.077-11.503-14.415v-0.01c0,0,0,0.003-0.002,0.005l-0.001-0.005v0.01
					c-0.162,0.338-5.208,10.923-11.505,14.415h-0.005C234.524,301.989,234.525,301.991,234.527,301.991z"/>
				<path style="fill:#FF2601;" d="M254.792,345.654v4.182c-1.702,0.806-3.293,1.408-4.774,1.804
					c-1.48,0.397-2.912,0.594-4.291,0.594c-1.656,0-3.108-0.256-4.356-0.771c-1.246-0.513-2.2-1.25-2.86-2.211
					c-0.66-0.961-0.99-2.109-0.99-3.443c0-1.248,0.249-2.344,0.748-3.289c0.499-0.947,1.199-1.771,2.102-2.476
					c0.901-0.703,2.071-1.394,3.51-2.068v-0.198c-0.895-0.161-1.757-0.438-2.586-0.825c-0.828-0.39-1.564-0.892-2.211-1.507
					c-0.645-0.615-1.163-1.353-1.552-2.211c-0.388-0.859-0.583-1.838-0.583-2.938c0-1.702,0.371-3.213,1.111-4.533
					c0.741-1.32,1.875-2.362,3.399-3.125c1.526-0.763,3.383-1.145,5.566-1.145c1.262,0,2.622,0.143,4.081,0.43
					c1.462,0.286,2.799,0.664,4.018,1.132v4.666h-2.641c-0.514-1.526-1.192-2.633-2.034-3.323c-0.845-0.689-1.993-1.033-3.446-1.033
					c-1.906,0-3.347,0.521-4.322,1.563c-0.976,1.041-1.463,2.581-1.463,4.621c0,2.141,0.646,3.776,1.936,4.905
					c1.291,1.13,3.184,1.696,5.677,1.696h1.98v1.935c-1.98,0.117-3.648,0.499-5.005,1.145c-1.357,0.647-2.365,1.474-3.026,2.487
					c-0.659,1.011-0.99,2.148-0.99,3.41c0,1.628,0.434,2.883,1.298,3.763c0.867,0.88,2.128,1.32,3.785,1.32
					c1.379,0,2.502-0.374,3.366-1.123c0.866-0.747,1.505-1.892,1.914-3.433H254.792z"/>
			</g>
			<g>
				<path style="fill:#FF2601;" d="M164.084,298.192l0.004-0.003h-0.009c-12.499-6.934-22.512-27.941-22.832-28.613v-0.016
					c0,0-0.003,0.004-0.003,0.008c-0.002-0.004-0.002-0.008-0.002-0.008l-0.002,0.016c-0.318,0.672-10.334,21.68-22.83,28.613h-0.01
					c0.002,0,0.004,0,0.004,0s-0.002,0.003-0.004,0.006h0.01c12.496,6.932,22.512,27.939,22.83,28.611l0.002,0.018
					c0,0,0-0.004,0.002-0.009c0,0.005,0.003,0.009,0.003,0.009v-0.018c0.32-0.672,10.333-21.68,22.832-28.611h0.009
					C164.088,298.192,164.085,298.192,164.084,298.192z"/>
				<path style="fill:#FF2601;" d="M164.084,193.681c0.001-0.003,0.004-0.003,0.004-0.003h-0.009
					c-12.499-6.933-22.512-27.94-22.832-28.614v-0.015c0,0-0.003,0.005-0.003,0.008c-0.002-0.003-0.002-0.008-0.002-0.008
					l-0.002,0.015c-0.318,0.674-10.334,21.682-22.83,28.614h-0.01c0.002,0,0.004,0,0.004,0.003c0,0-0.002,0-0.004,0.003h0.01
					c12.496,6.932,22.512,27.939,22.83,28.611l0.002,0.018c0,0,0-0.005,0.002-0.009c0,0.004,0.003,0.009,0.003,0.009v-0.018
					c0.32-0.672,10.333-21.68,22.832-28.611h0.009L164.084,193.681z"/>
				<path style="fill:#FF2601;" d="M164.084,89.17c0.001-0.003,0.004-0.003,0.004-0.003h-0.009
					c-12.499-6.935-22.512-27.941-22.832-28.615v-0.015c0,0-0.003,0.004-0.003,0.007c-0.002-0.003-0.002-0.007-0.002-0.007
					l-0.002,0.015c-0.318,0.674-10.334,21.681-22.83,28.615h-0.01c0.002,0,0.004,0,0.004,0.003c0,0-0.002,0-0.004,0.002h0.01
					c12.496,6.933,22.512,27.94,22.83,28.611l0.002,0.018c0,0,0-0.004,0.002-0.009c0,0.005,0.003,0.009,0.003,0.009v-0.018
					c0.32-0.671,10.333-21.679,22.832-28.611h0.009L164.084,89.17z"/>
			</g>
		</g>
	</g>
</g>
</svg>
