<?xml version="1.0" encoding="utf-8"?>
<!-- Generator: Adobe Illustrator 27.5.0, SVG Export Plug-In . SVG Version: 6.00 Build 0)  -->
<svg version="1.1" id="Layer_1" xmlns="http://www.w3.org/2000/svg" xmlns:xlink="http://www.w3.org/1999/xlink" x="0px" y="0px"
	 viewBox="0 0 293.41 398.197" style="enable-background:new 0 0 293.41 398.197;" xml:space="preserve">
<g>
	<g>
		<path style="fill:#FFFFFF;" d="M266.94,20.794H37.315c-0.086,0-0.172,0.001-0.259,0.004c-7.587,0.206-18.875,6.371-18.875,22.51
			v11.797c-0.005,0.122-0.007,0.244-0.007,0.368v300.454c0,0.122,0.002,0.245,0.007,0.366v9.438
			c0,16.139,11.289,22.302,18.876,22.509c0.086,0.002,0.172,0.003,0.258,0.003H266.94c0.086,0,0.171-0.001,0.257-0.003
			c1.444-0.039,8.917-0.583,14.254-7.474c3.067-3.96,4.623-9.02,4.623-15.037V43.305c0-16.138-11.289-22.302-18.876-22.507
			C267.112,20.795,267.026,20.794,266.94,20.794z"/>
		<path style="fill:#F1F1F1;" d="M265.955,19.809H36.33c-0.086,0-0.172,0.002-0.259,0.004c-7.587,0.226-18.875,6.371-18.875,22.51
			V54.12c-0.005,0.121-0.007,0.243-0.007,0.367v300.454c0,0.122,0.003,0.245,0.007,0.366v9.438
			c0,16.139,11.289,22.283,18.876,22.508c0.086,0.003,0.172,0.004,0.258,0.004h229.625c0.086,0,0.171-0.001,0.257-0.004
			c1.444-0.042,8.917-0.582,14.254-7.473c3.067-3.959,4.623-9.02,4.623-15.037V42.32c0-16.139-11.289-22.282-18.876-22.508
			C266.127,19.81,266.041,19.809,265.955,19.809z"/>
		<path style="fill:#E2E2E2;" d="M264.969,18.823H35.345c-0.086,0-0.173,0.001-0.259,0.004c-7.586,0.227-18.875,6.371-18.875,22.51
			v11.798c-0.005,0.121-0.007,0.244-0.007,0.367v300.454c0,0.122,0.002,0.245,0.007,0.366v9.439
			c0,16.138,11.289,22.282,18.875,22.508c0.086,0.002,0.172,0.003,0.258,0.003h229.625c0.086,0,0.171-0.001,0.257-0.003
			c1.444-0.043,8.917-0.583,14.254-7.474c3.067-3.959,4.623-9.02,4.623-15.037V41.335c0-16.139-11.289-22.281-18.876-22.508
			C265.142,18.824,265.055,18.823,264.969,18.823z"/>
		<path style="fill:#D4D4D4;" d="M263.984,17.838H34.359c-0.087,0-0.173,0.001-0.259,0.004c-7.587,0.226-18.876,6.371-18.876,22.511
			v11.797c-0.004,0.121-0.007,0.244-0.007,0.367v300.454c0,0.122,0.003,0.245,0.007,0.366v9.438
			c0,16.138,11.289,22.281,18.876,22.508c0.085,0.003,0.172,0.003,0.258,0.003h229.625c0.085,0,0.171,0,0.257-0.003
			c1.444-0.043,8.917-0.583,14.254-7.474c3.068-3.959,4.623-9.02,4.623-15.037V40.35c0-16.138-11.289-22.281-18.876-22.508
			C264.156,17.839,264.07,17.838,263.984,17.838z"/>
		<path style="fill:#C5C5C5;" d="M262.999,16.853H33.374c-0.086,0-0.173,0.001-0.259,0.004c-7.587,0.226-18.875,6.371-18.875,22.511
			v11.797c-0.004,0.121-0.007,0.244-0.007,0.367v300.454c0,0.123,0.002,0.245,0.007,0.366v9.439
			c0,16.138,11.29,22.281,18.876,22.508c0.086,0.003,0.172,0.004,0.258,0.004h229.625c0.086,0,0.171-0.001,0.257-0.004
			c1.444-0.043,8.917-0.583,14.254-7.473c3.067-3.96,4.623-9.02,4.623-15.038V39.364c0-16.138-11.289-22.281-18.876-22.508
			C263.171,16.854,263.085,16.853,262.999,16.853z"/>
		<path style="fill:#B7B7B7;" d="M262.014,15.867H32.389c-0.086,0-0.172,0.001-0.259,0.004c-7.587,0.226-18.876,6.372-18.876,22.511
			v11.797c-0.004,0.121-0.007,0.244-0.007,0.367V351c0,0.123,0.002,0.245,0.007,0.367v9.438c0,16.138,11.289,22.281,18.876,22.508
			c0.086,0.003,0.172,0.004,0.258,0.004h229.625c0.086,0,0.171-0.001,0.257-0.004c1.444-0.044,8.917-0.583,14.254-7.473
			c3.067-3.96,4.622-9.02,4.622-15.038V38.379c0-16.138-11.289-22.282-18.876-22.508C262.185,15.868,262.1,15.867,262.014,15.867z"
			/>
		<path style="fill:#A8A8A8;" d="M261.028,14.882H31.403c-0.086,0-0.172,0.001-0.258,0.004c-7.587,0.226-18.875,6.372-18.875,22.511
			v11.797c-0.005,0.122-0.007,0.244-0.007,0.367v300.454c0,0.123,0.002,0.245,0.007,0.367v9.438
			c0,16.138,11.29,22.281,18.876,22.508c0.086,0.002,0.172,0.004,0.258,0.004h229.625c0.086,0,0.171-0.002,0.257-0.004
			c1.444-0.044,8.917-0.583,14.254-7.473c3.067-3.96,4.623-9.02,4.623-15.038V37.394c0-16.138-11.289-22.282-18.876-22.508
			C261.2,14.883,261.114,14.882,261.028,14.882z"/>
		<path style="fill:#9A9A9A;" d="M260.043,13.896H30.418c-0.086,0-0.173,0.001-0.259,0.004c-7.587,0.226-18.875,6.372-18.875,22.511
			v11.797c-0.004,0.122-0.007,0.244-0.007,0.367V349.03c0,0.122,0.002,0.244,0.007,0.366v9.438
			c0,16.137,11.289,22.281,18.876,22.507c0.086,0.003,0.172,0.004,0.258,0.004h229.625c0.086,0,0.171-0.001,0.257-0.004
			c1.444-0.043,8.917-0.582,14.254-7.472c3.068-3.96,4.623-9.02,4.623-15.038V36.407c0-16.137-11.289-22.281-18.876-22.507
			C260.215,13.897,260.128,13.896,260.043,13.896z"/>
		<path style="fill:#8B8B8B;" d="M259.058,12.911H29.433c-0.086,0-0.173,0.001-0.259,0.003c-7.587,0.227-18.875,6.372-18.875,22.511
			v11.797c-0.004,0.122-0.007,0.244-0.007,0.368v300.454c0,0.122,0.002,0.244,0.007,0.366v9.438
			c0,16.138,11.289,22.282,18.877,22.508c0.085,0.003,0.172,0.004,0.258,0.004h229.625c0.085,0,0.171-0.001,0.257-0.004
			c1.444-0.042,8.917-0.582,14.254-7.473c3.068-3.96,4.623-9.02,4.623-15.038V35.422c0-16.138-11.289-22.281-18.876-22.508
			C259.229,12.912,259.143,12.911,259.058,12.911z"/>
		<path style="fill:#7D7D7D;" d="M258.072,11.926H28.447c-0.086,0-0.172,0.002-0.259,0.003c-7.586,0.227-18.875,6.372-18.875,22.511
			v11.797c-0.004,0.122-0.007,0.244-0.007,0.368v300.454c0,0.122,0.003,0.245,0.007,0.366v9.438
			c0,16.139,11.29,22.282,18.876,22.508c0.087,0.003,0.172,0.004,0.258,0.004h229.625c0.086,0,0.171-0.001,0.257-0.004
			c1.443-0.042,8.917-0.582,14.254-7.473c3.067-3.96,4.623-9.02,4.623-15.037V34.437c0-16.138-11.289-22.281-18.876-22.508
			C258.244,11.928,258.158,11.926,258.072,11.926z"/>
		<path style="fill:#6E6E6E;" d="M257.086,10.94H27.461c-0.086,0-0.172,0.001-0.259,0.004c-7.586,0.226-18.875,6.371-18.875,22.51
			v11.798c-0.005,0.121-0.007,0.243-0.007,0.367v300.454c0,0.122,0.002,0.245,0.007,0.366v9.438
			c0,16.139,11.29,22.282,18.876,22.508c0.086,0.003,0.172,0.004,0.258,0.004h229.625c0.086,0,0.171-0.001,0.257-0.004
			c1.444-0.042,8.917-0.582,14.254-7.473c3.067-3.959,4.623-9.02,4.623-15.037V33.452c0-16.139-11.29-22.282-18.876-22.508
			C257.258,10.941,257.172,10.94,257.086,10.94z"/>
		<path style="fill:#606060;" d="M256.101,9.955H26.476c-0.086,0-0.172,0.001-0.259,0.004C18.63,10.165,7.342,16.33,7.342,32.469
			v11.798c-0.005,0.121-0.007,0.244-0.007,0.367v300.454c0,0.122,0.002,0.245,0.007,0.366v9.439
			c0,16.138,11.288,22.302,18.876,22.507c0.086,0.003,0.172,0.004,0.258,0.004h229.625c0.086,0,0.171-0.001,0.257-0.004
			c1.444-0.038,8.917-0.582,14.254-7.473c3.067-3.959,4.623-9.02,4.623-15.037V32.467c0-16.139-11.288-22.302-18.876-22.508
			C256.273,9.956,256.187,9.955,256.101,9.955z"/>
	</g>
	<path style="fill:#FFFFFF;" d="M256.101,9.955H26.476c-0.086,0-0.172,0.001-0.259,0.004C18.63,10.165,7.342,16.33,7.342,32.469
		v11.798c-0.005,0.121-0.007,0.244-0.007,0.367v300.454c0,0.122,0.002,0.245,0.007,0.366v9.439
		c0,16.138,11.288,22.302,18.876,22.507c0.086,0.003,0.172,0.004,0.258,0.004h229.625c0.086,0,0.171-0.001,0.257-0.004
		c1.444-0.038,8.917-0.582,14.254-7.473c3.067-3.959,4.623-9.02,4.623-15.037V32.467c0-16.139-11.288-22.302-18.876-22.508
		C256.273,9.956,256.187,9.955,256.101,9.955z"/>
	<g>
		<g>
			<g>
				<path style="fill:#FFFFFF;" d="M256.101,19.455H145.975h-9.373H26.476c0,0-9.634,0.263-9.634,13.014v86.916v148.59v86.918
					c0,12.749,9.634,13.011,9.634,13.011h110.125h9.373h110.127c0,0,9.633-0.262,9.633-13.011v-86.918v-148.59V32.469
					C265.734,19.718,256.101,19.455,256.101,19.455z"/>
				<defs>
					<filter id="Adobe_OpacityMaskFilter" filterUnits="userSpaceOnUse" x="16.842" y="207.504" width="248.892" height="160.399">
						<feFlood  style="flood-color:white;flood-opacity:1" result="back"/>
						<feBlend  in="SourceGraphic" in2="back" mode="normal"/>
					</filter>
				</defs>
				<mask maskUnits="userSpaceOnUse" x="16.842" y="207.504" width="248.892" height="160.399" id="SVGID_1_">
					<g style="filter:url(#Adobe_OpacityMaskFilter);">
						<defs>
							
								<filter id="Adobe_OpacityMaskFilter_00000157270127572346270330000005958709153315180218_" filterUnits="userSpaceOnUse" x="16.842" y="207.504" width="248.892" height="160.399">
								<feFlood  style="flood-color:white;flood-opacity:1" result="back"/>
								<feBlend  in="SourceGraphic" in2="back" mode="normal"/>
							</filter>
						</defs>
						<mask maskUnits="userSpaceOnUse" x="16.842" y="207.504" width="248.892" height="160.399" id="SVGID_1_">
							<g style="filter:url(#Adobe_OpacityMaskFilter_00000157270127572346270330000005958709153315180218_);">
							</g>
						</mask>
						
							<radialGradient id="SVGID_00000015332844299102251570000010375926414944018580_" cx="137.4368" cy="-99.3337" r="503.8639" gradientUnits="userSpaceOnUse">
							<stop  offset="0.6156" style="stop-color:#000000"/>
							<stop  offset="0.7516" style="stop-color:#020202"/>
							<stop  offset="0.8037" style="stop-color:#090909"/>
							<stop  offset="0.8413" style="stop-color:#151515"/>
							<stop  offset="0.8721" style="stop-color:#262626"/>
							<stop  offset="0.8986" style="stop-color:#3C3C3C"/>
							<stop  offset="0.9222" style="stop-color:#585858"/>
							<stop  offset="0.9436" style="stop-color:#797979"/>
							<stop  offset="0.9634" style="stop-color:#9F9F9F"/>
							<stop  offset="0.9817" style="stop-color:#CBCBCB"/>
							<stop  offset="0.9982" style="stop-color:#F9F9F9"/>
							<stop  offset="1" style="stop-color:#FFFFFF"/>
						</radialGradient>
						<path style="mask:url(#SVGID_1_);fill:url(#SVGID_00000015332844299102251570000010375926414944018580_);" d="
							M163.594,207.517c-48.917,0.011-97.834,0.031-146.752,0.052v147.324c0,12.749,9.634,13.011,9.634,13.011h229.625
							c0,0,9.633-0.262,9.633-13.011V207.504C231.686,207.508,197.642,207.51,163.594,207.517z"/>
					</g>
				</mask>
				
					<radialGradient id="SVGID_00000071554822015475753050000010191793559490094992_" cx="137.4368" cy="-99.3337" r="503.8639" gradientUnits="userSpaceOnUse">
					<stop  offset="0.6156" style="stop-color:#FFFFFF"/>
					<stop  offset="0.7878" style="stop-color:#FDFDFD"/>
					<stop  offset="0.8537" style="stop-color:#F6F6F6"/>
					<stop  offset="0.9014" style="stop-color:#EAEAEA"/>
					<stop  offset="0.9403" style="stop-color:#D9D9D9"/>
					<stop  offset="0.9735" style="stop-color:#C3C3C3"/>
					<stop  offset="1" style="stop-color:#ABABAB"/>
				</radialGradient>
				<path style="fill:url(#SVGID_00000071554822015475753050000010191793559490094992_);" d="M163.594,207.517
					c-48.917,0.011-97.834,0.031-146.752,0.052v147.324c0,12.749,9.634,13.011,9.634,13.011h229.625c0,0,9.633-0.262,9.633-13.011
					V207.504C231.686,207.508,197.642,207.51,163.594,207.517z"/>
				<defs>
					
						<filter id="Adobe_OpacityMaskFilter_00000000945497843364210070000008012576963245093269_" filterUnits="userSpaceOnUse" x="16.842" y="19.455" width="248.892" height="173.938">
						<feFlood  style="flood-color:white;flood-opacity:1" result="back"/>
						<feBlend  in="SourceGraphic" in2="back" mode="normal"/>
					</filter>
				</defs>
				
					<mask maskUnits="userSpaceOnUse" x="16.842" y="19.455" width="248.892" height="173.938" id="SVGID_00000067218413065606729870000016995102648784892575_">
					<g style="filter:url(#Adobe_OpacityMaskFilter_00000000945497843364210070000008012576963245093269_);">
						<defs>
							
								<filter id="Adobe_OpacityMaskFilter_00000049937469185414156870000015201583366016816550_" filterUnits="userSpaceOnUse" x="16.842" y="19.455" width="248.892" height="173.938">
								<feFlood  style="flood-color:white;flood-opacity:1" result="back"/>
								<feBlend  in="SourceGraphic" in2="back" mode="normal"/>
							</filter>
						</defs>
						
							<mask maskUnits="userSpaceOnUse" x="16.842" y="19.455" width="248.892" height="173.938" id="SVGID_00000067218413065606729870000016995102648784892575_">
							<g style="filter:url(#Adobe_OpacityMaskFilter_00000049937469185414156870000015201583366016816550_);">
							</g>
						</mask>
						
							<radialGradient id="SVGID_00000015337177930308327560000014136669582069134473_" cx="142.4223" cy="341.0081" r="361.0537" gradientUnits="userSpaceOnUse">
							<stop  offset="0.6156" style="stop-color:#000000"/>
							<stop  offset="0.7096" style="stop-color:#020202"/>
							<stop  offset="0.7623" style="stop-color:#0A0A0A"/>
							<stop  offset="0.8047" style="stop-color:#181818"/>
							<stop  offset="0.8418" style="stop-color:#2C2C2C"/>
							<stop  offset="0.8752" style="stop-color:#464646"/>
							<stop  offset="0.9062" style="stop-color:#656565"/>
							<stop  offset="0.9352" style="stop-color:#8A8A8A"/>
							<stop  offset="0.9626" style="stop-color:#B6B6B6"/>
							<stop  offset="0.9879" style="stop-color:#E5E5E5"/>
							<stop  offset="1" style="stop-color:#FFFFFF"/>
						</radialGradient>
						
							<path style="mask:url(#SVGID_00000067218413065606729870000016995102648784892575_);fill:url(#SVGID_00000015337177930308327560000014136669582069134473_);" d="
							M16.842,193.303c20.946,0.016,41.891,0.032,62.837,0.044c60.363,0.034,120.725,0.038,181.086,0.047
							c1.657,0,3.313-0.001,4.968-0.001V32.469c0-12.751-9.633-13.014-9.633-13.014H26.476c0,0-9.634,0.263-9.634,13.014v86.916
							V193.303z"/>
					</g>
				</mask>
				
					<radialGradient id="SVGID_00000061431154348597095570000008676932329792725183_" cx="142.4223" cy="341.0081" r="361.0537" gradientUnits="userSpaceOnUse">
					<stop  offset="0.6156" style="stop-color:#FFFFFF"/>
					<stop  offset="0.747" style="stop-color:#FDFDFD"/>
					<stop  offset="0.8206" style="stop-color:#F5F5F5"/>
					<stop  offset="0.8799" style="stop-color:#E7E7E7"/>
					<stop  offset="0.9316" style="stop-color:#D3D3D3"/>
					<stop  offset="0.9778" style="stop-color:#BABABA"/>
					<stop  offset="1" style="stop-color:#ABABAB"/>
				</radialGradient>
				<path style="fill:url(#SVGID_00000061431154348597095570000008676932329792725183_);" d="M16.842,193.303
					c20.946,0.016,41.891,0.032,62.837,0.044c60.363,0.034,120.725,0.038,181.086,0.047c1.657,0,3.313-0.001,4.968-0.001V32.469
					c0-12.751-9.633-13.014-9.633-13.014H26.476c0,0-9.634,0.263-9.634,13.014v86.916V193.303z"/>
			</g>
			<g>
				<defs>
					
						<filter id="Adobe_OpacityMaskFilter_00000131362506953585149990000012564736156535838871_" filterUnits="userSpaceOnUse" x="21.426" y="19.455" width="244.309" height="348.448">
						<feFlood  style="flood-color:white;flood-opacity:1" result="back"/>
						<feBlend  in="SourceGraphic" in2="back" mode="normal"/>
					</filter>
				</defs>
				
					<mask maskUnits="userSpaceOnUse" x="21.426" y="19.455" width="244.309" height="348.448" id="SVGID_00000075860524470650663430000009795470967216713856_">
					<g style="filter:url(#Adobe_OpacityMaskFilter_00000131362506953585149990000012564736156535838871_);">
						<defs>
							
								<filter id="Adobe_OpacityMaskFilter_00000039813853107436860070000015752261437296820896_" filterUnits="userSpaceOnUse" x="21.426" y="19.455" width="244.309" height="348.448">
								<feFlood  style="flood-color:white;flood-opacity:1" result="back"/>
								<feBlend  in="SourceGraphic" in2="back" mode="normal"/>
							</filter>
						</defs>
						
							<mask maskUnits="userSpaceOnUse" x="21.426" y="19.455" width="244.309" height="348.448" id="SVGID_00000075860524470650663430000009795470967216713856_">
							<g style="filter:url(#Adobe_OpacityMaskFilter_00000039813853107436860070000015752261437296820896_);">
							</g>
						</mask>
						
							<radialGradient id="SVGID_00000170251431909034265380000004476034345723182508_" cx="6.1955" cy="19.2983" r="400.8939" gradientUnits="userSpaceOnUse">
							<stop  offset="0.0988" style="stop-color:#000000"/>
							<stop  offset="1" style="stop-color:#FFFFFF"/>
						</radialGradient>
						
							<path style="mask:url(#SVGID_00000075860524470650663430000009795470967216713856_);fill:url(#SVGID_00000170251431909034265380000004476034345723182508_);" d="
							M265.23,32.448v86.791v148.375l0.001,86.79c0,12.733-9.644,12.995-9.644,12.995H145.351h-9.383H25.729
							c0,0-2.078-0.059-4.303-1.393c2.482,1.821,5.048,1.896,5.048,1.896h110.128h9.373h110.125c0,0,9.634-0.263,9.634-13.014
							v-86.916v-148.59V32.467c0-12.75-9.634-13.012-9.634-13.012h-0.514C255.587,19.455,265.23,19.716,265.23,32.448z"/>
					</g>
				</mask>
				
					<radialGradient id="SVGID_00000038399468187692630540000013918070847166571680_" cx="6.1955" cy="19.2983" r="400.8939" gradientUnits="userSpaceOnUse">
					<stop  offset="0.0988" style="stop-color:#FFFFFF"/>
					<stop  offset="1" style="stop-color:#ABABAB"/>
				</radialGradient>
				<path style="fill:url(#SVGID_00000038399468187692630540000013918070847166571680_);" d="M265.23,32.448v86.791v148.375
					l0.001,86.79c0,12.733-9.644,12.995-9.644,12.995H145.351h-9.383H25.729c0,0-2.078-0.059-4.303-1.393
					c2.482,1.821,5.048,1.896,5.048,1.896h110.128h9.373h110.125c0,0,9.634-0.263,9.634-13.014v-86.916v-148.59V32.467
					c0-12.75-9.634-13.012-9.634-13.012h-0.514C255.587,19.455,265.23,19.716,265.23,32.448z"/>
			</g>
			<defs>
				
					<filter id="Adobe_OpacityMaskFilter_00000051357079531993546240000008754997736528573618_" filterUnits="userSpaceOnUse" x="16.842" y="19.455" width="244.309" height="348.448">
					<feFlood  style="flood-color:white;flood-opacity:1" result="back"/>
					<feBlend  in="SourceGraphic" in2="back" mode="normal"/>
				</filter>
			</defs>
			
				<mask maskUnits="userSpaceOnUse" x="16.842" y="19.455" width="244.309" height="348.448" id="SVGID_00000026161466925945340660000002864117254394381756_">
				<g style="filter:url(#Adobe_OpacityMaskFilter_00000051357079531993546240000008754997736528573618_);">
					<defs>
						
							<filter id="Adobe_OpacityMaskFilter_00000166657071107611378160000011201998365488331178_" filterUnits="userSpaceOnUse" x="16.842" y="19.455" width="244.309" height="348.448">
							<feFlood  style="flood-color:white;flood-opacity:1" result="back"/>
							<feBlend  in="SourceGraphic" in2="back" mode="normal"/>
						</filter>
					</defs>
					
						<mask maskUnits="userSpaceOnUse" x="16.842" y="19.455" width="244.309" height="348.448" id="SVGID_00000026161466925945340660000002864117254394381756_">
						<g style="filter:url(#Adobe_OpacityMaskFilter_00000166657071107611378160000011201998365488331178_);">
						</g>
					</mask>
					
						<radialGradient id="SVGID_00000067198438752883973160000009239475248306258075_" cx="84.8269" cy="120.8636" r="341.454" gradientUnits="userSpaceOnUse">
						<stop  offset="0" style="stop-color:#000000"/>
						<stop  offset="0.0074" style="stop-color:#090909"/>
						<stop  offset="0.0477" style="stop-color:#373737"/>
						<stop  offset="0.0931" style="stop-color:#626262"/>
						<stop  offset="0.1419" style="stop-color:#888888"/>
						<stop  offset="0.195" style="stop-color:#A8A8A8"/>
						<stop  offset="0.2537" style="stop-color:#C4C4C4"/>
						<stop  offset="0.32" style="stop-color:#DADADA"/>
						<stop  offset="0.3974" style="stop-color:#EBEBEB"/>
						<stop  offset="0.4931" style="stop-color:#F6F6F6"/>
						<stop  offset="0.6274" style="stop-color:#FDFDFD"/>
						<stop  offset="1" style="stop-color:#FFFFFF"/>
					</radialGradient>
					
						<path style="mask:url(#SVGID_00000026161466925945340660000002864117254394381756_);fill:url(#SVGID_00000067198438752883973160000009239475248306258075_);" d="
						M17.346,354.911v-86.792V119.744v-86.79c0-12.732,9.643-12.994,9.643-12.994h110.238h9.381h110.241
						c0,0,2.076,0.059,4.303,1.392c-2.483-1.821-5.05-1.896-5.05-1.896H145.975h-9.373H26.476c0,0-9.634,0.263-9.634,13.014v86.916
						v148.59v86.918c0,12.749,9.634,13.011,9.634,13.011h0.513C26.989,367.903,17.346,367.642,17.346,354.911z"/>
				</g>
			</mask>
			
				<radialGradient id="SVGID_00000016035360153518692470000016836524536437064614_" cx="84.8269" cy="120.8636" r="341.454" gradientUnits="userSpaceOnUse">
				<stop  offset="0" style="stop-color:#FFFFFF"/>
				<stop  offset="0.1413" style="stop-color:#FFFFFF"/>
				<stop  offset="1" style="stop-color:#FFFFFF"/>
			</radialGradient>
			<path style="fill:url(#SVGID_00000016035360153518692470000016836524536437064614_);" d="M17.346,354.911v-86.792V119.744v-86.79
				c0-12.732,9.643-12.994,9.643-12.994h110.238h9.381h110.241c0,0,2.076,0.059,4.303,1.392c-2.483-1.821-5.05-1.896-5.05-1.896
				H145.975h-9.373H26.476c0,0-9.634,0.263-9.634,13.014v86.916v148.59v86.918c0,12.749,9.634,13.011,9.634,13.011h0.513
				C26.989,367.903,17.346,367.642,17.346,354.911z"/>
			<g>
				<defs>
					
						<filter id="Adobe_OpacityMaskFilter_00000094580679841777496360000010875199216716881327_" filterUnits="userSpaceOnUse" x="16.835" y="44.634" width="0.504" height="300.454">
						<feFlood  style="flood-color:white;flood-opacity:1" result="back"/>
						<feBlend  in="SourceGraphic" in2="back" mode="normal"/>
					</filter>
				</defs>
				
					<mask maskUnits="userSpaceOnUse" x="16.835" y="44.634" width="0.504" height="300.454" id="SVGID_00000151529298331834215060000017431461146669601169_">
					<g style="filter:url(#Adobe_OpacityMaskFilter_00000094580679841777496360000010875199216716881327_);">
						<defs>
							
								<filter id="Adobe_OpacityMaskFilter_00000119088770529771284880000014848704665526000544_" filterUnits="userSpaceOnUse" x="16.835" y="44.634" width="0.504" height="300.454">
								<feFlood  style="flood-color:white;flood-opacity:1" result="back"/>
								<feBlend  in="SourceGraphic" in2="back" mode="normal"/>
							</filter>
						</defs>
						
							<mask maskUnits="userSpaceOnUse" x="16.835" y="44.634" width="0.504" height="300.454" id="SVGID_00000151529298331834215060000017431461146669601169_">
							<g style="filter:url(#Adobe_OpacityMaskFilter_00000119088770529771284880000014848704665526000544_);">
							</g>
						</mask>
						
							<radialGradient id="SVGID_00000150810585489308391670000000087321468260343960_" cx="341.3682" cy="19.2968" r="400.7013" gradientTransform="matrix(-1 0 0 1 617.418 0)" gradientUnits="userSpaceOnUse">
							<stop  offset="0.0988" style="stop-color:#000000"/>
							<stop  offset="1" style="stop-color:#FFFFFF"/>
						</radialGradient>
						
							<path style="mask:url(#SVGID_00000151529298331834215060000017431461146669601169_);fill:url(#SVGID_00000150810585489308391670000000087321468260343960_);" d="
							M16.835,44.634v300.454c0.167-0.608,0.332-1.217,0.503-1.825l0.001-75.648V50.08C17.167,48.265,16.999,46.448,16.835,44.634z"
							/>
					</g>
				</mask>
				
					<radialGradient id="SVGID_00000102538728745253837150000015555744299376602497_" cx="341.3682" cy="19.2968" r="400.7013" gradientTransform="matrix(-1 0 0 1 617.418 0)" gradientUnits="userSpaceOnUse">
					<stop  offset="0.0988" style="stop-color:#FFFFFF"/>
					<stop  offset="1" style="stop-color:#ABABAB"/>
				</radialGradient>
				<path style="fill:url(#SVGID_00000102538728745253837150000015555744299376602497_);" d="M16.835,44.634v300.454
					c0.167-0.608,0.332-1.217,0.503-1.825l0.001-75.648V50.08C17.167,48.265,16.999,46.448,16.835,44.634z"/>
			</g>
		</g>
		<g>
			<g>
				<g>
					<path d="M35.433,86.364c-0.542,6.476-4.192,11.012-4.192,11.012h4.192h4.194C39.626,97.376,35.975,92.84,35.433,86.364z"/>
					<path d="M43.262,76.765c-5.194-3.589-7.76-7.343-7.828-7.44v-0.005l-0.002,0.002l-0.001-0.002v0.005
						c-0.066,0.098-2.633,3.852-7.827,7.44c-5.263,3.637-6.462,8.173-4.58,11.596c1.883,3.424,9.412,5.092,12.408-1.708
						c2.996,6.8,10.526,5.132,12.407,1.708C49.723,84.938,48.525,80.401,43.262,76.765z"/>
				</g>
				<path d="M26.292,64.68v-4.664h2.663c0.439,1.495,1.103,2.596,1.991,3.3c0.888,0.705,2.035,1.056,3.444,1.056
					c1.95,0,3.424-0.586,4.423-1.76c0.996-1.173,1.496-2.925,1.496-5.259c0-1.555-0.265-2.842-0.792-3.861
					c-0.529-1.02-1.24-1.756-2.135-2.21c-0.895-0.456-1.936-0.685-3.125-0.685c-0.997,0-1.855,0.063-2.574,0.188
					c-0.719,0.126-1.488,0.319-2.31,0.584l-1.76-1.034V35.856h12.123c0.499,0,0.859-0.042,1.079-0.123
					c0.22-0.079,0.396-0.204,0.527-0.373c0.133-0.168,0.287-0.487,0.462-0.957h1.716l-0.329,5.104H30.538v9.659
					c0.763-0.321,1.591-0.563,2.487-0.726c0.895-0.162,1.79-0.241,2.684-0.241c1.746,0,3.293,0.355,4.643,1.066
					c1.35,0.712,2.391,1.723,3.125,3.037c0.732,1.313,1.099,2.834,1.099,4.564c0,1.966-0.409,3.654-1.232,5.062
					c-0.821,1.408-2.01,2.479-3.565,3.213c-1.553,0.733-3.395,1.1-5.523,1.1C31.719,66.242,29.063,65.721,26.292,64.68z"/>
			</g>
			<g>
				<g>
					<path d="M245.667,300.387c0.542-6.476,4.192-11.012,4.192-11.012h-4.192h-4.194
						C241.473,289.375,245.124,293.911,245.667,300.387z"/>
					<path d="M237.837,309.986c5.193,3.589,7.76,7.343,7.828,7.44v0.004l0.002-0.001l0.002,0.001v-0.004
						c0.066-0.098,2.633-3.852,7.826-7.44c5.263-3.637,6.462-8.174,4.58-11.596c-1.883-3.424-9.411-5.092-12.408,1.708
						c-2.996-6.8-10.526-5.132-12.407-1.708C231.376,301.813,232.574,306.35,237.837,309.986z"/>
				</g>
				<path d="M254.808,322.07v4.665h-2.663c-0.439-1.495-1.103-2.596-1.991-3.3c-0.887-0.705-2.035-1.056-3.444-1.056
					c-1.95,0-3.424,0.586-4.422,1.76c-0.997,1.173-1.496,2.925-1.496,5.259c0,1.555,0.265,2.841,0.791,3.86
					c0.529,1.02,1.24,1.757,2.135,2.211c0.895,0.456,1.936,0.684,3.125,0.684c0.997,0,1.854-0.063,2.574-0.186
					c0.719-0.126,1.488-0.319,2.31-0.584l1.76,1.034v14.478h-12.122c-0.499,0-0.86,0.041-1.08,0.122
					c-0.22,0.08-0.395,0.205-0.527,0.374c-0.133,0.168-0.286,0.487-0.462,0.957h-1.716l0.329-5.104h12.652v-9.66
					c-0.763,0.322-1.592,0.564-2.487,0.727c-0.895,0.162-1.79,0.241-2.685,0.241c-1.746,0-3.293-0.357-4.643-1.066
					c-1.349-0.712-2.391-1.723-3.124-3.038c-0.732-1.313-1.099-2.833-1.099-4.564c0-1.965,0.409-3.653,1.232-5.061
					c0.821-1.408,2.009-2.478,3.564-3.213c1.554-0.733,3.395-1.1,5.523-1.1C249.381,320.509,252.036,321.03,254.808,322.07z"/>
			</g>
			<g>
				<g>
					<g>
						<g>
							<path d="M95.242,103.643c-1.075,12.853-8.323,21.854-8.323,21.854h8.323h8.323
								C103.565,125.497,96.319,116.495,95.242,103.643z"/>
							<path d="M110.78,84.593c-10.307-7.124-15.402-14.573-15.535-14.768v-0.011l-0.003,0.005l-0.004-0.005v0.011
								c-0.131,0.194-5.226,7.643-15.533,14.768c-10.446,7.217-12.826,16.219-9.088,23.014c3.736,6.792,18.678,10.104,24.625-3.391
								c5.947,13.494,20.889,10.183,24.625,3.391C123.605,100.812,121.226,91.81,110.78,84.593z"/>
						</g>
						<g>
							<path d="M95.242,283.865c-1.075-12.854-8.323-21.855-8.323-21.855h8.323h8.323C103.565,262.01,96.319,271.012,95.242,283.865
								z"/>
							<path d="M110.78,302.914c-10.307,7.124-15.402,14.573-15.535,14.768v0.01l-0.003-0.004l-0.004,0.004v-0.01
								c-0.131-0.194-5.226-7.644-15.533-14.768c-10.446-7.217-12.826-16.219-9.088-23.014c3.736-6.792,18.678-10.103,24.625,3.39
								c5.947-13.493,20.889-10.182,24.625-3.39C123.605,286.695,121.226,295.697,110.78,302.914z"/>
						</g>
					</g>
					<g>
						<g>
							<path d="M187.192,103.643c-1.075,12.853-8.323,21.854-8.323,21.854h8.323h8.323
								C195.515,125.497,188.268,116.495,187.192,103.643z"/>
							<path d="M202.73,84.593c-10.308-7.124-15.402-14.573-15.535-14.768v-0.011l-0.003,0.005l-0.003-0.005v0.011
								c-0.131,0.194-5.226,7.643-15.533,14.768c-10.446,7.217-12.825,16.219-9.088,23.014c3.736,6.792,18.678,10.104,24.625-3.391
								c5.946,13.494,20.889,10.183,24.625,3.391C215.555,100.812,213.176,91.81,202.73,84.593z"/>
						</g>
						<g>
							<path d="M187.192,283.865c-1.075-12.854-8.323-21.855-8.323-21.855h8.323h8.323
								C195.515,262.01,188.268,271.012,187.192,283.865z"/>
							<path d="M202.73,302.914c-10.308,7.124-15.402,14.573-15.535,14.768v0.01l-0.003-0.004l-0.003,0.004v-0.01
								c-0.131-0.194-5.226-7.644-15.533-14.768c-10.446-7.217-12.825-16.219-9.088-23.014c3.736-6.792,18.678-10.103,24.625,3.39
								c5.946-13.493,20.889-10.182,24.625-3.39C215.555,286.695,213.176,295.697,202.73,302.914z"/>
						</g>
					</g>
				</g>
				<g>
					<g>
						<path d="M141.218,199.739c-1.075,12.854-8.322,21.855-8.322,21.855h8.322h8.323
							C149.54,221.595,142.294,212.593,141.218,199.739z"/>
						<path d="M156.756,180.69c-10.309-7.124-15.402-14.573-15.535-14.768v-0.01l-0.003,0.005l-0.003-0.005v0.01
							c-0.133,0.195-5.227,7.645-15.535,14.768c-10.446,7.217-12.823,16.219-9.086,23.014c3.736,6.792,18.677,10.104,24.624-3.391
							c5.946,13.494,20.89,10.183,24.625,3.391C169.579,196.909,167.202,187.907,156.756,180.69z"/>
					</g>
				</g>
			</g>
		</g>
	</g>
</g>
</svg>
