<?xml version="1.0" encoding="utf-8"?>
<!-- Generator: Adobe Illustrator 27.5.0, SVG Export Plug-In . SVG Version: 6.00 Build 0)  -->
<svg version="1.1" id="Layer_1" xmlns="http://www.w3.org/2000/svg" xmlns:xlink="http://www.w3.org/1999/xlink" x="0px" y="0px"
	 viewBox="0 0 293.41 398.198" style="enable-background:new 0 0 293.41 398.198;" xml:space="preserve">
<g>
	<g>
		<path style="fill:#FFFFFF;" d="M37.057,388.24c0.086,0.004,0.172,0.004,0.259,0.004H266.94c0.086,0,0.172,0,0.259-0.004
			c1.444-0.039,8.917-0.584,14.252-7.472c3.068-3.958,4.623-9.02,4.623-15.038V43.307c0-16.137-11.288-22.301-18.875-22.508
			c-0.086-0.002-0.173-0.004-0.259-0.004h-0.514c-0.043,0-0.086,0-0.13,0.002H37.315c-0.086,0-0.172,0-0.258,0.003
			c-7.587,0.206-18.876,6.37-18.876,22.511v11.797c-0.005,0.121-0.007,0.243-0.007,0.367V355.93c0,0.122,0.002,0.244,0.007,0.367
			v9.435C18.182,381.869,29.47,388.034,37.057,388.24z"/>
		<path style="fill:#F1F1F1;" d="M36.071,387.255c0.086,0.003,0.172,0.004,0.258,0.004h229.626c0.086,0,0.173-0.001,0.259-0.004
			c1.443-0.042,8.917-0.584,14.251-7.472c3.068-3.958,4.624-9.02,4.624-15.039V42.32c0-16.136-11.288-22.281-18.875-22.508
			c-0.086-0.001-0.172-0.003-0.259-0.003h-0.514c-0.044,0-0.087,0-0.131,0.001H36.33c-0.086,0-0.171,0.001-0.258,0.004
			c-7.587,0.226-18.875,6.37-18.875,22.51v11.797c-0.005,0.122-0.007,0.244-0.007,0.369v300.453c0,0.122,0.002,0.244,0.007,0.368
			v9.435C17.196,380.884,28.485,387.029,36.071,387.255z"/>
		<path style="fill:#E2E2E2;" d="M35.085,386.27c0.087,0.003,0.173,0.004,0.259,0.004h229.625c0.087,0,0.173-0.001,0.259-0.004
			c1.444-0.042,8.917-0.584,14.251-7.472c3.068-3.958,4.624-9.02,4.624-15.039V41.336c0-16.137-11.288-22.281-18.875-22.508
			c-0.086-0.002-0.172-0.004-0.259-0.004h-0.514c-0.043,0-0.087,0-0.13,0.001H35.345c-0.085,0-0.172,0.001-0.258,0.003
			C27.5,19.055,16.211,25.199,16.211,41.34v11.797c-0.005,0.121-0.007,0.244-0.007,0.367v300.454c0,0.122,0.002,0.245,0.007,0.367
			v9.436C16.211,379.898,27.5,386.045,35.085,386.27z"/>
		<path style="fill:#D4D4D4;" d="M34.101,385.285c0.086,0.002,0.172,0.003,0.259,0.003h229.625c0.086,0,0.172-0.001,0.259-0.003
			c1.444-0.043,8.917-0.585,14.251-7.473c3.068-3.959,4.624-9.02,4.624-15.039V40.351c0-16.137-11.288-22.282-18.875-22.508
			c-0.086-0.003-0.173-0.004-0.259-0.004h-0.514c-0.044,0-0.087,0-0.13,0.001H34.359c-0.086,0-0.172,0.001-0.258,0.004
			c-7.587,0.226-18.877,6.37-18.877,22.51v11.798c-0.004,0.121-0.007,0.243-0.007,0.367v300.454c0,0.123,0.002,0.245,0.007,0.367
			v9.437C15.225,378.913,26.514,385.06,34.101,385.285z"/>
		<path style="fill:#C5C5C5;" d="M33.115,384.3c0.086,0.003,0.172,0.003,0.259,0.003h229.625c0.086,0,0.172,0,0.259-0.003
			c1.444-0.043,8.917-0.585,14.251-7.473c3.068-3.958,4.624-9.019,4.624-15.039V39.365c0-16.137-11.288-22.282-18.875-22.508
			c-0.086-0.003-0.173-0.004-0.259-0.004h-0.514c-0.043,0-0.086,0-0.13,0.001H33.374c-0.086,0-0.172,0.001-0.258,0.004
			c-7.587,0.226-18.876,6.37-18.876,22.511v11.797c-0.004,0.121-0.007,0.244-0.007,0.367v300.454c0,0.122,0.002,0.245,0.007,0.367
			v9.436C14.24,377.928,25.528,384.073,33.115,384.3z"/>
		<path style="fill:#B7B7B7;" d="M32.13,383.315c0.086,0.002,0.172,0.004,0.259,0.004h229.625c0.086,0,0.172-0.002,0.259-0.004
			c1.444-0.043,8.917-0.585,14.251-7.473c3.068-3.958,4.624-9.02,4.624-15.039V38.38c0-16.136-11.289-22.282-18.875-22.508
			c-0.087-0.003-0.173-0.004-0.259-0.004h-0.514c-0.043,0-0.086,0-0.13,0.001H32.389c-0.086,0-0.172,0.001-0.258,0.004
			c-7.587,0.226-18.876,6.371-18.876,22.511v11.797c-0.005,0.121-0.007,0.244-0.007,0.367v300.454c0,0.123,0.002,0.245,0.007,0.367
			v9.437C13.255,376.942,24.543,383.088,32.13,383.315z"/>
		<path style="fill:#A8A8A8;" d="M31.145,382.329c0.086,0.002,0.172,0.004,0.258,0.004h229.625c0.086,0,0.172-0.002,0.259-0.004
			c1.444-0.043,8.918-0.585,14.251-7.472c3.068-3.959,4.624-9.02,4.624-15.041V37.395c0-16.136-11.288-22.282-18.876-22.508
			c-0.086-0.003-0.172-0.004-0.259-0.004h-0.514c-0.043,0-0.086,0-0.13,0.001H31.403c-0.085,0-0.172,0.001-0.258,0.004
			c-7.586,0.226-18.876,6.371-18.876,22.511v11.797c-0.005,0.121-0.007,0.244-0.007,0.367v300.454c0,0.122,0.003,0.244,0.007,0.368
			v9.436C12.269,375.957,23.558,382.103,31.145,382.329z"/>
		<path style="fill:#9A9A9A;" d="M30.159,381.344c0.086,0.002,0.172,0.004,0.259,0.004h229.625c0.086,0,0.173-0.002,0.259-0.004
			c1.444-0.043,8.917-0.584,14.251-7.472c3.068-3.96,4.624-9.02,4.624-15.041V36.408c0-16.135-11.288-22.281-18.875-22.507
			c-0.086-0.003-0.173-0.004-0.259-0.004h-0.514c-0.044,0-0.087,0-0.13,0H30.418c-0.086,0-0.172,0.002-0.258,0.004
			c-7.587,0.227-18.876,6.372-18.876,22.511v11.797c-0.004,0.123-0.007,0.245-0.007,0.367v300.455c0,0.123,0.002,0.244,0.007,0.367
			v9.437C11.284,374.972,22.572,381.117,30.159,381.344z"/>
		<path style="fill:#8B8B8B;" d="M29.174,380.358c0.086,0.002,0.172,0.004,0.259,0.004h229.625c0.086,0,0.172-0.002,0.259-0.004
			c1.443-0.044,8.917-0.585,14.251-7.472c3.068-3.96,4.624-9.02,4.624-15.041V35.423c0-16.136-11.288-22.281-18.875-22.507
			c-0.086-0.002-0.173-0.004-0.259-0.004h-0.514c-0.043,0-0.087,0-0.13,0H29.433c-0.086,0-0.172,0.002-0.258,0.004
			c-7.587,0.227-18.877,6.371-18.877,22.511v11.797c-0.004,0.123-0.007,0.245-0.007,0.368v300.453c0,0.123,0.002,0.245,0.007,0.368
			v9.437C10.298,373.986,21.587,380.132,29.174,380.358z"/>
		<path style="fill:#7D7D7D;" d="M28.188,379.372c0.086,0.003,0.172,0.004,0.259,0.004h229.625c0.086,0,0.172-0.001,0.259-0.004
			c1.443-0.042,8.917-0.584,14.251-7.472c3.068-3.959,4.624-9.02,4.624-15.039V34.438c0-16.136-11.288-22.281-18.875-22.508
			c-0.086-0.002-0.173-0.004-0.259-0.004h-0.514c-0.044,0-0.087,0-0.131,0.002H28.447c-0.086,0-0.171,0.002-0.258,0.003
			c-7.586,0.226-18.876,6.371-18.876,22.511v11.797c-0.004,0.122-0.007,0.244-0.007,0.367v300.455c0,0.122,0.003,0.244,0.007,0.367
			v9.437C9.313,373,20.602,379.147,28.188,379.372z"/>
		<path style="fill:#6E6E6E;" d="M27.203,378.387c0.087,0.003,0.172,0.004,0.259,0.004h229.625c0.086,0,0.172-0.001,0.259-0.004
			c1.444-0.043,8.917-0.584,14.251-7.472c3.068-3.959,4.624-9.02,4.624-15.04V33.453c0-16.137-11.289-22.283-18.875-22.508
			c-0.086-0.003-0.172-0.004-0.259-0.004h-0.514c-0.043,0-0.086,0-0.13,0.001H27.461c-0.085,0-0.172,0.001-0.258,0.003
			c-7.586,0.227-18.876,6.371-18.876,22.511v11.798c-0.004,0.121-0.007,0.243-0.007,0.367v300.454c0,0.122,0.002,0.245,0.007,0.367
			v9.436C8.327,372.016,19.616,378.162,27.203,378.387z"/>
		<path style="fill:#606060;" d="M26.217,377.402c0.086,0.002,0.173,0.003,0.259,0.003h229.625c0.086,0,0.172-0.001,0.259-0.003
			c1.444-0.039,8.917-0.585,14.251-7.473c3.068-3.959,4.624-9.02,4.624-15.039V32.467c0-16.136-11.288-22.301-18.875-22.508
			c-0.086-0.002-0.172-0.003-0.259-0.003h-0.514c-0.044,0-0.086,0-0.13,0.001H26.476c-0.086,0-0.172,0.001-0.258,0.004
			c-7.587,0.205-18.876,6.37-18.876,22.51v11.797c-0.005,0.122-0.007,0.244-0.007,0.368V345.09c0,0.122,0.002,0.245,0.007,0.367
			v9.436C7.342,371.03,18.63,377.195,26.217,377.402z"/>
	</g>
	<path style="fill:#FFFFFF;" d="M26.217,377.402c0.086,0.002,0.173,0.003,0.259,0.003h229.625c0.086,0,0.172-0.001,0.259-0.003
		c1.444-0.039,8.917-0.585,14.251-7.473c3.068-3.959,4.624-9.02,4.624-15.039V32.467c0-16.136-11.288-22.301-18.875-22.508
		c-0.086-0.002-0.172-0.003-0.259-0.003h-0.514c-0.044,0-0.086,0-0.13,0.001H26.476c-0.086,0-0.172,0.001-0.258,0.004
		c-7.587,0.205-18.876,6.37-18.876,22.51v11.797c-0.005,0.122-0.007,0.244-0.007,0.368V345.09c0,0.122,0.002,0.245,0.007,0.367
		v9.436C7.342,371.03,18.63,377.195,26.217,377.402z"/>
	<g>
		<g>
			<g>
				<path style="fill:#FFFFFF;" d="M256.101,19.457H145.974h-9.373H26.476c0,0-9.634,0.262-9.634,13.014v86.915v148.59v86.917
					c0,12.75,9.634,13.013,9.634,13.013h110.125h9.373h110.127c0,0,9.632-0.263,9.632-13.013v-86.917v-148.59V32.471
					C265.733,19.719,256.101,19.457,256.101,19.457z"/>
				<defs>
					<filter id="Adobe_OpacityMaskFilter" filterUnits="userSpaceOnUse" x="16.842" y="207.505" width="248.891" height="160.4">
						<feFlood  style="flood-color:white;flood-opacity:1" result="back"/>
						<feBlend  in="SourceGraphic" in2="back" mode="normal"/>
					</filter>
				</defs>
				<mask maskUnits="userSpaceOnUse" x="16.842" y="207.505" width="248.891" height="160.4" id="SVGID_1_">
					<g style="filter:url(#Adobe_OpacityMaskFilter);">
						<defs>
							
								<filter id="Adobe_OpacityMaskFilter_00000141452854911293898260000000238426665140551057_" filterUnits="userSpaceOnUse" x="16.842" y="207.505" width="248.891" height="160.4">
								<feFlood  style="flood-color:white;flood-opacity:1" result="back"/>
								<feBlend  in="SourceGraphic" in2="back" mode="normal"/>
							</filter>
						</defs>
						<mask maskUnits="userSpaceOnUse" x="16.842" y="207.505" width="248.891" height="160.4" id="SVGID_1_">
							<g style="filter:url(#Adobe_OpacityMaskFilter_00000141452854911293898260000000238426665140551057_);">
							</g>
						</mask>
						
							<radialGradient id="SVGID_00000113328269338390106230000015694468045941349806_" cx="137.4365" cy="-99.3346" r="503.8667" gradientUnits="userSpaceOnUse">
							<stop  offset="0.6156" style="stop-color:#000000"/>
							<stop  offset="0.7516" style="stop-color:#020202"/>
							<stop  offset="0.8037" style="stop-color:#090909"/>
							<stop  offset="0.8413" style="stop-color:#151515"/>
							<stop  offset="0.8721" style="stop-color:#262626"/>
							<stop  offset="0.8986" style="stop-color:#3C3C3C"/>
							<stop  offset="0.9222" style="stop-color:#585858"/>
							<stop  offset="0.9436" style="stop-color:#797979"/>
							<stop  offset="0.9634" style="stop-color:#9F9F9F"/>
							<stop  offset="0.9817" style="stop-color:#CBCBCB"/>
							<stop  offset="0.9982" style="stop-color:#F9F9F9"/>
							<stop  offset="1" style="stop-color:#FFFFFF"/>
						</radialGradient>
						<path style="mask:url(#SVGID_1_);fill:url(#SVGID_00000113328269338390106230000015694468045941349806_);" d="
							M163.595,207.518c-48.918,0.011-97.835,0.031-146.752,0.051v147.324c0,12.75,9.634,13.013,9.634,13.013h229.625
							c0,0,9.632-0.263,9.632-13.013V207.505C231.686,207.509,197.642,207.511,163.595,207.518z"/>
					</g>
				</mask>
				
					<radialGradient id="SVGID_00000049905111800109065750000002097777989565724079_" cx="137.4365" cy="-99.3346" r="503.8667" gradientUnits="userSpaceOnUse">
					<stop  offset="0.6156" style="stop-color:#FFFFFF"/>
					<stop  offset="0.7878" style="stop-color:#FDFDFD"/>
					<stop  offset="0.8537" style="stop-color:#F6F6F6"/>
					<stop  offset="0.9014" style="stop-color:#EAEAEA"/>
					<stop  offset="0.9403" style="stop-color:#D9D9D9"/>
					<stop  offset="0.9735" style="stop-color:#C3C3C3"/>
					<stop  offset="1" style="stop-color:#ABABAB"/>
				</radialGradient>
				<path style="fill:url(#SVGID_00000049905111800109065750000002097777989565724079_);" d="M163.595,207.518
					c-48.918,0.011-97.835,0.031-146.752,0.051v147.324c0,12.75,9.634,13.013,9.634,13.013h229.625c0,0,9.632-0.263,9.632-13.013
					V207.505C231.686,207.509,197.642,207.511,163.595,207.518z"/>
				<defs>
					
						<filter id="Adobe_OpacityMaskFilter_00000175303988058893431600000013621442728336948402_" filterUnits="userSpaceOnUse" x="16.842" y="19.457" width="248.891" height="173.938">
						<feFlood  style="flood-color:white;flood-opacity:1" result="back"/>
						<feBlend  in="SourceGraphic" in2="back" mode="normal"/>
					</filter>
				</defs>
				
					<mask maskUnits="userSpaceOnUse" x="16.842" y="19.457" width="248.891" height="173.938" id="SVGID_00000085222413075781895000000016934977890424640385_">
					<g style="filter:url(#Adobe_OpacityMaskFilter_00000175303988058893431600000013621442728336948402_);">
						<defs>
							
								<filter id="Adobe_OpacityMaskFilter_00000153702955488913489650000013648677506443059628_" filterUnits="userSpaceOnUse" x="16.842" y="19.457" width="248.891" height="173.938">
								<feFlood  style="flood-color:white;flood-opacity:1" result="back"/>
								<feBlend  in="SourceGraphic" in2="back" mode="normal"/>
							</filter>
						</defs>
						
							<mask maskUnits="userSpaceOnUse" x="16.842" y="19.457" width="248.891" height="173.938" id="SVGID_00000085222413075781895000000016934977890424640385_">
							<g style="filter:url(#Adobe_OpacityMaskFilter_00000153702955488913489650000013648677506443059628_);">
							</g>
						</mask>
						
							<radialGradient id="SVGID_00000170271572170884883810000004187832384731772600_" cx="142.422" cy="341.0083" r="361.0523" gradientUnits="userSpaceOnUse">
							<stop  offset="0.6156" style="stop-color:#000000"/>
							<stop  offset="0.7096" style="stop-color:#020202"/>
							<stop  offset="0.7623" style="stop-color:#0A0A0A"/>
							<stop  offset="0.8047" style="stop-color:#181818"/>
							<stop  offset="0.8418" style="stop-color:#2C2C2C"/>
							<stop  offset="0.8752" style="stop-color:#464646"/>
							<stop  offset="0.9062" style="stop-color:#656565"/>
							<stop  offset="0.9352" style="stop-color:#8A8A8A"/>
							<stop  offset="0.9626" style="stop-color:#B6B6B6"/>
							<stop  offset="0.9879" style="stop-color:#E5E5E5"/>
							<stop  offset="1" style="stop-color:#FFFFFF"/>
						</radialGradient>
						
							<path style="mask:url(#SVGID_00000085222413075781895000000016934977890424640385_);fill:url(#SVGID_00000170271572170884883810000004187832384731772600_);" d="
							M16.842,193.304c20.946,0.017,41.891,0.032,62.837,0.044c60.363,0.034,120.725,0.038,181.086,0.047
							c1.657,0,3.313-0.002,4.968-0.002V32.471c0-12.752-9.632-13.014-9.632-13.014H26.476c0,0-9.634,0.262-9.634,13.014v86.915
							V193.304z"/>
					</g>
				</mask>
				
					<radialGradient id="SVGID_00000181044790594020689450000008022624309375360902_" cx="142.422" cy="341.0083" r="361.0523" gradientUnits="userSpaceOnUse">
					<stop  offset="0.6156" style="stop-color:#FFFFFF"/>
					<stop  offset="0.747" style="stop-color:#FDFDFD"/>
					<stop  offset="0.8206" style="stop-color:#F5F5F5"/>
					<stop  offset="0.8799" style="stop-color:#E7E7E7"/>
					<stop  offset="0.9316" style="stop-color:#D3D3D3"/>
					<stop  offset="0.9778" style="stop-color:#BABABA"/>
					<stop  offset="1" style="stop-color:#ABABAB"/>
				</radialGradient>
				<path style="fill:url(#SVGID_00000181044790594020689450000008022624309375360902_);" d="M16.842,193.304
					c20.946,0.017,41.891,0.032,62.837,0.044c60.363,0.034,120.725,0.038,181.086,0.047c1.657,0,3.313-0.002,4.968-0.002V32.471
					c0-12.752-9.632-13.014-9.632-13.014H26.476c0,0-9.634,0.262-9.634,13.014v86.915V193.304z"/>
			</g>
			<g>
				<defs>
					
						<filter id="Adobe_OpacityMaskFilter_00000150062890996508789680000002090134723085716631_" filterUnits="userSpaceOnUse" x="21.426" y="19.456" width="244.309" height="348.448">
						<feFlood  style="flood-color:white;flood-opacity:1" result="back"/>
						<feBlend  in="SourceGraphic" in2="back" mode="normal"/>
					</filter>
				</defs>
				
					<mask maskUnits="userSpaceOnUse" x="21.426" y="19.456" width="244.309" height="348.448" id="SVGID_00000156559696582368829400000011590033931680105645_">
					<g style="filter:url(#Adobe_OpacityMaskFilter_00000150062890996508789680000002090134723085716631_);">
						<defs>
							
								<filter id="Adobe_OpacityMaskFilter_00000114058179326903595570000000732645670925825962_" filterUnits="userSpaceOnUse" x="21.426" y="19.456" width="244.309" height="348.448">
								<feFlood  style="flood-color:white;flood-opacity:1" result="back"/>
								<feBlend  in="SourceGraphic" in2="back" mode="normal"/>
							</filter>
						</defs>
						
							<mask maskUnits="userSpaceOnUse" x="21.426" y="19.456" width="244.309" height="348.448" id="SVGID_00000156559696582368829400000011590033931680105645_">
							<g style="filter:url(#Adobe_OpacityMaskFilter_00000114058179326903595570000000732645670925825962_);">
							</g>
						</mask>
						
							<radialGradient id="SVGID_00000175320637702733987730000008657495314239452053_" cx="6.1956" cy="19.2993" r="400.8938" gradientUnits="userSpaceOnUse">
							<stop  offset="0.0988" style="stop-color:#000000"/>
							<stop  offset="1" style="stop-color:#FFFFFF"/>
						</radialGradient>
						
							<path style="mask:url(#SVGID_00000156559696582368829400000011590033931680105645_);fill:url(#SVGID_00000175320637702733987730000008657495314239452053_);" d="
							M265.23,32.449v86.791v148.375l0.001,86.79c0,12.733-9.645,12.995-9.645,12.995H145.351h-9.383H25.729
							c0,0-2.078-0.059-4.303-1.393c2.482,1.822,5.048,1.896,5.048,1.896h110.128h9.373h110.126c0,0,9.634-0.262,9.634-13.014
							v-86.916v-148.59V32.469c0-12.75-9.634-13.013-9.634-13.013h-0.514C255.587,19.456,265.23,19.718,265.23,32.449z"/>
					</g>
				</mask>
				
					<radialGradient id="SVGID_00000099653845645304382410000011941921545498055589_" cx="6.1956" cy="19.2993" r="400.8938" gradientUnits="userSpaceOnUse">
					<stop  offset="0.0988" style="stop-color:#FFFFFF"/>
					<stop  offset="1" style="stop-color:#ABABAB"/>
				</radialGradient>
				<path style="fill:url(#SVGID_00000099653845645304382410000011941921545498055589_);" d="M265.23,32.449v86.791v148.375
					l0.001,86.79c0,12.733-9.645,12.995-9.645,12.995H145.351h-9.383H25.729c0,0-2.078-0.059-4.303-1.393
					c2.482,1.822,5.048,1.896,5.048,1.896h110.128h9.373h110.126c0,0,9.634-0.262,9.634-13.014v-86.916v-148.59V32.469
					c0-12.75-9.634-13.013-9.634-13.013h-0.514C255.587,19.456,265.23,19.718,265.23,32.449z"/>
			</g>
			<defs>
				
					<filter id="Adobe_OpacityMaskFilter_00000102540080988753779660000005636776322616850073_" filterUnits="userSpaceOnUse" x="16.842" y="19.457" width="244.309" height="348.448">
					<feFlood  style="flood-color:white;flood-opacity:1" result="back"/>
					<feBlend  in="SourceGraphic" in2="back" mode="normal"/>
				</filter>
			</defs>
			
				<mask maskUnits="userSpaceOnUse" x="16.842" y="19.457" width="244.309" height="348.448" id="SVGID_00000047050111940620045490000008959021942178077874_">
				<g style="filter:url(#Adobe_OpacityMaskFilter_00000102540080988753779660000005636776322616850073_);">
					<defs>
						
							<filter id="Adobe_OpacityMaskFilter_00000178186372106548137000000002540181916175130289_" filterUnits="userSpaceOnUse" x="16.842" y="19.457" width="244.309" height="348.448">
							<feFlood  style="flood-color:white;flood-opacity:1" result="back"/>
							<feBlend  in="SourceGraphic" in2="back" mode="normal"/>
						</filter>
					</defs>
					
						<mask maskUnits="userSpaceOnUse" x="16.842" y="19.457" width="244.309" height="348.448" id="SVGID_00000047050111940620045490000008959021942178077874_">
						<g style="filter:url(#Adobe_OpacityMaskFilter_00000178186372106548137000000002540181916175130289_);">
						</g>
					</mask>
					
						<radialGradient id="SVGID_00000018927572280585885370000006927167280406441624_" cx="84.8269" cy="120.8656" r="341.4542" gradientUnits="userSpaceOnUse">
						<stop  offset="0" style="stop-color:#000000"/>
						<stop  offset="0.0074" style="stop-color:#090909"/>
						<stop  offset="0.0477" style="stop-color:#373737"/>
						<stop  offset="0.0931" style="stop-color:#626262"/>
						<stop  offset="0.1419" style="stop-color:#888888"/>
						<stop  offset="0.195" style="stop-color:#A8A8A8"/>
						<stop  offset="0.2537" style="stop-color:#C4C4C4"/>
						<stop  offset="0.32" style="stop-color:#DADADA"/>
						<stop  offset="0.3974" style="stop-color:#EBEBEB"/>
						<stop  offset="0.4931" style="stop-color:#F6F6F6"/>
						<stop  offset="0.6274" style="stop-color:#FDFDFD"/>
						<stop  offset="1" style="stop-color:#FFFFFF"/>
					</radialGradient>
					
						<path style="mask:url(#SVGID_00000047050111940620045490000008959021942178077874_);fill:url(#SVGID_00000018927572280585885370000006927167280406441624_);" d="
						M17.346,354.912V268.12V119.746v-86.79c0-12.733,9.643-12.995,9.643-12.995h110.238h9.381h110.241c0,0,2.076,0.059,4.303,1.393
						c-2.483-1.822-5.05-1.896-5.05-1.896H145.974h-9.373H26.476c0,0-9.634,0.262-9.634,13.014v86.915v148.59v86.917
						c0,12.75,9.634,13.013,9.634,13.013h0.513C26.989,367.905,17.346,367.644,17.346,354.912z"/>
				</g>
			</mask>
			
				<radialGradient id="SVGID_00000174569859360002764570000005321371021950975873_" cx="84.8269" cy="120.8656" r="341.4542" gradientUnits="userSpaceOnUse">
				<stop  offset="0" style="stop-color:#FFFFFF"/>
				<stop  offset="0.1413" style="stop-color:#FFFFFF"/>
				<stop  offset="1" style="stop-color:#FFFFFF"/>
			</radialGradient>
			<path style="fill:url(#SVGID_00000174569859360002764570000005321371021950975873_);" d="M17.346,354.912V268.12V119.746v-86.79
				c0-12.733,9.643-12.995,9.643-12.995h110.238h9.381h110.241c0,0,2.076,0.059,4.303,1.393c-2.483-1.822-5.05-1.896-5.05-1.896
				H145.974h-9.373H26.476c0,0-9.634,0.262-9.634,13.014v86.915v148.59v86.917c0,12.75,9.634,13.013,9.634,13.013h0.513
				C26.989,367.905,17.346,367.644,17.346,354.912z"/>
			<g>
				<defs>
					
						<filter id="Adobe_OpacityMaskFilter_00000069381973483849082350000008957639514227516839_" filterUnits="userSpaceOnUse" x="16.835" y="44.636" width="0.505" height="300.454">
						<feFlood  style="flood-color:white;flood-opacity:1" result="back"/>
						<feBlend  in="SourceGraphic" in2="back" mode="normal"/>
					</filter>
				</defs>
				
					<mask maskUnits="userSpaceOnUse" x="16.835" y="44.636" width="0.505" height="300.454" id="SVGID_00000106849335081546887280000003772493094382480533_">
					<g style="filter:url(#Adobe_OpacityMaskFilter_00000069381973483849082350000008957639514227516839_);">
						<defs>
							
								<filter id="Adobe_OpacityMaskFilter_00000149364612762776423350000011630066551149636024_" filterUnits="userSpaceOnUse" x="16.835" y="44.636" width="0.505" height="300.454">
								<feFlood  style="flood-color:white;flood-opacity:1" result="back"/>
								<feBlend  in="SourceGraphic" in2="back" mode="normal"/>
							</filter>
						</defs>
						
							<mask maskUnits="userSpaceOnUse" x="16.835" y="44.636" width="0.505" height="300.454" id="SVGID_00000106849335081546887280000003772493094382480533_">
							<g style="filter:url(#Adobe_OpacityMaskFilter_00000149364612762776423350000011630066551149636024_);">
							</g>
						</mask>
						
							<radialGradient id="SVGID_00000076564608941025877540000014662834918053280165_" cx="341.1631" cy="19.2987" r="400.8245" gradientTransform="matrix(-1 0 0 1 617.418 0)" gradientUnits="userSpaceOnUse">
							<stop  offset="0.0988" style="stop-color:#000000"/>
							<stop  offset="1" style="stop-color:#FFFFFF"/>
						</radialGradient>
						
							<path style="mask:url(#SVGID_00000106849335081546887280000003772493094382480533_);fill:url(#SVGID_00000076564608941025877540000014662834918053280165_);" d="
							M16.835,44.636V345.09c0.167-0.608,0.333-1.219,0.503-1.826l0.001-75.648V50.081C17.167,48.266,16.999,46.45,16.835,44.636z"
							/>
					</g>
				</mask>
				
					<radialGradient id="SVGID_00000053510247555460452730000001218030255910986683_" cx="341.1631" cy="19.2987" r="400.8245" gradientTransform="matrix(-1 0 0 1 617.418 0)" gradientUnits="userSpaceOnUse">
					<stop  offset="0.0988" style="stop-color:#FFFFFF"/>
					<stop  offset="1" style="stop-color:#ABABAB"/>
				</radialGradient>
				<path style="fill:url(#SVGID_00000053510247555460452730000001218030255910986683_);" d="M16.835,44.636V345.09
					c0.167-0.608,0.333-1.219,0.503-1.826l0.001-75.648V50.081C17.167,48.266,16.999,46.45,16.835,44.636z"/>
			</g>
		</g>
		<g>
			<g>
				<path style="fill:#FF2601;" d="M47.975,84.621l0.003-0.004h-0.004c-6.298-3.492-11.343-14.076-11.505-14.415v-0.008v0.003
					l-0.002-0.003v0.008c-0.161,0.339-5.207,10.923-11.504,14.415h-0.004l0.001,0.004l-0.001,0.001h0.004
					c6.297,3.493,11.343,14.077,11.504,14.416v0.009c0,0,0.001-0.004,0.002-0.004v0.004v-0.009
					c0.163-0.339,5.207-10.923,11.505-14.416h0.004L47.975,84.621z"/>
				<path style="fill:#FF2601;" d="M46.126,35.434L33.32,64.566h-3.189v-1.078L41.99,38.383v-0.33h-9.681
					c-0.601,0-1.083,0.055-1.441,0.164c-0.358,0.11-0.66,0.269-0.902,0.473c-0.242,0.205-0.443,0.479-0.605,0.814
					c-0.161,0.338-0.381,1.005-0.66,2.003h-1.892l0.44-7.128h18.878V35.434z"/>
			</g>
			<g>
				<path style="fill:#FF2601;" d="M234.691,301.991l-0.003,0.003h0.004c6.298,3.492,11.342,14.076,11.505,14.416v0.007v-0.004
					c0.002,0.002,0.003,0.004,0.003,0.004v-0.007c0.161-0.34,5.207-10.924,11.504-14.416h0.004l-0.001-0.003l0.001-0.002h-0.004
					c-6.297-3.492-11.343-14.077-11.504-14.415v-0.01l-0.003,0.005v-0.005v0.01c-0.163,0.338-5.207,10.923-11.505,14.415h-0.004
					L234.691,301.991z"/>
				<path style="fill:#FF2601;" d="M236.54,351.179l12.806-29.134h3.189v1.078l-11.859,25.106v0.33h9.681
					c0.601,0,1.082-0.056,1.441-0.164c0.359-0.11,0.66-0.27,0.902-0.475s0.443-0.477,0.605-0.814
					c0.161-0.338,0.381-1.005,0.66-2.003h1.892l-0.44,7.129H236.54V351.179z"/>
			</g>
			<g>
				<g>
					<g>
						<path style="fill:#FF2601;" d="M210.164,298.254l0.003-0.003h-0.009c-12.499-6.933-22.511-27.94-22.832-28.614v-0.015
							c0,0-0.003,0.005-0.003,0.008c-0.001-0.003-0.003-0.008-0.003-0.008l-0.001,0.015c-0.319,0.674-10.333,21.682-22.83,28.614
							h-0.01l0.004,0.003l-0.004,0.004h0.01c12.496,6.931,22.511,27.938,22.83,28.61l0.001,0.018c0,0,0.002-0.004,0.003-0.009
							c0,0.005,0.003,0.009,0.003,0.009v-0.018c0.321-0.672,10.333-21.68,22.832-28.61h0.009L210.164,298.254z"/>
						<path style="fill:#FF2601;" d="M210.164,89.23c0-0.002,0.003-0.002,0.003-0.002h-0.009
							c-12.499-6.934-22.511-27.941-22.832-28.615V60.6l-0.003,0.007c-0.001-0.003-0.003-0.007-0.003-0.007l-0.001,0.014
							c-0.319,0.674-10.333,21.682-22.83,28.615h-0.01c0,0,0.004,0,0.004,0.002l-0.004,0.003h0.01
							c12.496,6.933,22.511,27.939,22.83,28.611l0.001,0.018c0,0,0.002-0.005,0.003-0.008l0.003,0.008v-0.018
							c0.321-0.672,10.333-21.679,22.832-28.611h0.009L210.164,89.23z"/>
					</g>
					<g>
						<path style="fill:#FF2601;" d="M210.164,194.291l0.003-0.003h-0.009c-12.499-6.933-22.511-27.94-22.832-28.614v-0.015
							l-0.003,0.008l-0.003-0.008l-0.001,0.015c-0.319,0.674-10.333,21.682-22.83,28.614h-0.01l0.004,0.003c0,0-0.001,0-0.004,0.003
							h0.01c12.496,6.932,22.511,27.939,22.83,28.611l0.001,0.018c0,0,0.002-0.005,0.003-0.009l0.003,0.009v-0.018
							c0.321-0.672,10.333-21.68,22.832-28.611h0.009L210.164,194.291z"/>
					</g>
					<g>
						<path style="fill:#FF2601;" d="M164.189,142.156l0.003-0.003h-0.009c-12.499-6.934-22.511-27.941-22.831-28.614v-0.015
							l-0.003,0.007c-0.001-0.002-0.002-0.007-0.002-0.007l-0.002,0.015c-0.319,0.673-10.334,21.681-22.83,28.614h-0.01l0.004,0.003
							l-0.004,0.003h0.01c12.496,6.932,22.511,27.939,22.83,28.611l0.002,0.018c0,0,0.001-0.005,0.002-0.009l0.003,0.009v-0.018
							c0.32-0.672,10.332-21.68,22.831-28.611h0.009L164.189,142.156z"/>
					</g>
				</g>
				<g>
					<g>
						<path style="fill:#FF2601;" d="M118.214,298.254l0.003-0.003h-0.009c-12.499-6.933-22.511-27.94-22.831-28.614v-0.015
							c0,0-0.003,0.005-0.003,0.008c-0.001-0.003-0.003-0.008-0.003-0.008l-0.001,0.015c-0.319,0.674-10.334,21.682-22.83,28.614
							h-0.01l0.004,0.003l-0.004,0.004h0.01c12.496,6.931,22.511,27.938,22.83,28.61l0.001,0.018c0,0,0.002-0.004,0.003-0.009
							c0,0.005,0.003,0.009,0.003,0.009v-0.018c0.32-0.672,10.332-21.68,22.831-28.61h0.009L118.214,298.254z"/>
						<path style="fill:#FF2601;" d="M118.214,89.23c0-0.002,0.003-0.002,0.003-0.002h-0.009
							c-12.499-6.934-22.511-27.941-22.831-28.615V60.6l-0.003,0.007c-0.001-0.003-0.003-0.007-0.003-0.007l-0.001,0.014
							c-0.319,0.674-10.334,21.682-22.83,28.615h-0.01c0,0,0.004,0,0.004,0.002l-0.004,0.003h0.01
							c12.496,6.933,22.511,27.939,22.83,28.611l0.001,0.018c0,0,0.002-0.005,0.003-0.008l0.003,0.008v-0.018
							c0.32-0.672,10.332-21.679,22.831-28.611h0.009L118.214,89.23z"/>
					</g>
					<g>
						<path style="fill:#FF2601;" d="M118.214,194.291l0.003-0.003h-0.009c-12.499-6.933-22.511-27.94-22.831-28.614v-0.015
							l-0.003,0.008c-0.001-0.003-0.003-0.008-0.003-0.008l-0.001,0.015c-0.319,0.674-10.334,21.682-22.83,28.614h-0.01h0.004
							c0,0-0.002,0.003-0.004,0.006h0.01c12.496,6.932,22.511,27.939,22.83,28.611l0.001,0.018c0,0,0.002-0.005,0.003-0.009
							l0.003,0.009v-0.018c0.32-0.672,10.332-21.68,22.831-28.611h0.009L118.214,194.291z"/>
					</g>
				</g>
			</g>
		</g>
	</g>
</g>
</svg>
