<?xml version="1.0" encoding="utf-8"?>
<!-- Generator: Adobe Illustrator 27.5.0, SVG Export Plug-In . SVG Version: 6.00 Build 0)  -->
<svg version="1.1" id="Layer_1" xmlns="http://www.w3.org/2000/svg" xmlns:xlink="http://www.w3.org/1999/xlink" x="0px" y="0px"
	 viewBox="0 0 293.409 398.199" style="enable-background:new 0 0 293.409 398.199;" xml:space="preserve">
<g>
	<g>
		<path style="fill:#FFFFFF;" d="M37.057,388.24c0.086,0.002,0.172,0.003,0.259,0.003H266.94c0.086,0,0.172-0.001,0.259-0.003
			c1.444-0.04,8.917-0.585,14.251-7.472c3.068-3.958,4.624-9.019,4.624-15.04V43.306c0-16.138-11.288-22.302-18.876-22.508
			c-0.086-0.003-0.172-0.004-0.258-0.004h-0.514c-0.043,0-0.087,0-0.13,0.001H37.315c-0.086,0-0.172,0.001-0.258,0.004
			C29.47,21.005,18.182,27.17,18.182,43.31v11.786c-0.005,0.126-0.008,0.251-0.008,0.378v300.455c0,0.126,0.003,0.252,0.008,0.377
			v9.427C18.182,381.868,29.47,388.034,37.057,388.24z"/>
		<path style="fill:#F1F1F1;" d="M36.071,387.255c0.086,0.002,0.173,0.003,0.259,0.003h229.626c0.086,0,0.173-0.001,0.259-0.003
			c1.443-0.039,8.917-0.585,14.251-7.472c3.068-3.958,4.624-9.019,4.624-15.039V42.321c0-16.137-11.288-22.302-18.876-22.508
			c-0.086-0.002-0.172-0.003-0.258-0.003h-0.514c-0.044,0-0.087,0-0.131,0H36.33c-0.085,0-0.171,0.001-0.258,0.004
			c-7.587,0.226-18.875,6.372-18.875,22.511V54.11c-0.005,0.126-0.008,0.251-0.008,0.378v300.454c0,0.126,0.003,0.252,0.008,0.377
			v9.427C17.196,380.883,28.484,387.048,36.071,387.255z"/>
		<path style="fill:#E2E2E2;" d="M35.086,386.269c0.086,0.002,0.172,0.004,0.259,0.004H264.97c0.086,0,0.172-0.001,0.259-0.004
			c1.443-0.04,8.917-0.585,14.251-7.472c3.068-3.958,4.624-9.019,4.624-15.039V41.336c0-16.138-11.288-22.302-18.876-22.508
			c-0.086-0.003-0.171-0.004-0.258-0.004h-0.514c-0.044,0-0.087,0-0.131,0.001H35.345c-0.087,0-0.172,0.001-0.259,0.003
			C27.5,19.054,16.211,25.2,16.211,41.338v11.786c-0.005,0.125-0.008,0.251-0.008,0.378v300.454c0,0.126,0.003,0.252,0.008,0.377
			v9.427C16.211,379.897,27.499,386.063,35.086,386.269z"/>
		<path style="fill:#D4D4D4;" d="M34.101,385.284c0.086,0.003,0.172,0.004,0.259,0.004h229.625c0.086,0,0.172-0.001,0.259-0.004
			c1.444-0.039,8.917-0.585,14.251-7.472c3.068-3.959,4.624-9.019,4.624-15.039V40.35c0-16.137-11.288-22.302-18.876-22.508
			c-0.086-0.002-0.172-0.004-0.258-0.004h-0.514c-0.044,0-0.087,0-0.13,0.001H34.359c-0.086,0-0.172,0.001-0.259,0.004
			c-7.586,0.225-18.875,6.372-18.875,22.51v11.786c-0.005,0.125-0.007,0.251-0.007,0.378v300.454c0,0.126,0.002,0.253,0.007,0.378
			v9.426C15.226,378.912,26.514,385.078,34.101,385.284z"/>
		<path style="fill:#C5C5C5;" d="M33.115,384.298c0.086,0.002,0.172,0.004,0.259,0.004h229.625c0.086,0,0.172-0.002,0.259-0.004
			c1.444-0.039,8.917-0.585,14.251-7.472c3.068-3.958,4.624-9.019,4.624-15.04V39.365c0-16.138-11.288-22.302-18.876-22.508
			c-0.086-0.003-0.172-0.004-0.258-0.004h-0.514c-0.044,0-0.087,0-0.13,0.001H33.374c-0.086,0-0.172,0.001-0.259,0.004
			c-7.587,0.226-18.875,6.372-18.875,22.51v11.786c-0.005,0.125-0.007,0.251-0.007,0.378v300.454c0,0.126,0.002,0.252,0.007,0.377
			v9.427C14.24,377.927,25.528,384.092,33.115,384.298z"/>
		<path style="fill:#B7B7B7;" d="M32.13,383.314c0.086,0.002,0.173,0.003,0.259,0.003h229.625c0.086,0,0.172-0.001,0.259-0.003
			c1.445-0.04,8.918-0.585,14.251-7.472c3.069-3.959,4.624-9.019,4.624-15.04V38.379c0-16.138-11.289-22.302-18.875-22.508
			c-0.086-0.002-0.172-0.004-0.259-0.004h-0.514c-0.044,0-0.087,0-0.13,0.001H32.389c-0.086,0-0.173,0.001-0.259,0.004
			c-7.587,0.226-18.875,6.372-18.875,22.511v11.786c-0.005,0.126-0.007,0.251-0.007,0.378v300.455c0,0.126,0.002,0.252,0.007,0.377
			v9.427C13.255,376.941,24.543,383.107,32.13,383.314z"/>
		<path style="fill:#A8A8A8;" d="M31.145,382.328c0.086,0.002,0.173,0.004,0.258,0.004h229.625c0.086,0,0.172-0.001,0.259-0.004
			c1.445-0.04,8.917-0.585,14.251-7.472c3.069-3.958,4.625-9.019,4.625-15.04V37.394c0-16.137-11.288-22.302-18.875-22.508
			c-0.087-0.002-0.172-0.003-0.259-0.003h-0.514c-0.043,0-0.087,0-0.13,0.001H31.403c-0.086,0-0.172,0.001-0.258,0.003
			c-7.587,0.226-18.875,6.372-18.875,22.511v11.786c-0.005,0.126-0.008,0.252-0.008,0.379v300.454c0,0.126,0.002,0.252,0.008,0.377
			v9.427C12.27,375.956,23.558,382.121,31.145,382.328z"/>
		<path style="fill:#9A9A9A;" d="M30.159,381.342c0.086,0.002,0.172,0.004,0.259,0.004h229.625c0.086,0,0.172-0.001,0.259-0.004
			c1.443-0.039,8.917-0.585,14.251-7.472c3.068-3.959,4.624-9.019,4.624-15.04V36.408c0-16.137-11.288-22.302-18.876-22.508
			c-0.086-0.002-0.172-0.004-0.258-0.004h-0.515c-0.043,0-0.087,0.001-0.13,0.001H30.418c-0.087,0-0.172,0.001-0.259,0.003
			c-7.587,0.226-18.875,6.372-18.875,22.511v11.786c-0.005,0.125-0.008,0.251-0.008,0.378V349.03c0,0.126,0.003,0.252,0.008,0.377
			v9.427C11.284,374.971,22.572,381.136,30.159,381.342z"/>
		<path style="fill:#8B8B8B;" d="M29.174,380.357c0.086,0.002,0.172,0.004,0.259,0.004h229.625c0.086,0,0.172-0.001,0.259-0.004
			c1.443-0.039,8.916-0.585,14.251-7.472c3.068-3.959,4.624-9.019,4.624-15.04V35.423c0-16.138-11.288-22.302-18.876-22.508
			c-0.086-0.003-0.172-0.004-0.258-0.004h-0.514c-0.043,0-0.087,0-0.131,0.001H29.433c-0.086,0-0.172,0.001-0.259,0.004
			c-7.587,0.225-18.875,6.372-18.875,22.51v11.786c-0.005,0.125-0.007,0.252-0.007,0.378v300.454c0,0.126,0.002,0.252,0.007,0.377
			v9.427C10.299,373.985,21.587,380.151,29.174,380.357z"/>
		<path style="fill:#7D7D7D;" d="M28.188,379.372c0.087,0.002,0.172,0.003,0.259,0.003h229.625c0.086,0,0.172-0.001,0.259-0.003
			c1.443-0.04,8.916-0.585,14.251-7.473c3.068-3.958,4.624-9.018,4.624-15.039V34.438c0-16.138-11.288-22.302-18.876-22.508
			c-0.086-0.002-0.172-0.004-0.258-0.004h-0.514c-0.043,0-0.087,0-0.131,0.001H28.447c-0.086,0-0.171,0.001-0.258,0.004
			c-7.587,0.226-18.875,6.371-18.875,22.51v11.786c-0.005,0.126-0.008,0.252-0.008,0.378v300.454c0,0.127,0.003,0.252,0.008,0.377
			v9.427C9.314,372.999,20.601,379.165,28.188,379.372z"/>
		<path style="fill:#6E6E6E;" d="M27.203,378.386c0.086,0.002,0.172,0.003,0.259,0.003h229.626c0.086,0,0.172-0.001,0.258-0.003
			c1.444-0.04,8.917-0.585,14.251-7.472c3.068-3.958,4.624-9.019,4.624-15.04V33.452c0-16.138-11.288-22.302-18.876-22.508
			c-0.086-0.003-0.172-0.003-0.258-0.003h-0.514c-0.044,0-0.088,0-0.131,0.001H27.462c-0.087,0-0.171,0.001-0.258,0.003
			c-7.587,0.226-18.875,6.372-18.875,22.511v11.786c-0.005,0.126-0.008,0.251-0.008,0.378v300.455c0,0.126,0.002,0.252,0.008,0.377
			v9.427C8.328,372.015,19.616,378.18,27.203,378.386z"/>
		<path style="fill:#606060;" d="M26.217,377.401c0.087,0.002,0.172,0.004,0.259,0.004h229.625c0.086,0,0.172-0.001,0.259-0.004
			c1.444-0.04,8.917-0.585,14.251-7.472c3.069-3.958,4.625-9.018,4.625-15.039V32.467c0-16.137-11.288-22.302-18.876-22.508
			c-0.086-0.002-0.172-0.003-0.258-0.003h-0.514c-0.044,0-0.087,0-0.13,0.001H26.477c-0.087,0-0.172,0.001-0.259,0.003
			C18.63,10.166,7.343,16.331,7.343,32.47v11.786c-0.005,0.126-0.008,0.251-0.008,0.378v300.454c0,0.126,0.002,0.252,0.008,0.377
			v9.427C7.343,371.029,18.63,377.194,26.217,377.401z"/>
	</g>
	<path style="fill:#FFFFFF;" d="M26.217,377.401c0.087,0.002,0.172,0.004,0.259,0.004h229.625c0.086,0,0.172-0.001,0.259-0.004
		c1.444-0.04,8.917-0.585,14.251-7.472c3.069-3.958,4.625-9.018,4.625-15.039V32.467c0-16.137-11.288-22.302-18.876-22.508
		c-0.086-0.002-0.172-0.003-0.258-0.003h-0.514c-0.044,0-0.087,0-0.13,0.001H26.477c-0.087,0-0.172,0.001-0.259,0.003
		C18.63,10.166,7.343,16.331,7.343,32.47v11.786c-0.005,0.126-0.008,0.251-0.008,0.378v300.454c0,0.126,0.002,0.252,0.008,0.377
		v9.427C7.343,371.029,18.63,377.194,26.217,377.401z"/>
	<g>
		<g>
			<g>
				<path style="fill:#FFFFFF;" d="M256.101,19.456H145.975h-9.373H26.477c0,0-9.634,0.262-9.634,13.014v86.915v148.59v86.917
					c0,12.751,9.634,13.013,9.634,13.013h110.125h9.373h110.126c0,0,9.633-0.262,9.633-13.013v-86.917v-148.59V32.47
					C265.734,19.718,256.101,19.456,256.101,19.456z"/>
				<defs>
					<filter id="Adobe_OpacityMaskFilter" filterUnits="userSpaceOnUse" x="16.843" y="207.504" width="248.891" height="160.401">
						<feFlood  style="flood-color:white;flood-opacity:1" result="back"/>
						<feBlend  in="SourceGraphic" in2="back" mode="normal"/>
					</filter>
				</defs>
				<mask maskUnits="userSpaceOnUse" x="16.843" y="207.504" width="248.891" height="160.401" id="SVGID_1_">
					<g style="filter:url(#Adobe_OpacityMaskFilter);">
						<defs>
							
								<filter id="Adobe_OpacityMaskFilter_00000036964446271602371820000009371688346848052371_" filterUnits="userSpaceOnUse" x="16.843" y="207.504" width="248.891" height="160.401">
								<feFlood  style="flood-color:white;flood-opacity:1" result="back"/>
								<feBlend  in="SourceGraphic" in2="back" mode="normal"/>
							</filter>
						</defs>
						<mask maskUnits="userSpaceOnUse" x="16.843" y="207.504" width="248.891" height="160.401" id="SVGID_1_">
							<g style="filter:url(#Adobe_OpacityMaskFilter_00000036964446271602371820000009371688346848052371_);">
							</g>
						</mask>
						
							<radialGradient id="SVGID_00000166652992579669694750000010635742742343176628_" cx="137.437" cy="-99.3366" r="503.8682" gradientUnits="userSpaceOnUse">
							<stop  offset="0.6156" style="stop-color:#000000"/>
							<stop  offset="0.7516" style="stop-color:#020202"/>
							<stop  offset="0.8037" style="stop-color:#090909"/>
							<stop  offset="0.8413" style="stop-color:#151515"/>
							<stop  offset="0.8721" style="stop-color:#262626"/>
							<stop  offset="0.8986" style="stop-color:#3C3C3C"/>
							<stop  offset="0.9222" style="stop-color:#585858"/>
							<stop  offset="0.9436" style="stop-color:#797979"/>
							<stop  offset="0.9634" style="stop-color:#9F9F9F"/>
							<stop  offset="0.9817" style="stop-color:#CBCBCB"/>
							<stop  offset="0.9982" style="stop-color:#F9F9F9"/>
							<stop  offset="1" style="stop-color:#FFFFFF"/>
						</radialGradient>
						<path style="mask:url(#SVGID_1_);fill:url(#SVGID_00000166652992579669694750000010635742742343176628_);" d="
							M163.595,207.517c-48.918,0.011-97.835,0.031-146.752,0.051v147.324c0,12.751,9.634,13.013,9.634,13.013h229.625
							c0,0,9.633-0.262,9.633-13.013V207.504C231.687,207.508,197.642,207.51,163.595,207.517z"/>
					</g>
				</mask>
				
					<radialGradient id="SVGID_00000050653529049855170080000010354136195086290109_" cx="137.437" cy="-99.3366" r="503.8682" gradientUnits="userSpaceOnUse">
					<stop  offset="0.6156" style="stop-color:#FFFFFF"/>
					<stop  offset="0.7878" style="stop-color:#FDFDFD"/>
					<stop  offset="0.8537" style="stop-color:#F6F6F6"/>
					<stop  offset="0.9014" style="stop-color:#EAEAEA"/>
					<stop  offset="0.9403" style="stop-color:#D9D9D9"/>
					<stop  offset="0.9735" style="stop-color:#C3C3C3"/>
					<stop  offset="1" style="stop-color:#ABABAB"/>
				</radialGradient>
				<path style="fill:url(#SVGID_00000050653529049855170080000010354136195086290109_);" d="M163.595,207.517
					c-48.918,0.011-97.835,0.031-146.752,0.051v147.324c0,12.751,9.634,13.013,9.634,13.013h229.625c0,0,9.633-0.262,9.633-13.013
					V207.504C231.687,207.508,197.642,207.51,163.595,207.517z"/>
				<defs>
					
						<filter id="Adobe_OpacityMaskFilter_00000006675093863164388830000006820318014240488092_" filterUnits="userSpaceOnUse" x="16.843" y="19.456" width="248.891" height="173.937">
						<feFlood  style="flood-color:white;flood-opacity:1" result="back"/>
						<feBlend  in="SourceGraphic" in2="back" mode="normal"/>
					</filter>
				</defs>
				
					<mask maskUnits="userSpaceOnUse" x="16.843" y="19.456" width="248.891" height="173.937" id="SVGID_00000065780272926078907280000007747241280164217989_">
					<g style="filter:url(#Adobe_OpacityMaskFilter_00000006675093863164388830000006820318014240488092_);">
						<defs>
							
								<filter id="Adobe_OpacityMaskFilter_00000065060444546981848310000009823177232594423186_" filterUnits="userSpaceOnUse" x="16.843" y="19.456" width="248.891" height="173.937">
								<feFlood  style="flood-color:white;flood-opacity:1" result="back"/>
								<feBlend  in="SourceGraphic" in2="back" mode="normal"/>
							</filter>
						</defs>
						
							<mask maskUnits="userSpaceOnUse" x="16.843" y="19.456" width="248.891" height="173.937" id="SVGID_00000065780272926078907280000007747241280164217989_">
							<g style="filter:url(#Adobe_OpacityMaskFilter_00000065060444546981848310000009823177232594423186_);">
							</g>
						</mask>
						
							<radialGradient id="SVGID_00000132795181848716096790000004927668796419788966_" cx="142.4225" cy="341.0065" r="361.0517" gradientUnits="userSpaceOnUse">
							<stop  offset="0.6156" style="stop-color:#000000"/>
							<stop  offset="0.7096" style="stop-color:#020202"/>
							<stop  offset="0.7623" style="stop-color:#0A0A0A"/>
							<stop  offset="0.8047" style="stop-color:#181818"/>
							<stop  offset="0.8418" style="stop-color:#2C2C2C"/>
							<stop  offset="0.8752" style="stop-color:#464646"/>
							<stop  offset="0.9062" style="stop-color:#656565"/>
							<stop  offset="0.9352" style="stop-color:#8A8A8A"/>
							<stop  offset="0.9626" style="stop-color:#B6B6B6"/>
							<stop  offset="0.9879" style="stop-color:#E5E5E5"/>
							<stop  offset="1" style="stop-color:#FFFFFF"/>
						</radialGradient>
						
							<path style="mask:url(#SVGID_00000065780272926078907280000007747241280164217989_);fill:url(#SVGID_00000132795181848716096790000004927668796419788966_);" d="
							M16.843,193.303c20.945,0.016,41.891,0.031,62.836,0.043c60.364,0.035,120.725,0.039,181.088,0.046
							c1.656,0,3.312-0.001,4.967-0.001V32.47c0-12.752-9.633-13.014-9.633-13.014H26.477c0,0-9.634,0.262-9.634,13.014v86.915
							V193.303z"/>
					</g>
				</mask>
				
					<radialGradient id="SVGID_00000077285569995108895430000009507395102883709068_" cx="142.4225" cy="341.0065" r="361.0517" gradientUnits="userSpaceOnUse">
					<stop  offset="0.6156" style="stop-color:#FFFFFF"/>
					<stop  offset="0.747" style="stop-color:#FDFDFD"/>
					<stop  offset="0.8206" style="stop-color:#F5F5F5"/>
					<stop  offset="0.8799" style="stop-color:#E7E7E7"/>
					<stop  offset="0.9316" style="stop-color:#D3D3D3"/>
					<stop  offset="0.9778" style="stop-color:#BABABA"/>
					<stop  offset="1" style="stop-color:#ABABAB"/>
				</radialGradient>
				<path style="fill:url(#SVGID_00000077285569995108895430000009507395102883709068_);" d="M16.843,193.303
					c20.945,0.016,41.891,0.031,62.836,0.043c60.364,0.035,120.725,0.039,181.088,0.046c1.656,0,3.312-0.001,4.967-0.001V32.47
					c0-12.752-9.633-13.014-9.633-13.014H26.477c0,0-9.634,0.262-9.634,13.014v86.915V193.303z"/>
			</g>
			<g>
				<defs>
					
						<filter id="Adobe_OpacityMaskFilter_00000055671036987614766240000007682646102279499691_" filterUnits="userSpaceOnUse" x="21.426" y="19.455" width="244.31" height="348.449">
						<feFlood  style="flood-color:white;flood-opacity:1" result="back"/>
						<feBlend  in="SourceGraphic" in2="back" mode="normal"/>
					</filter>
				</defs>
				
					<mask maskUnits="userSpaceOnUse" x="21.426" y="19.455" width="244.31" height="348.449" id="SVGID_00000013911296651720578380000007772291727503587214_">
					<g style="filter:url(#Adobe_OpacityMaskFilter_00000055671036987614766240000007682646102279499691_);">
						<defs>
							
								<filter id="Adobe_OpacityMaskFilter_00000032609794709156813730000009515353363809717694_" filterUnits="userSpaceOnUse" x="21.426" y="19.455" width="244.31" height="348.449">
								<feFlood  style="flood-color:white;flood-opacity:1" result="back"/>
								<feBlend  in="SourceGraphic" in2="back" mode="normal"/>
							</filter>
						</defs>
						
							<mask maskUnits="userSpaceOnUse" x="21.426" y="19.455" width="244.31" height="348.449" id="SVGID_00000013911296651720578380000007772291727503587214_">
							<g style="filter:url(#Adobe_OpacityMaskFilter_00000032609794709156813730000009515353363809717694_);">
							</g>
						</mask>
						
							<radialGradient id="SVGID_00000110456548967127842050000017683402630408085435_" cx="6.1951" cy="19.2983" r="400.8945" gradientUnits="userSpaceOnUse">
							<stop  offset="0.0988" style="stop-color:#000000"/>
							<stop  offset="1" style="stop-color:#FFFFFF"/>
						</radialGradient>
						
							<path style="mask:url(#SVGID_00000013911296651720578380000007772291727503587214_);fill:url(#SVGID_00000110456548967127842050000017683402630408085435_);" d="
							M265.23,32.449v86.791v148.375l0.001,86.789c0,12.733-9.645,12.995-9.645,12.995H145.352h-9.383H25.729
							c0,0-2.078-0.059-4.304-1.392c2.482,1.822,5.049,1.897,5.049,1.897h110.128h9.372h110.126c0,0,9.634-0.262,9.634-13.015
							v-86.915v-148.59V32.467c0-12.75-9.634-13.012-9.634-13.012h-0.514C255.587,19.455,265.23,19.717,265.23,32.449z"/>
					</g>
				</mask>
				
					<radialGradient id="SVGID_00000117674434382490915950000011066401499869679775_" cx="6.1951" cy="19.2983" r="400.8945" gradientUnits="userSpaceOnUse">
					<stop  offset="0.0988" style="stop-color:#FFFFFF"/>
					<stop  offset="1" style="stop-color:#ABABAB"/>
				</radialGradient>
				<path style="fill:url(#SVGID_00000117674434382490915950000011066401499869679775_);" d="M265.23,32.449v86.791v148.375
					l0.001,86.789c0,12.733-9.645,12.995-9.645,12.995H145.352h-9.383H25.729c0,0-2.078-0.059-4.304-1.392
					c2.482,1.822,5.049,1.897,5.049,1.897h110.128h9.372h110.126c0,0,9.634-0.262,9.634-13.015v-86.915v-148.59V32.467
					c0-12.75-9.634-13.012-9.634-13.012h-0.514C255.587,19.455,265.23,19.717,265.23,32.449z"/>
			</g>
			<defs>
				
					<filter id="Adobe_OpacityMaskFilter_00000108293135605017528060000014327823856925378736_" filterUnits="userSpaceOnUse" x="16.843" y="19.456" width="244.309" height="348.449">
					<feFlood  style="flood-color:white;flood-opacity:1" result="back"/>
					<feBlend  in="SourceGraphic" in2="back" mode="normal"/>
				</filter>
			</defs>
			
				<mask maskUnits="userSpaceOnUse" x="16.843" y="19.456" width="244.309" height="348.449" id="SVGID_00000102530310480793974510000008425059499160324790_">
				<g style="filter:url(#Adobe_OpacityMaskFilter_00000108293135605017528060000014327823856925378736_);">
					<defs>
						
							<filter id="Adobe_OpacityMaskFilter_00000131343741838830605890000001196133541708508061_" filterUnits="userSpaceOnUse" x="16.843" y="19.456" width="244.309" height="348.449">
							<feFlood  style="flood-color:white;flood-opacity:1" result="back"/>
							<feBlend  in="SourceGraphic" in2="back" mode="normal"/>
						</filter>
					</defs>
					
						<mask maskUnits="userSpaceOnUse" x="16.843" y="19.456" width="244.309" height="348.449" id="SVGID_00000102530310480793974510000008425059499160324790_">
						<g style="filter:url(#Adobe_OpacityMaskFilter_00000131343741838830605890000001196133541708508061_);">
						</g>
					</mask>
					
						<radialGradient id="SVGID_00000011023913854181199660000017837781578139654819_" cx="84.8273" cy="120.8648" r="341.4542" gradientUnits="userSpaceOnUse">
						<stop  offset="0" style="stop-color:#000000"/>
						<stop  offset="0.0074" style="stop-color:#090909"/>
						<stop  offset="0.0477" style="stop-color:#373737"/>
						<stop  offset="0.0931" style="stop-color:#626262"/>
						<stop  offset="0.1419" style="stop-color:#888888"/>
						<stop  offset="0.195" style="stop-color:#A8A8A8"/>
						<stop  offset="0.2537" style="stop-color:#C4C4C4"/>
						<stop  offset="0.32" style="stop-color:#DADADA"/>
						<stop  offset="0.3974" style="stop-color:#EBEBEB"/>
						<stop  offset="0.4931" style="stop-color:#F6F6F6"/>
						<stop  offset="0.6274" style="stop-color:#FDFDFD"/>
						<stop  offset="1" style="stop-color:#FFFFFF"/>
					</radialGradient>
					
						<path style="mask:url(#SVGID_00000102530310480793974510000008425059499160324790_);fill:url(#SVGID_00000011023913854181199660000017837781578139654819_);" d="
						M17.346,354.911V268.12V119.745v-86.79c0-12.734,9.643-12.995,9.643-12.995h110.238h9.381h110.241c0,0,2.076,0.059,4.303,1.392
						c-2.483-1.821-5.05-1.896-5.05-1.896H145.975h-9.373H26.477c0,0-9.634,0.262-9.634,13.014v86.915v148.59v86.917
						c0,12.751,9.634,13.013,9.634,13.013h0.512C26.989,367.905,17.346,367.643,17.346,354.911z"/>
				</g>
			</mask>
			
				<radialGradient id="SVGID_00000102522286767821520020000008140501144712665240_" cx="84.8273" cy="120.8648" r="341.4542" gradientUnits="userSpaceOnUse">
				<stop  offset="0" style="stop-color:#FFFFFF"/>
				<stop  offset="0.1413" style="stop-color:#FFFFFF"/>
				<stop  offset="1" style="stop-color:#FFFFFF"/>
			</radialGradient>
			<path style="fill:url(#SVGID_00000102522286767821520020000008140501144712665240_);" d="M17.346,354.911V268.12V119.745v-86.79
				c0-12.734,9.643-12.995,9.643-12.995h110.238h9.381h110.241c0,0,2.076,0.059,4.303,1.392c-2.483-1.821-5.05-1.896-5.05-1.896
				H145.975h-9.373H26.477c0,0-9.634,0.262-9.634,13.014v86.915v148.59v86.917c0,12.751,9.634,13.013,9.634,13.013h0.512
				C26.989,367.905,17.346,367.643,17.346,354.911z"/>
			<g>
				<defs>
					
						<filter id="Adobe_OpacityMaskFilter_00000152256661663594749660000017367082304646443408_" filterUnits="userSpaceOnUse" x="16.835" y="44.634" width="0.505" height="300.454">
						<feFlood  style="flood-color:white;flood-opacity:1" result="back"/>
						<feBlend  in="SourceGraphic" in2="back" mode="normal"/>
					</filter>
				</defs>
				
					<mask maskUnits="userSpaceOnUse" x="16.835" y="44.634" width="0.505" height="300.454" id="SVGID_00000147198191811214809280000002738197491221973161_">
					<g style="filter:url(#Adobe_OpacityMaskFilter_00000152256661663594749660000017367082304646443408_);">
						<defs>
							
								<filter id="Adobe_OpacityMaskFilter_00000151513530530067742400000003095866700994354566_" filterUnits="userSpaceOnUse" x="16.835" y="44.634" width="0.505" height="300.454">
								<feFlood  style="flood-color:white;flood-opacity:1" result="back"/>
								<feBlend  in="SourceGraphic" in2="back" mode="normal"/>
							</filter>
						</defs>
						
							<mask maskUnits="userSpaceOnUse" x="16.835" y="44.634" width="0.505" height="300.454" id="SVGID_00000147198191811214809280000002738197491221973161_">
							<g style="filter:url(#Adobe_OpacityMaskFilter_00000151513530530067742400000003095866700994354566_);">
							</g>
						</mask>
						
							<radialGradient id="SVGID_00000088113741876036946510000004471281972688147645_" cx="341.1117" cy="19.2973" r="400.8553" gradientTransform="matrix(-1 0 0 1 617.418 0)" gradientUnits="userSpaceOnUse">
							<stop  offset="0.0988" style="stop-color:#000000"/>
							<stop  offset="1" style="stop-color:#FFFFFF"/>
						</radialGradient>
						
							<path style="mask:url(#SVGID_00000147198191811214809280000002738197491221973161_);fill:url(#SVGID_00000088113741876036946510000004471281972688147645_);" d="
							M16.835,44.634v300.454c0.167-0.608,0.332-1.217,0.503-1.825l0.001-75.649V50.081C17.167,48.265,16.999,46.449,16.835,44.634z
							"/>
					</g>
				</mask>
				
					<radialGradient id="SVGID_00000115500750292636219430000000033183382526948798_" cx="341.1117" cy="19.2973" r="400.8553" gradientTransform="matrix(-1 0 0 1 617.418 0)" gradientUnits="userSpaceOnUse">
					<stop  offset="0.0988" style="stop-color:#FFFFFF"/>
					<stop  offset="1" style="stop-color:#ABABAB"/>
				</radialGradient>
				<path style="fill:url(#SVGID_00000115500750292636219430000000033183382526948798_);" d="M16.835,44.634v300.454
					c0.167-0.608,0.332-1.217,0.503-1.825l0.001-75.649V50.081C17.167,48.265,16.999,46.449,16.835,44.634z"/>
			</g>
		</g>
		<g>
			<g>
				<g>
					<path d="M36.467,88.711c-0.542,6.476-4.193,11.011-4.193,11.011h4.193h4.194C40.661,99.722,37.009,95.187,36.467,88.711z"/>
					<path d="M42.544,81.379c-0.833,0-1.627,0.17-2.35,0.474c-0.02-0.02-0.037-0.037-0.055-0.056c1.46-1.11,2.404-2.864,2.404-4.839
						c0-3.357-2.721-6.076-6.077-6.076c-3.354,0-6.075,2.719-6.075,6.076c0,2.113,1.079,3.975,2.718,5.063
						c-0.818-0.41-1.741-0.642-2.718-0.642c-3.356,0-6.077,2.72-6.077,6.077c0,3.354,2.721,6.075,6.077,6.075
						c3.266,0,5.93-2.578,6.069-5.81c0.004,0.002,0.008,0.004,0.013,0.008c0.142,3.229,2.804,5.802,6.069,5.802
						c3.354,0,6.076-2.72,6.076-6.075C48.62,84.1,45.898,81.379,42.544,81.379z"/>
				</g>
				<path d="M46.126,35.195L33.32,64.33h-3.19v-1.079L41.99,38.144v-0.329h-9.681c-0.601,0-1.082,0.055-1.441,0.164
					c-0.358,0.11-0.66,0.269-0.902,0.474c-0.242,0.205-0.443,0.477-0.606,0.813c-0.161,0.338-0.381,1.006-0.66,2.002h-1.892
					l0.44-7.127h18.878V35.195z"/>
			</g>
			<g>
				<g>
					<path d="M246.199,297.734c0.542-6.476,4.194-11.011,4.194-11.011h-4.194h-4.194
						C242.005,286.723,245.657,291.258,246.199,297.734z"/>
					<path d="M240.122,305.065c0.833,0,1.628-0.17,2.35-0.474c0.019,0.019,0.037,0.037,0.055,0.056
						c-1.46,1.109-2.404,2.864-2.404,4.839c0,3.357,2.721,6.077,6.077,6.077c3.355,0,6.075-2.72,6.075-6.077
						c0-2.113-1.08-3.975-2.719-5.063c0.818,0.411,1.741,0.642,2.719,0.642c3.356,0,6.076-2.72,6.076-6.077
						c0-3.355-2.72-6.075-6.076-6.075c-3.267,0-5.931,2.579-6.069,5.81c-0.004-0.002-0.009-0.004-0.014-0.008
						c-0.143-3.229-2.804-5.803-6.069-5.803c-3.355,0-6.076,2.72-6.076,6.075C234.046,302.345,236.768,305.065,240.122,305.065z"/>
				</g>
				<path d="M236.54,351.249l12.806-29.134h3.189v1.078l-11.859,25.107v0.329h9.681c0.601,0,1.082-0.054,1.441-0.164
					c0.359-0.111,0.66-0.268,0.902-0.474c0.242-0.205,0.443-0.477,0.605-0.814c0.161-0.338,0.381-1.006,0.66-2.002h1.892
					l-0.44,7.128H236.54V351.249z"/>
			</g>
			<g>
				<g>
					<path d="M187.32,95.935c-1.075,12.853-8.323,21.854-8.323,21.854h8.323h8.323C195.644,117.789,188.398,108.788,187.32,95.935z"
						/>
					<path d="M199.381,81.383c-1.654,0-3.23,0.336-4.664,0.942c-0.036-0.037-0.072-0.074-0.107-0.113
						c2.898-2.201,4.771-5.682,4.771-9.604c0-6.661-5.399-12.058-12.061-12.058c-6.66,0-12.058,5.397-12.058,12.058
						c0,4.195,2.144,7.892,5.396,10.051c-1.624-0.815-3.456-1.275-5.396-1.275c-6.662,0-12.061,5.4-12.061,12.061
						c0,6.66,5.398,12.058,12.061,12.058c6.483,0,11.77-5.119,12.045-11.535c0.009,0.005,0.018,0.01,0.026,0.019
						c0.284,6.408,5.567,11.516,12.047,11.516c6.659,0,12.058-5.398,12.058-12.058C211.439,86.783,206.04,81.383,199.381,81.383z"/>
				</g>
				<g>
					<path d="M141.346,148.86c-1.075,12.853-8.323,21.854-8.323,21.854h8.323h8.322C149.668,170.714,142.422,161.713,141.346,148.86
						z"/>
					<path d="M153.406,134.308c-1.655,0-3.23,0.337-4.665,0.942c-0.036-0.037-0.072-0.074-0.107-0.113
						c2.898-2.202,4.771-5.682,4.771-9.605c0-6.661-5.399-12.058-12.061-12.058c-6.66,0-12.058,5.397-12.058,12.058
						c0,4.195,2.143,7.892,5.395,10.051c-1.624-0.815-3.456-1.276-5.395-1.276c-6.662,0-12.061,5.4-12.061,12.061
						c0,6.66,5.398,12.058,12.061,12.058c6.482,0,11.77-5.119,12.044-11.535c0.009,0.005,0.018,0.01,0.026,0.018
						c0.285,6.409,5.568,11.517,12.047,11.517c6.659,0,12.058-5.398,12.058-12.058C165.464,139.708,160.066,134.308,153.406,134.308
						z"/>
				</g>
				<g>
					<path d="M187.32,291.426c1.075-12.853,8.323-21.854,8.323-21.854h-8.323h-8.323
						C178.998,269.573,186.244,278.574,187.32,291.426z"/>
					<path d="M175.261,305.979c1.654,0,3.229-0.337,4.664-0.942c0.037,0.037,0.073,0.074,0.107,0.113
						c-2.897,2.202-4.77,5.682-4.77,9.605c0,6.661,5.399,12.058,12.06,12.058c6.66,0,12.059-5.397,12.059-12.058
						c0-4.196-2.144-7.892-5.396-10.052c1.624,0.815,3.456,1.276,5.396,1.276c6.661,0,12.06-5.4,12.06-12.061
						c0-6.661-5.398-12.059-12.06-12.059c-6.484,0-11.77,5.12-12.045,11.535c-0.01-0.005-0.018-0.011-0.026-0.019
						c-0.284-6.408-5.568-11.517-12.047-11.517c-6.66,0-12.059,5.398-12.059,12.059
						C163.202,300.579,168.601,305.979,175.261,305.979z"/>
				</g>
				<g>
					<path d="M95.371,95.935c-1.075,12.853-8.323,21.854-8.323,21.854h8.323h8.323C103.693,117.789,96.447,108.788,95.371,95.935z"
						/>
					<path d="M107.431,81.383c-1.654,0-3.229,0.336-4.664,0.942c-0.036-0.037-0.072-0.074-0.106-0.113
						c2.897-2.201,4.771-5.682,4.771-9.604c0-6.661-5.399-12.058-12.06-12.058c-6.66,0-12.058,5.397-12.058,12.058
						c0,4.195,2.144,7.892,5.396,10.051c-1.625-0.815-3.456-1.275-5.396-1.275c-6.662,0-12.06,5.4-12.06,12.061
						c0,6.66,5.398,12.058,12.06,12.058c6.483,0,11.77-5.119,12.045-11.535c0.01,0.005,0.018,0.01,0.026,0.019
						c0.285,6.408,5.568,11.516,12.047,11.516c6.659,0,12.059-5.398,12.059-12.058C119.489,86.783,114.09,81.383,107.431,81.383z"/>
				</g>
				<g>
					<path d="M187.32,200.447c-1.075,12.852-8.323,21.854-8.323,21.854h8.323h8.323C195.644,222.3,188.398,213.299,187.32,200.447z"
						/>
					<path d="M199.381,185.895c-1.654,0-3.23,0.336-4.664,0.942c-0.036-0.037-0.072-0.074-0.107-0.113
						c2.898-2.202,4.771-5.683,4.771-9.604c0-6.661-5.399-12.058-12.061-12.058c-6.66,0-12.058,5.397-12.058,12.058
						c0,4.195,2.144,7.892,5.396,10.051c-1.624-0.815-3.456-1.276-5.396-1.276c-6.662,0-12.061,5.4-12.061,12.061
						c0,6.66,5.398,12.058,12.061,12.058c6.483,0,11.77-5.119,12.045-11.535c0.009,0.005,0.018,0.011,0.026,0.019
						c0.284,6.408,5.567,11.516,12.047,11.516c6.659,0,12.058-5.398,12.058-12.058C211.439,191.295,206.04,185.895,199.381,185.895z
						"/>
				</g>
				<g>
					<path d="M95.371,200.447c-1.075,12.852-8.323,21.854-8.323,21.854h8.323h8.323C103.693,222.3,96.447,213.299,95.371,200.447z"
						/>
					<path d="M107.431,185.895c-1.654,0-3.229,0.336-4.664,0.942c-0.036-0.037-0.072-0.074-0.106-0.113
						c2.897-2.202,4.771-5.683,4.771-9.604c0-6.661-5.399-12.058-12.06-12.058c-6.66,0-12.058,5.397-12.058,12.058
						c0,4.195,2.144,7.892,5.396,10.051c-1.625-0.815-3.456-1.276-5.396-1.276c-6.662,0-12.06,5.4-12.06,12.061
						c0,6.66,5.398,12.058,12.06,12.058c6.483,0,11.77-5.119,12.045-11.535c0.01,0.005,0.018,0.011,0.026,0.019
						c0.285,6.408,5.568,11.516,12.047,11.516c6.659,0,12.059-5.398,12.059-12.058C119.489,191.295,114.09,185.895,107.431,185.895z
						"/>
				</g>
				<g>
					<path d="M95.371,291.426c1.076-12.853,8.323-21.854,8.323-21.854h-8.323h-8.323C87.048,269.573,94.294,278.574,95.371,291.426z
						"/>
					<path d="M83.31,305.979c1.655,0,3.231-0.337,4.665-0.942c0.036,0.037,0.072,0.074,0.107,0.113
						c-2.898,2.202-4.771,5.682-4.771,9.605c0,6.661,5.4,12.058,12.061,12.058c6.66,0,12.058-5.397,12.058-12.058
						c0-4.196-2.144-7.892-5.396-10.052c1.625,0.815,3.457,1.276,5.396,1.276c6.661,0,12.061-5.4,12.061-12.061
						c0-6.661-5.399-12.059-12.061-12.059c-6.483,0-11.771,5.12-12.045,11.535c-0.009-0.005-0.017-0.011-0.026-0.019
						c-0.284-6.408-5.568-11.517-12.047-11.517c-6.659,0-12.058,5.398-12.058,12.059C71.253,300.579,76.651,305.979,83.31,305.979z"
						/>
				</g>
			</g>
		</g>
	</g>
</g>
</svg>
