<?xml version="1.0" encoding="utf-8"?>
<!-- Generator: Adobe Illustrator 27.5.0, SVG Export Plug-In . SVG Version: 6.00 Build 0)  -->
<svg version="1.1" id="Layer_1" xmlns="http://www.w3.org/2000/svg" xmlns:xlink="http://www.w3.org/1999/xlink" x="0px" y="0px"
	 viewBox="0 0 293.412 398.198" style="enable-background:new 0 0 293.412 398.198;" xml:space="preserve">
<g>
	<g>
		<path style="fill:#FFFFFF;" d="M37.057,388.24c0.086,0.004,0.172,0.004,0.259,0.004h229.626c0.086,0,0.172,0,0.259-0.004
			c1.444-0.039,8.915-0.584,14.252-7.472h0c3.068-3.962,4.623-9.02,4.623-15.038V43.307c0-16.137-11.288-22.301-18.875-22.508
			c-0.086-0.002-0.172-0.004-0.259-0.004h-0.514c-0.044,0-0.087,0-0.13,0.002H37.316c-0.086,0-0.172,0-0.258,0.003
			c-7.587,0.206-18.876,6.37-18.876,22.511v11.784c-0.005,0.126-0.007,0.253-0.007,0.38V355.93c0,0.137,0.003,0.274,0.009,0.412
			v9.39C18.184,381.869,29.471,388.034,37.057,388.24z"/>
		<path style="fill:#F1F1F1;" d="M36.072,387.255c0.086,0.003,0.172,0.004,0.259,0.004h229.626c0.086,0,0.172-0.001,0.258-0.004
			c1.444-0.042,8.915-0.584,14.252-7.472c0.001,0,0.001,0,0.001,0c3.068-3.961,4.623-9.021,4.623-15.039V42.32
			c0-16.136-11.288-22.281-18.876-22.508c-0.086-0.001-0.172-0.003-0.258-0.003h-0.514c-0.043,0-0.086,0-0.13,0.001H36.331
			c-0.086,0-0.172,0.001-0.258,0.004c-7.587,0.226-18.876,6.37-18.876,22.51v11.785c-0.005,0.125-0.008,0.252-0.008,0.381v300.453
			c0,0.138,0.003,0.275,0.01,0.412v9.391C17.198,380.884,28.486,387.029,36.072,387.255z"/>
		<path style="fill:#E2E2E2;" d="M35.086,386.27c0.087,0.003,0.173,0.004,0.26,0.004h229.625c0.086,0,0.173-0.001,0.259-0.004
			c1.444-0.042,8.915-0.584,14.252-7.472l0-0.001c3.068-3.96,4.624-9.02,4.624-15.038V41.336c0-16.137-11.289-22.281-18.876-22.508
			c-0.086-0.002-0.172-0.004-0.259-0.004h-0.513c-0.044,0-0.087,0-0.13,0.001H35.346c-0.086,0-0.173,0.001-0.259,0.003
			C27.5,19.055,16.211,25.199,16.211,41.34v11.784c-0.005,0.126-0.007,0.253-0.007,0.38v300.454c0,0.138,0.003,0.275,0.009,0.412
			v9.392C16.213,379.898,27.5,386.045,35.086,386.27z"/>
		<path style="fill:#D4D4D4;" d="M34.101,385.285c0.086,0.002,0.173,0.003,0.259,0.003h229.626c0.086,0,0.173-0.001,0.259-0.003
			c1.444-0.043,8.915-0.585,14.252-7.473c0.001,0,0.001-0.001,0.001-0.001c3.068-3.96,4.623-9.018,4.623-15.038V40.351
			c0-16.137-11.288-22.282-18.876-22.508c-0.086-0.003-0.172-0.004-0.259-0.004h-0.513c-0.043,0-0.087,0-0.13,0.001H34.359
			c-0.085,0-0.172,0.001-0.258,0.004c-7.587,0.226-18.876,6.37-18.876,22.51v11.785c-0.005,0.125-0.007,0.253-0.007,0.38v300.454
			c0,0.139,0.002,0.275,0.009,0.412v9.392C15.227,378.913,26.515,385.06,34.101,385.285z"/>
		<path style="fill:#C5C5C5;" d="M33.116,384.3c0.086,0.003,0.172,0.003,0.259,0.003H263c0.086,0,0.172,0,0.259-0.003
			c1.444-0.043,8.915-0.585,14.251-7.473c0.001,0,0.001-0.001,0.001-0.001c3.068-3.96,4.623-9.02,4.623-15.038V39.365
			c0-16.137-11.289-22.282-18.875-22.508c-0.086-0.003-0.173-0.004-0.259-0.004h-0.514c-0.043,0-0.087,0-0.13,0.001H33.375
			c-0.086,0-0.172,0.001-0.258,0.004c-7.587,0.226-18.876,6.37-18.876,22.511v11.785c-0.005,0.125-0.007,0.252-0.007,0.379v300.454
			c0,0.139,0.003,0.275,0.009,0.412v9.392C14.242,377.928,25.529,384.073,33.116,384.3z"/>
		<path style="fill:#B7B7B7;" d="M32.13,383.315c0.087,0.002,0.173,0.004,0.259,0.004h229.626c0.086,0,0.172-0.002,0.259-0.004
			c1.443-0.043,8.915-0.585,14.252-7.473h0c3.067-3.961,4.623-9.02,4.623-15.039V38.38c0-16.136-11.289-22.282-18.875-22.508
			c-0.086-0.003-0.172-0.004-0.259-0.004h-0.514c-0.043,0-0.086,0-0.13,0.001H32.389c-0.085,0-0.172,0.001-0.258,0.004
			c-7.587,0.226-18.876,6.371-18.876,22.511v11.784c-0.005,0.126-0.007,0.253-0.007,0.38v300.454c0,0.139,0.002,0.275,0.008,0.412
			v9.392C13.256,376.942,24.544,383.088,32.13,383.315z"/>
		<path style="fill:#A8A8A8;" d="M31.145,382.329c0.086,0.002,0.173,0.004,0.259,0.004h229.626c0.087,0,0.173-0.002,0.259-0.004
			c1.444-0.043,8.915-0.585,14.252-7.472c0,0,0-0.002,0-0.002c3.068-3.96,4.624-9.019,4.624-15.039V37.395
			c0-16.136-11.289-22.282-18.876-22.508c-0.086-0.003-0.172-0.004-0.259-0.004h-0.514c-0.043,0-0.086,0-0.13,0.001H31.403
			c-0.086,0-0.172,0.001-0.258,0.004c-7.587,0.226-18.876,6.371-18.876,22.511v11.785c-0.005,0.125-0.008,0.252-0.008,0.379v300.454
			c0,0.139,0.003,0.276,0.009,0.412v9.392C12.271,375.957,23.559,382.103,31.145,382.329z"/>
		<path style="fill:#9A9A9A;" d="M30.159,381.344c0.086,0.002,0.173,0.004,0.259,0.004h229.626c0.086,0,0.173-0.002,0.259-0.004
			c1.444-0.043,8.915-0.584,14.252-7.472l0.001-0.002c3.068-3.96,4.624-9.02,4.624-15.039V36.408
			c0-16.135-11.289-22.281-18.876-22.507c-0.086-0.003-0.172-0.004-0.259-0.004h-0.513c-0.044,0-0.087,0-0.13,0H30.418
			c-0.085,0-0.172,0.002-0.258,0.004c-7.587,0.227-18.876,6.372-18.876,22.511v11.786c-0.005,0.124-0.007,0.252-0.007,0.378v300.455
			c0,0.139,0.002,0.275,0.009,0.411v9.393C11.286,374.972,22.573,381.117,30.159,381.344z"/>
		<path style="fill:#8B8B8B;" d="M29.174,380.358c0.087,0.002,0.173,0.004,0.259,0.004h229.625c0.086,0,0.173-0.002,0.259-0.004
			c1.444-0.044,8.915-0.585,14.251-7.472c0,0,0-0.002,0-0.002c3.068-3.96,4.624-9.02,4.624-15.039V35.423
			c0-16.136-11.289-22.281-18.875-22.507c-0.086-0.002-0.173-0.004-0.259-0.004h-0.513c-0.043,0-0.087,0-0.13,0H29.433
			c-0.086,0-0.172,0.002-0.258,0.004c-7.587,0.227-18.876,6.371-18.876,22.511v11.786c-0.005,0.124-0.007,0.252-0.007,0.379v300.453
			c0,0.14,0.002,0.277,0.009,0.412v9.393C10.3,373.986,21.588,380.132,29.174,380.358z"/>
		<path style="fill:#7D7D7D;" d="M28.189,379.372c0.086,0.003,0.172,0.004,0.259,0.004h229.626c0.086,0,0.172-0.001,0.258-0.004
			c1.444-0.042,8.915-0.584,14.252-7.472l0-0.001c3.068-3.96,4.623-9.02,4.623-15.038V34.438c0-16.136-11.289-22.281-18.876-22.508
			c-0.086-0.002-0.172-0.004-0.258-0.004h-0.514c-0.043,0-0.087,0-0.131,0.002H28.448c-0.086,0-0.172,0.002-0.258,0.003
			c-7.587,0.226-18.876,6.371-18.876,22.511v11.785c-0.005,0.125-0.008,0.252-0.008,0.379v300.455c0,0.138,0.003,0.275,0.009,0.412
			v9.392C9.315,373,20.603,379.147,28.189,379.372z"/>
		<path style="fill:#6E6E6E;" d="M27.203,378.387c0.086,0.003,0.173,0.004,0.259,0.004h229.626c0.086,0,0.172-0.001,0.259-0.004
			c1.444-0.043,8.915-0.584,14.252-7.472l0-0.001c3.068-3.961,4.623-9.02,4.623-15.039V33.453c0-16.137-11.289-22.283-18.875-22.508
			c-0.086-0.003-0.172-0.004-0.259-0.004h-0.514c-0.043,0-0.086,0-0.13,0.001H27.462c-0.086,0-0.172,0.001-0.258,0.003
			c-7.586,0.227-18.876,6.371-18.876,22.511v11.785c-0.005,0.125-0.008,0.253-0.008,0.38v300.454c0,0.138,0.003,0.275,0.009,0.411
			v9.393C8.329,372.016,19.618,378.162,27.203,378.387z"/>
		<path style="fill:#606060;" d="M26.218,377.402c0.086,0.002,0.173,0.003,0.259,0.003h229.626c0.086,0,0.173-0.001,0.259-0.003
			c1.444-0.039,8.915-0.585,14.252-7.473c0,0,0-0.001,0-0.001c3.068-3.96,4.624-9.02,4.624-15.038V32.467
			c0-16.136-11.289-22.301-18.876-22.508c-0.086-0.002-0.172-0.003-0.259-0.003h-0.514c-0.044,0-0.086,0-0.13,0.001H26.477
			c-0.086,0-0.172,0.001-0.258,0.004c-7.587,0.205-18.876,6.37-18.876,22.51v11.785c-0.005,0.125-0.008,0.252-0.008,0.38V345.09
			c0,0.139,0.003,0.275,0.009,0.412v9.391C7.344,371.03,18.631,377.195,26.218,377.402z"/>
	</g>
	<path style="fill:#FFFFFF;" d="M26.218,377.402c0.086,0.002,0.173,0.003,0.259,0.003h229.626c0.086,0,0.173-0.001,0.259-0.003
		c1.444-0.039,8.915-0.585,14.252-7.473c0,0,0-0.001,0-0.001c3.068-3.96,4.624-9.02,4.624-15.038V32.467
		c0-16.136-11.289-22.301-18.876-22.508c-0.086-0.002-0.172-0.003-0.259-0.003h-0.514c-0.044,0-0.086,0-0.13,0.001H26.477
		c-0.086,0-0.172,0.001-0.258,0.004c-7.587,0.205-18.876,6.37-18.876,22.51v11.785c-0.005,0.125-0.008,0.252-0.008,0.38V345.09
		c0,0.139,0.003,0.275,0.009,0.412v9.391C7.344,371.03,18.631,377.195,26.218,377.402z"/>
	<g>
		<g>
			<g>
				<path style="fill:#FFFFFF;" d="M256.103,19.457H145.976h-9.373H26.477c0,0-9.634,0.262-9.634,13.014l0.001,86.915v148.59v86.917
					c0,12.75,9.633,13.013,9.633,13.013h110.127h9.373h110.126c0,0,9.633-0.263,9.633-13.013v-86.917v-148.59V32.471
					C265.735,19.719,256.103,19.457,256.103,19.457z"/>
				<defs>
					<filter id="Adobe_OpacityMaskFilter" filterUnits="userSpaceOnUse" x="16.844" y="207.505" width="248.892" height="160.4">
						<feFlood  style="flood-color:white;flood-opacity:1" result="back"/>
						<feBlend  in="SourceGraphic" in2="back" mode="normal"/>
					</filter>
				</defs>
				<mask maskUnits="userSpaceOnUse" x="16.844" y="207.505" width="248.892" height="160.4" id="SVGID_1_">
					<g style="filter:url(#Adobe_OpacityMaskFilter);">
						<defs>
							
								<filter id="Adobe_OpacityMaskFilter_00000140721745056643545600000009284352351209443499_" filterUnits="userSpaceOnUse" x="16.844" y="207.505" width="248.892" height="160.4">
								<feFlood  style="flood-color:white;flood-opacity:1" result="back"/>
								<feBlend  in="SourceGraphic" in2="back" mode="normal"/>
							</filter>
						</defs>
						<mask maskUnits="userSpaceOnUse" x="16.844" y="207.505" width="248.892" height="160.4" id="SVGID_1_">
							<g style="filter:url(#Adobe_OpacityMaskFilter_00000140721745056643545600000009284352351209443499_);">
							</g>
						</mask>
						
							<radialGradient id="SVGID_00000083058949932081087690000002836164738475188911_" cx="137.4382" cy="-99.3346" r="503.8668" gradientUnits="userSpaceOnUse">
							<stop  offset="0.6156" style="stop-color:#000000"/>
							<stop  offset="0.7516" style="stop-color:#020202"/>
							<stop  offset="0.8037" style="stop-color:#090909"/>
							<stop  offset="0.8413" style="stop-color:#151515"/>
							<stop  offset="0.8721" style="stop-color:#262626"/>
							<stop  offset="0.8986" style="stop-color:#3C3C3C"/>
							<stop  offset="0.9222" style="stop-color:#585858"/>
							<stop  offset="0.9436" style="stop-color:#797979"/>
							<stop  offset="0.9634" style="stop-color:#9F9F9F"/>
							<stop  offset="0.9817" style="stop-color:#CBCBCB"/>
							<stop  offset="0.9982" style="stop-color:#F9F9F9"/>
							<stop  offset="1" style="stop-color:#FFFFFF"/>
						</radialGradient>
						<path style="mask:url(#SVGID_1_);fill:url(#SVGID_00000083058949932081087690000002836164738475188911_);" d="
							M163.595,207.518c-48.918,0.011-97.834,0.031-146.751,0.051v147.324c0,12.75,9.633,13.013,9.633,13.013h229.626
							c0,0,9.633-0.263,9.633-13.013V207.505C231.689,207.509,197.642,207.511,163.595,207.518z"/>
					</g>
				</mask>
				
					<radialGradient id="SVGID_00000125586925400950394540000010074288094146370974_" cx="137.4382" cy="-99.3346" r="503.8668" gradientUnits="userSpaceOnUse">
					<stop  offset="0.6156" style="stop-color:#FFFFFF"/>
					<stop  offset="0.7878" style="stop-color:#FDFDFD"/>
					<stop  offset="0.8537" style="stop-color:#F6F6F6"/>
					<stop  offset="0.9014" style="stop-color:#EAEAEA"/>
					<stop  offset="0.9403" style="stop-color:#D9D9D9"/>
					<stop  offset="0.9735" style="stop-color:#C3C3C3"/>
					<stop  offset="1" style="stop-color:#ABABAB"/>
				</radialGradient>
				<path style="fill:url(#SVGID_00000125586925400950394540000010074288094146370974_);" d="M163.595,207.518
					c-48.918,0.011-97.834,0.031-146.751,0.051v147.324c0,12.75,9.633,13.013,9.633,13.013h229.626c0,0,9.633-0.263,9.633-13.013
					V207.505C231.689,207.509,197.642,207.511,163.595,207.518z"/>
				<defs>
					
						<filter id="Adobe_OpacityMaskFilter_00000029727647864750172450000004651216244511598733_" filterUnits="userSpaceOnUse" x="16.843" y="19.457" width="248.893" height="173.938">
						<feFlood  style="flood-color:white;flood-opacity:1" result="back"/>
						<feBlend  in="SourceGraphic" in2="back" mode="normal"/>
					</filter>
				</defs>
				
					<mask maskUnits="userSpaceOnUse" x="16.843" y="19.457" width="248.893" height="173.938" id="SVGID_00000060747320994030244720000008975461178168771254_">
					<g style="filter:url(#Adobe_OpacityMaskFilter_00000029727647864750172450000004651216244511598733_);">
						<defs>
							
								<filter id="Adobe_OpacityMaskFilter_00000060737998365245559670000001178964732368156334_" filterUnits="userSpaceOnUse" x="16.843" y="19.457" width="248.893" height="173.938">
								<feFlood  style="flood-color:white;flood-opacity:1" result="back"/>
								<feBlend  in="SourceGraphic" in2="back" mode="normal"/>
							</filter>
						</defs>
						
							<mask maskUnits="userSpaceOnUse" x="16.843" y="19.457" width="248.893" height="173.938" id="SVGID_00000060747320994030244720000008975461178168771254_">
							<g style="filter:url(#Adobe_OpacityMaskFilter_00000060737998365245559670000001178964732368156334_);">
							</g>
						</mask>
						
							<radialGradient id="SVGID_00000176751916259860146630000011677857338436333189_" cx="142.4233" cy="341.0083" r="361.0532" gradientUnits="userSpaceOnUse">
							<stop  offset="0.6156" style="stop-color:#000000"/>
							<stop  offset="0.7096" style="stop-color:#020202"/>
							<stop  offset="0.7623" style="stop-color:#0A0A0A"/>
							<stop  offset="0.8047" style="stop-color:#181818"/>
							<stop  offset="0.8418" style="stop-color:#2C2C2C"/>
							<stop  offset="0.8752" style="stop-color:#464646"/>
							<stop  offset="0.9062" style="stop-color:#656565"/>
							<stop  offset="0.9352" style="stop-color:#8A8A8A"/>
							<stop  offset="0.9626" style="stop-color:#B6B6B6"/>
							<stop  offset="0.9879" style="stop-color:#E5E5E5"/>
							<stop  offset="1" style="stop-color:#FFFFFF"/>
						</radialGradient>
						
							<path style="mask:url(#SVGID_00000060747320994030244720000008975461178168771254_);fill:url(#SVGID_00000176751916259860146630000011677857338436333189_);" d="
							M16.844,193.304c20.946,0.017,41.891,0.032,62.837,0.044c60.362,0.034,120.724,0.038,181.087,0.047
							c1.656,0,3.311-0.002,4.968-0.002V32.471c0-12.752-9.633-13.014-9.633-13.014H26.477c0,0-9.634,0.262-9.634,13.014
							l0.001,86.915V193.304z"/>
					</g>
				</mask>
				
					<radialGradient id="SVGID_00000085930281473426007830000000734841878828265662_" cx="142.4233" cy="341.0083" r="361.0532" gradientUnits="userSpaceOnUse">
					<stop  offset="0.6156" style="stop-color:#FFFFFF"/>
					<stop  offset="0.747" style="stop-color:#FDFDFD"/>
					<stop  offset="0.8206" style="stop-color:#F5F5F5"/>
					<stop  offset="0.8799" style="stop-color:#E7E7E7"/>
					<stop  offset="0.9316" style="stop-color:#D3D3D3"/>
					<stop  offset="0.9778" style="stop-color:#BABABA"/>
					<stop  offset="1" style="stop-color:#ABABAB"/>
				</radialGradient>
				<path style="fill:url(#SVGID_00000085930281473426007830000000734841878828265662_);" d="M16.844,193.304
					c20.946,0.017,41.891,0.032,62.837,0.044c60.362,0.034,120.724,0.038,181.087,0.047c1.656,0,3.311-0.002,4.968-0.002V32.471
					c0-12.752-9.633-13.014-9.633-13.014H26.477c0,0-9.634,0.262-9.634,13.014l0.001,86.915V193.304z"/>
			</g>
			<g>
				<defs>
					
						<filter id="Adobe_OpacityMaskFilter_00000143599956435970614680000010197765159286406590_" filterUnits="userSpaceOnUse" x="21.428" y="19.456" width="244.309" height="348.448">
						<feFlood  style="flood-color:white;flood-opacity:1" result="back"/>
						<feBlend  in="SourceGraphic" in2="back" mode="normal"/>
					</filter>
				</defs>
				
					<mask maskUnits="userSpaceOnUse" x="21.428" y="19.456" width="244.309" height="348.448" id="SVGID_00000129202802502417038730000008327885060825403324_">
					<g style="filter:url(#Adobe_OpacityMaskFilter_00000143599956435970614680000010197765159286406590_);">
						<defs>
							
								<filter id="Adobe_OpacityMaskFilter_00000091013677741206253990000012577199580383305364_" filterUnits="userSpaceOnUse" x="21.428" y="19.456" width="244.309" height="348.448">
								<feFlood  style="flood-color:white;flood-opacity:1" result="back"/>
								<feBlend  in="SourceGraphic" in2="back" mode="normal"/>
							</filter>
						</defs>
						
							<mask maskUnits="userSpaceOnUse" x="21.428" y="19.456" width="244.309" height="348.448" id="SVGID_00000129202802502417038730000008327885060825403324_">
							<g style="filter:url(#Adobe_OpacityMaskFilter_00000091013677741206253990000012577199580383305364_);">
							</g>
						</mask>
						
							<radialGradient id="SVGID_00000018195544423308658650000014849832567566987407_" cx="6.1971" cy="19.2993" r="400.8941" gradientUnits="userSpaceOnUse">
							<stop  offset="0.0988" style="stop-color:#000000"/>
							<stop  offset="1" style="stop-color:#FFFFFF"/>
						</radialGradient>
						
							<path style="mask:url(#SVGID_00000129202802502417038730000008327885060825403324_);fill:url(#SVGID_00000018195544423308658650000014849832567566987407_);" d="
							M265.232,32.449v86.791v148.375l0.001,86.79c0,12.733-9.645,12.995-9.645,12.995H145.353h-9.383H25.731
							c0,0-2.078-0.059-4.303-1.393c2.482,1.822,5.049,1.896,5.049,1.896h110.128h9.373h110.125c0,0,9.635-0.262,9.635-13.014
							v-86.916v-148.59V32.469c0-12.75-9.635-13.013-9.635-13.013h-0.514C255.589,19.456,265.232,19.718,265.232,32.449z"/>
					</g>
				</mask>
				
					<radialGradient id="SVGID_00000076597980804712730640000007482722405815057057_" cx="6.1971" cy="19.2993" r="400.8941" gradientUnits="userSpaceOnUse">
					<stop  offset="0.0988" style="stop-color:#FFFFFF"/>
					<stop  offset="1" style="stop-color:#ABABAB"/>
				</radialGradient>
				<path style="fill:url(#SVGID_00000076597980804712730640000007482722405815057057_);" d="M265.232,32.449v86.791v148.375
					l0.001,86.79c0,12.733-9.645,12.995-9.645,12.995H145.353h-9.383H25.731c0,0-2.078-0.059-4.303-1.393
					c2.482,1.822,5.049,1.896,5.049,1.896h110.128h9.373h110.125c0,0,9.635-0.262,9.635-13.014v-86.916v-148.59V32.469
					c0-12.75-9.635-13.013-9.635-13.013h-0.514C255.589,19.456,265.232,19.718,265.232,32.449z"/>
			</g>
			<defs>
				
					<filter id="Adobe_OpacityMaskFilter_00000098189753824333196700000009709782075441484931_" filterUnits="userSpaceOnUse" x="16.843" y="19.457" width="244.311" height="348.448">
					<feFlood  style="flood-color:white;flood-opacity:1" result="back"/>
					<feBlend  in="SourceGraphic" in2="back" mode="normal"/>
				</filter>
			</defs>
			
				<mask maskUnits="userSpaceOnUse" x="16.843" y="19.457" width="244.311" height="348.448" id="SVGID_00000029003941693766513400000016194958849395320727_">
				<g style="filter:url(#Adobe_OpacityMaskFilter_00000098189753824333196700000009709782075441484931_);">
					<defs>
						
							<filter id="Adobe_OpacityMaskFilter_00000150819867495680668430000012801415309304526252_" filterUnits="userSpaceOnUse" x="16.843" y="19.457" width="244.311" height="348.448">
							<feFlood  style="flood-color:white;flood-opacity:1" result="back"/>
							<feBlend  in="SourceGraphic" in2="back" mode="normal"/>
						</filter>
					</defs>
					
						<mask maskUnits="userSpaceOnUse" x="16.843" y="19.457" width="244.311" height="348.448" id="SVGID_00000029003941693766513400000016194958849395320727_">
						<g style="filter:url(#Adobe_OpacityMaskFilter_00000150819867495680668430000012801415309304526252_);">
						</g>
					</mask>
					
						<radialGradient id="SVGID_00000076582367143626603060000012061571806648554388_" cx="84.8278" cy="120.8656" r="341.4548" gradientUnits="userSpaceOnUse">
						<stop  offset="0" style="stop-color:#000000"/>
						<stop  offset="0.0074" style="stop-color:#090909"/>
						<stop  offset="0.0477" style="stop-color:#373737"/>
						<stop  offset="0.0931" style="stop-color:#626262"/>
						<stop  offset="0.1419" style="stop-color:#888888"/>
						<stop  offset="0.195" style="stop-color:#A8A8A8"/>
						<stop  offset="0.2537" style="stop-color:#C4C4C4"/>
						<stop  offset="0.32" style="stop-color:#DADADA"/>
						<stop  offset="0.3974" style="stop-color:#EBEBEB"/>
						<stop  offset="0.4931" style="stop-color:#F6F6F6"/>
						<stop  offset="0.6274" style="stop-color:#FDFDFD"/>
						<stop  offset="1" style="stop-color:#FFFFFF"/>
					</radialGradient>
					
						<path style="mask:url(#SVGID_00000029003941693766513400000016194958849395320727_);fill:url(#SVGID_00000076582367143626603060000012061571806648554388_);" d="
						M17.348,354.912V268.12V119.746v-86.79c0-12.733,9.643-12.995,9.643-12.995h110.237h9.381H256.85c0,0,2.076,0.059,4.303,1.393
						c-2.484-1.822-5.051-1.896-5.051-1.896H145.976h-9.373H26.477c0,0-9.634,0.262-9.634,13.014l0.001,86.915v148.59v86.917
						c0,12.75,9.633,13.013,9.633,13.013h0.514C26.991,367.905,17.348,367.644,17.348,354.912z"/>
				</g>
			</mask>
			
				<radialGradient id="SVGID_00000055666783104688788710000004043523968383702696_" cx="84.8278" cy="120.8656" r="341.4548" gradientUnits="userSpaceOnUse">
				<stop  offset="0" style="stop-color:#FFFFFF"/>
				<stop  offset="0.1413" style="stop-color:#FFFFFF"/>
				<stop  offset="1" style="stop-color:#FFFFFF"/>
			</radialGradient>
			<path style="fill:url(#SVGID_00000055666783104688788710000004043523968383702696_);" d="M17.348,354.912V268.12V119.746v-86.79
				c0-12.733,9.643-12.995,9.643-12.995h110.237h9.381H256.85c0,0,2.076,0.059,4.303,1.393c-2.484-1.822-5.051-1.896-5.051-1.896
				H145.976h-9.373H26.477c0,0-9.634,0.262-9.634,13.014l0.001,86.915v148.59v86.917c0,12.75,9.633,13.013,9.633,13.013h0.514
				C26.991,367.905,17.348,367.644,17.348,354.912z"/>
			<g>
				<defs>
					
						<filter id="Adobe_OpacityMaskFilter_00000129925643915436013390000013693111740072485031_" filterUnits="userSpaceOnUse" x="16.835" y="44.636" width="0.505" height="300.454">
						<feFlood  style="flood-color:white;flood-opacity:1" result="back"/>
						<feBlend  in="SourceGraphic" in2="back" mode="normal"/>
					</filter>
				</defs>
				
					<mask maskUnits="userSpaceOnUse" x="16.835" y="44.636" width="0.505" height="300.454" id="SVGID_00000096766963773452977800000006954935135087040418_">
					<g style="filter:url(#Adobe_OpacityMaskFilter_00000129925643915436013390000013693111740072485031_);">
						<defs>
							
								<filter id="Adobe_OpacityMaskFilter_00000087378623539926001790000003757473957232821420_" filterUnits="userSpaceOnUse" x="16.835" y="44.636" width="0.505" height="300.454">
								<feFlood  style="flood-color:white;flood-opacity:1" result="back"/>
								<feBlend  in="SourceGraphic" in2="back" mode="normal"/>
							</filter>
						</defs>
						
							<mask maskUnits="userSpaceOnUse" x="16.835" y="44.636" width="0.505" height="300.454" id="SVGID_00000096766963773452977800000006954935135087040418_">
							<g style="filter:url(#Adobe_OpacityMaskFilter_00000087378623539926001790000003757473957232821420_);">
							</g>
						</mask>
						
							<radialGradient id="SVGID_00000090283004907201052510000008327812110173073290_" cx="340.8547" cy="19.2987" r="401.0094" gradientTransform="matrix(-1 0 0 1 617.418 0)" gradientUnits="userSpaceOnUse">
							<stop  offset="0.0988" style="stop-color:#000000"/>
							<stop  offset="1" style="stop-color:#FFFFFF"/>
						</radialGradient>
						
							<path style="mask:url(#SVGID_00000096766963773452977800000006954935135087040418_);fill:url(#SVGID_00000090283004907201052510000008327812110173073290_);" d="
							M16.835,44.636V345.09c0.169-0.608,0.334-1.219,0.504-1.826l0.002-75.648V50.081C17.169,48.266,17,46.45,16.835,44.636z"/>
					</g>
				</mask>
				
					<radialGradient id="SVGID_00000087404492603552377600000001599080602899968174_" cx="340.8547" cy="19.2987" r="401.0094" gradientTransform="matrix(-1 0 0 1 617.418 0)" gradientUnits="userSpaceOnUse">
					<stop  offset="0.0988" style="stop-color:#FFFFFF"/>
					<stop  offset="1" style="stop-color:#ABABAB"/>
				</radialGradient>
				<path style="fill:url(#SVGID_00000087404492603552377600000001599080602899968174_);" d="M16.835,44.636V345.09
					c0.169-0.608,0.334-1.219,0.504-1.826l0.002-75.648V50.081C17.169,48.266,17,46.45,16.835,44.636z"/>
			</g>
		</g>
		<g>
			<g>
				<path style="fill:#FF2601;" d="M47.333,84.621l0.003-0.004h-0.004c-6.298-3.492-11.343-14.076-11.505-14.415v-0.008v0.003
					l-0.003-0.003v0.008c-0.161,0.339-5.207,10.923-11.503,14.415h-0.005l0.001,0.004l-0.001,0.001h0.005
					c6.296,3.493,11.342,14.077,11.503,14.416v0.009c0,0,0.001-0.004,0.003-0.004v0.004v-0.009
					c0.162-0.339,5.206-10.923,11.505-14.416h0.004L47.333,84.621z"/>
				<path style="fill:#FF2601;" d="M40.775,48.899l0.045,0.286c1.658,0.646,2.912,1.589,3.762,2.828
					c0.851,1.239,1.276,2.732,1.276,4.478c0,1.715-0.41,3.228-1.231,4.532c-0.822,1.307-2.015,2.314-3.577,3.025
					c-1.56,0.713-3.384,1.067-5.468,1.067c-1.951,0-3.662-0.327-5.136-0.979c-1.476-0.653-2.62-1.606-3.434-2.86
					c-0.813-1.254-1.221-2.732-1.221-4.435c0-1.276,0.22-2.384,0.66-3.322c0.44-0.938,1.017-1.712,1.728-2.321
					c0.711-0.608,1.61-1.162,2.695-1.662l-0.044-0.285c-3.154-1.363-4.73-3.703-4.73-7.02c0-1.51,0.414-2.859,1.244-4.049
					c0.828-1.188,2.008-2.118,3.542-2.794c1.532-0.675,3.23-1.011,5.093-1.011c2.112,0,3.887,0.297,5.325,0.891
					c1.437,0.594,2.519,1.451,3.246,2.573c0.725,1.122,1.089,2.468,1.089,4.037c0,1.614-0.396,3.005-1.188,4.171
					C43.658,47.217,42.434,48.166,40.775,48.899z M29.994,56.469c0,0.953,0.109,1.846,0.331,2.674
					c0.218,0.828,0.567,1.545,1.044,2.146c0.476,0.602,1.09,1.078,1.838,1.429c0.748,0.354,1.657,0.529,2.728,0.529
					c1.202,0,2.234-0.246,3.092-0.736c0.857-0.492,1.511-1.222,1.958-2.189c0.447-0.969,0.67-2.114,0.67-3.434
					c0-1.408-0.242-2.621-0.725-3.642c-0.484-1.018-1.167-1.796-2.047-2.333c-0.88-0.535-1.9-0.802-3.059-0.802
					c-1.085,0-1.999,0.169-2.739,0.505c-0.741,0.339-1.342,0.793-1.804,1.365c-0.463,0.572-0.794,1.242-0.991,2.014
					C30.093,54.765,29.994,55.588,29.994,56.469z M30.236,42.035c0,0.865,0.102,1.68,0.307,2.441
					c0.205,0.764,0.536,1.424,0.991,1.98c0.455,0.559,1.046,1.002,1.77,1.332c0.727,0.33,1.619,0.494,2.674,0.494
					c1.217,0,2.241-0.238,3.07-0.714c0.827-0.478,1.444-1.174,1.847-2.092c0.403-0.915,0.605-1.976,0.605-3.178
					c0-1.321-0.239-2.439-0.714-3.356c-0.477-0.916-1.133-1.596-1.97-2.035c-0.836-0.44-1.797-0.66-2.882-0.66
					c-1.848,0-3.26,0.502-4.236,1.508C30.724,38.76,30.236,40.186,30.236,42.035z"/>
			</g>
			<g>
				<path style="fill:#FF2601;" d="M234.71,301.991l-0.003,0.003h0.004c6.298,3.492,11.342,14.076,11.505,14.416v0.007v-0.004
					c0.002,0.002,0.003,0.004,0.003,0.004v-0.007c0.161-0.34,5.207-10.924,11.503-14.416h0.004l-0.002-0.003l0.002-0.002h-0.004
					c-6.296-3.492-11.342-14.077-11.503-14.415v-0.01l-0.003,0.005v-0.005v0.01c-0.163,0.338-5.207,10.923-11.505,14.415h-0.004
					L234.71,301.991z"/>
				<path style="fill:#FF2601;" d="M241.268,337.711l-0.044-0.285c-1.658-0.645-2.912-1.588-3.763-2.828
					c-0.851-1.239-1.276-2.732-1.276-4.477c0-1.716,0.411-3.228,1.231-4.533c0.823-1.307,2.014-2.314,3.577-3.025
					c1.561-0.713,3.385-1.066,5.468-1.066c1.951,0,3.663,0.326,5.136,0.979c1.475,0.652,2.619,1.605,3.433,2.859
					c0.813,1.255,1.221,2.732,1.221,4.435c0,1.276-0.22,2.383-0.66,3.322c-0.44,0.938-1.016,1.711-1.728,2.32
					c-0.71,0.609-1.609,1.163-2.694,1.662l0.044,0.285c3.154,1.364,4.73,3.704,4.73,7.02c0,1.511-0.414,2.859-1.244,4.049
					c-0.828,1.188-2.008,2.119-3.542,2.794c-1.531,0.676-3.23,1.012-5.093,1.012c-2.112,0-3.887-0.297-5.325-0.891
					c-1.437-0.594-2.519-1.452-3.246-2.573c-0.725-1.123-1.088-2.469-1.088-4.038c0-1.614,0.396-3.005,1.188-4.17
					C238.385,339.396,239.609,338.445,241.268,337.711z M252.049,330.143c0-0.953-0.109-1.845-0.331-2.674
					c-0.219-0.828-0.567-1.544-1.044-2.146c-0.477-0.601-1.089-1.078-1.838-1.429c-0.747-0.354-1.657-0.528-2.728-0.528
					c-1.202,0-2.234,0.245-3.092,0.736c-0.858,0.491-1.511,1.221-1.958,2.189c-0.447,0.969-0.67,2.113-0.67,3.433
					c0,1.408,0.242,2.622,0.725,3.643c0.484,1.019,1.167,1.796,2.047,2.332c0.88,0.535,1.9,0.803,3.058,0.803
					c1.085,0,1.999-0.169,2.739-0.506c0.741-0.339,1.343-0.792,1.805-1.365c0.462-0.572,0.793-1.242,0.991-2.013
					C251.951,331.848,252.049,331.023,252.049,330.143z M251.807,344.576c0-0.865-0.102-1.679-0.307-2.442
					c-0.206-0.763-0.536-1.422-0.991-1.979c-0.455-0.558-1.045-1.001-1.77-1.332c-0.727-0.33-1.619-0.494-2.674-0.494
					c-1.217,0-2.24,0.238-3.07,0.715c-0.827,0.477-1.444,1.174-1.848,2.091c-0.403,0.916-0.605,1.976-0.605,3.179
					c0,1.32,0.24,2.439,0.715,3.355c0.477,0.916,1.133,1.595,1.97,2.035c0.835,0.44,1.797,0.66,2.882,0.66
					c1.848,0,3.261-0.502,4.235-1.507C251.32,347.852,251.807,346.425,251.807,344.576z"/>
			</g>
			<g>
				<g>
					<g>
						<path style="fill:#FF2601;" d="M210.105,298.192l0.003-0.003h-0.009c-12.499-6.933-22.511-27.941-22.832-28.613v-0.016
							l-0.003,0.008c-0.001-0.003-0.003-0.008-0.003-0.008l-0.001,0.016c-0.319,0.673-10.333,21.681-22.83,28.613h-0.01h0.004
							c0,0-0.001,0.003-0.004,0.006h0.01c12.497,6.932,22.511,27.939,22.83,28.611l0.001,0.018c0,0,0.001-0.004,0.003-0.008
							c0,0.004,0.003,0.008,0.003,0.008v-0.018c0.32-0.672,10.333-21.68,22.832-28.611h0.009L210.105,298.192z"/>
						<path style="fill:#FF2601;" d="M210.105,89.17c0-0.003,0.003-0.003,0.003-0.003h-0.009
							c-12.499-6.933-22.511-27.94-22.832-28.614v-0.015l-0.003,0.007c-0.001-0.002-0.003-0.007-0.003-0.007l-0.001,0.015
							c-0.319,0.674-10.333,21.682-22.83,28.614h-0.01c0,0,0.004,0,0.004,0.003l-0.004,0.002h0.01
							c12.497,6.933,22.511,27.94,22.83,28.611l0.001,0.018c0,0,0.001-0.004,0.003-0.008l0.003,0.008v-0.018
							c0.32-0.671,10.333-21.679,22.832-28.611h0.009L210.105,89.17z"/>
					</g>
					<g>
						<path style="fill:#FF2601;" d="M210.105,194.23l0.003-0.004h-0.009c-12.499-6.933-22.511-27.941-22.832-28.613v-0.016
							l-0.003,0.008l-0.003-0.008l-0.001,0.016c-0.319,0.672-10.333,21.681-22.83,28.613h-0.01h0.004l-0.004,0.006h0.01
							c12.497,6.933,22.511,27.939,22.83,28.611l0.001,0.018l0.003-0.008l0.003,0.008v-0.018
							c0.32-0.672,10.333-21.679,22.832-28.611h0.009L210.105,194.23z"/>
					</g>
				</g>
				<g>
					<g>
						<path style="fill:#FF2601;" d="M164.13,145.086l0.003-0.003h-0.009c-12.499-6.934-22.511-27.941-22.832-28.614v-0.015
							l-0.002,0.008l-0.003-0.008l-0.001,0.015c-0.319,0.673-10.334,21.681-22.83,28.614h-0.01l0.004,0.003c0,0-0.001,0-0.004,0.003
							h0.01c12.496,6.932,22.511,27.939,22.83,28.611l0.001,0.018l0.003-0.009l0.002,0.009V173.7
							c0.321-0.672,10.333-21.68,22.832-28.611h0.009C164.133,145.086,164.13,145.086,164.13,145.086z"/>
					</g>
					<g>
						<path style="fill:#FF2601;" d="M164.13,250.146l0.003-0.003h-0.009c-12.499-6.934-22.511-27.941-22.832-28.615v-0.014
							c0,0-0.002,0.004-0.002,0.007c-0.002-0.003-0.003-0.007-0.003-0.007l-0.001,0.014c-0.319,0.674-10.334,21.682-22.83,28.615
							h-0.01l0.004,0.003l-0.004,0.003h0.01c12.496,6.932,22.511,27.939,22.83,28.611l0.001,0.018c0,0,0.001-0.005,0.003-0.01
							c0,0.005,0.002,0.01,0.002,0.01v-0.018c0.321-0.672,10.333-21.68,22.832-28.611h0.009L164.13,250.146z"/>
					</g>
				</g>
				<g>
					<g>
						<path style="fill:#FF2601;" d="M118.155,298.192l0.003-0.003h-0.009c-12.499-6.933-22.511-27.941-22.831-28.613v-0.016
							l-0.003,0.008c-0.001-0.003-0.003-0.008-0.003-0.008l-0.001,0.016c-0.319,0.673-10.334,21.681-22.83,28.613h-0.01l0.004,0.003
							c0,0-0.002,0-0.004,0.003h0.01c12.496,6.932,22.511,27.939,22.83,28.611l0.001,0.018c0,0,0.002-0.004,0.003-0.008
							c0,0.004,0.003,0.008,0.003,0.008v-0.018c0.32-0.672,10.332-21.68,22.831-28.611h0.009L118.155,298.192z"/>
						<path style="fill:#FF2601;" d="M118.155,89.17c0-0.003,0.003-0.003,0.003-0.003h-0.009
							c-12.499-6.933-22.511-27.94-22.831-28.614v-0.015l-0.003,0.007c-0.001-0.002-0.003-0.007-0.003-0.007l-0.001,0.015
							c-0.319,0.674-10.334,21.682-22.83,28.614h-0.01c0,0,0.004,0,0.004,0.003l-0.004,0.002h0.01
							c12.496,6.933,22.511,27.94,22.83,28.611l0.001,0.018c0,0,0.002-0.004,0.003-0.008l0.003,0.008v-0.018
							c0.32-0.671,10.332-21.679,22.831-28.611h0.009L118.155,89.17z"/>
					</g>
					<g>
						<path style="fill:#FF2601;" d="M118.155,194.23l0.003-0.004h-0.009c-12.499-6.933-22.511-27.941-22.831-28.613v-0.016
							l-0.003,0.008l-0.003-0.008l-0.001,0.016c-0.319,0.672-10.334,21.681-22.83,28.613h-0.01l0.004,0.004l-0.004,0.002h0.01
							c12.496,6.933,22.511,27.939,22.83,28.611l0.001,0.018l0.003-0.008l0.003,0.008v-0.018
							c0.32-0.672,10.332-21.679,22.831-28.611h0.009L118.155,194.23z"/>
					</g>
				</g>
			</g>
		</g>
	</g>
</g>
</svg>
