<?xml version="1.0" encoding="utf-8"?>
<!-- Generator: Adobe Illustrator 27.5.0, SVG Export Plug-In . SVG Version: 6.00 Build 0)  -->
<svg version="1.1" id="Layer_1" xmlns="http://www.w3.org/2000/svg" xmlns:xlink="http://www.w3.org/1999/xlink" x="0px" y="0px"
	 viewBox="0 0 293.411 398.199" style="enable-background:new 0 0 293.411 398.199;" xml:space="preserve">
<g>
	<g>
		<path style="fill:#FFFFFF;" d="M37.057,388.24c0.086,0.002,0.172,0.003,0.259,0.003h229.626c0.086,0,0.172-0.001,0.259-0.003
			c1.444-0.04,8.915-0.585,14.251-7.472c3.068-3.96,4.624-9.02,4.624-15.04V43.306c0-16.138-11.288-22.302-18.876-22.508
			c-0.086-0.003-0.172-0.004-0.258-0.004h-0.514c-0.043,0-0.087,0-0.13,0.001H37.315c-0.086,0-0.172,0.001-0.258,0.004
			C29.47,21.005,18.182,27.17,18.182,43.31v11.785c-0.005,0.126-0.007,0.252-0.007,0.379v300.455c0,0.134,0.003,0.267,0.008,0.4
			v9.404C18.183,381.868,29.47,388.034,37.057,388.24z"/>
		<path style="fill:#F1F1F1;" d="M36.071,387.255c0.087,0.002,0.173,0.003,0.259,0.003h229.626c0.087,0,0.173-0.001,0.259-0.003
			c1.444-0.039,8.915-0.585,14.251-7.472c3.068-3.959,4.624-9.02,4.624-15.039V42.321c0-16.137-11.289-22.302-18.876-22.508
			c-0.086-0.002-0.172-0.003-0.259-0.003h-0.514c-0.044,0-0.087,0-0.13,0H36.33c-0.086,0-0.172,0.001-0.258,0.004
			c-7.587,0.226-18.875,6.372-18.875,22.511v11.784c-0.005,0.126-0.007,0.252-0.007,0.379v300.454c0,0.134,0.003,0.268,0.008,0.4
			v9.403C17.197,380.883,28.485,387.048,36.071,387.255z"/>
		<path style="fill:#E2E2E2;" d="M35.085,386.269c0.086,0.002,0.173,0.004,0.259,0.004h229.626c0.086,0,0.173-0.001,0.259-0.004
			c1.444-0.04,8.915-0.585,14.252-7.472c3.068-3.96,4.624-9.019,4.624-15.039V41.336c0-16.138-11.289-22.302-18.876-22.508
			c-0.087-0.003-0.172-0.004-0.259-0.004h-0.514c-0.044,0-0.087,0-0.13,0.001H35.345c-0.086,0-0.172,0.001-0.259,0.003
			C27.5,19.054,16.211,25.2,16.211,41.339v11.784c-0.005,0.126-0.007,0.251-0.007,0.379v300.454c0,0.134,0.002,0.267,0.008,0.4
			v9.403C16.212,379.897,27.5,386.063,35.085,386.269z"/>
		<path style="fill:#D4D4D4;" d="M34.101,385.284c0.086,0.003,0.172,0.004,0.259,0.004h229.626c0.087,0,0.173-0.001,0.259-0.004
			c1.444-0.039,8.916-0.585,14.251-7.472c3.068-3.96,4.624-9.02,4.624-15.039V40.35c0-16.137-11.288-22.302-18.875-22.508
			c-0.086-0.002-0.172-0.004-0.259-0.004h-0.514c-0.044,0-0.087,0-0.13,0.001H34.359c-0.086,0-0.172,0.001-0.259,0.004
			c-7.587,0.225-18.876,6.372-18.876,22.511l0.001,11.785c-0.005,0.125-0.007,0.252-0.007,0.379v300.454
			c0,0.134,0.003,0.268,0.008,0.4v9.403C15.226,378.912,26.514,385.078,34.101,385.284z"/>
		<path style="fill:#C5C5C5;" d="M33.115,384.298c0.086,0.002,0.172,0.004,0.259,0.004H263c0.086,0,0.173-0.002,0.259-0.004
			c1.444-0.039,8.915-0.585,14.251-7.472c3.068-3.96,4.624-9.02,4.624-15.04V39.365c0-16.138-11.288-22.302-18.876-22.508
			c-0.086-0.003-0.172-0.004-0.259-0.004h-0.514c-0.043,0-0.087,0-0.13,0.001H33.374c-0.086,0-0.172,0.001-0.258,0.004
			c-7.587,0.226-18.876,6.372-18.876,22.511l0,11.785c-0.005,0.125-0.007,0.252-0.007,0.379v300.454c0,0.134,0.003,0.268,0.008,0.4
			v9.404C14.241,377.927,25.528,384.092,33.115,384.298z"/>
		<path style="fill:#B7B7B7;" d="M32.13,383.314c0.086,0.002,0.172,0.003,0.259,0.003h229.627c0.086,0,0.172-0.001,0.259-0.003
			c1.443-0.04,8.915-0.585,14.251-7.472c3.068-3.959,4.624-9.02,4.624-15.04V38.379c0-16.138-11.288-22.302-18.876-22.508
			c-0.086-0.002-0.171-0.004-0.258-0.004h-0.514c-0.044,0-0.087,0-0.131,0.001H32.389c-0.086,0-0.172,0.001-0.258,0.004
			c-7.587,0.226-18.876,6.372-18.876,22.511l0.001,11.785c-0.005,0.125-0.007,0.252-0.007,0.379v300.455
			c0,0.134,0.003,0.268,0.008,0.4v9.404C13.256,376.941,24.543,383.107,32.13,383.314z"/>
		<path style="fill:#A8A8A8;" d="M31.144,382.328c0.087,0.002,0.172,0.004,0.259,0.004h229.626c0.086,0,0.173-0.001,0.259-0.004
			c1.444-0.04,8.916-0.585,14.251-7.472c3.068-3.96,4.624-9.019,4.624-15.04V37.394c0-16.137-11.288-22.302-18.875-22.508
			c-0.086-0.002-0.172-0.003-0.258-0.003h-0.514c-0.044,0-0.087,0-0.131,0.001H31.403c-0.086,0-0.172,0.001-0.258,0.003
			c-7.587,0.226-18.875,6.372-18.875,22.511l0,11.784c-0.005,0.126-0.007,0.252-0.007,0.379v300.454c0,0.134,0.002,0.267,0.008,0.4
			v9.403C12.271,375.956,23.558,382.121,31.144,382.328z"/>
		<path style="fill:#9A9A9A;" d="M30.159,381.342c0.086,0.002,0.172,0.004,0.259,0.004h229.626c0.086,0,0.173-0.001,0.259-0.004
			c1.444-0.039,8.915-0.585,14.251-7.472c3.068-3.96,4.624-9.02,4.624-15.04V36.408c0-16.137-11.289-22.302-18.876-22.508
			c-0.086-0.002-0.172-0.004-0.258-0.004h-0.514c-0.044,0-0.087,0.001-0.13,0.001H30.418c-0.086,0-0.172,0.001-0.259,0.003
			c-7.587,0.226-18.875,6.372-18.875,22.511l0,11.785c-0.005,0.125-0.007,0.252-0.007,0.379V349.03c0,0.134,0.002,0.268,0.008,0.4
			v9.403C11.285,374.971,22.572,381.136,30.159,381.342z"/>
		<path style="fill:#8B8B8B;" d="M29.174,380.357c0.086,0.002,0.172,0.004,0.259,0.004h229.626c0.086,0,0.173-0.001,0.259-0.004
			c1.444-0.039,8.916-0.585,14.251-7.472c3.068-3.96,4.624-9.02,4.624-15.04V35.423c0-16.138-11.288-22.302-18.875-22.508
			c-0.087-0.003-0.172-0.004-0.259-0.004h-0.514c-0.044,0-0.087,0-0.13,0.001H29.433c-0.086,0-0.172,0.001-0.259,0.004
			c-7.587,0.225-18.875,6.372-18.875,22.511l0.001,11.785c-0.005,0.125-0.007,0.252-0.007,0.379v300.454
			c0,0.134,0.002,0.267,0.008,0.4v9.404C10.3,373.985,21.587,380.151,29.174,380.357z"/>
		<path style="fill:#7D7D7D;" d="M28.188,379.372c0.086,0.002,0.172,0.003,0.259,0.003h229.626c0.086,0,0.172-0.001,0.259-0.003
			c1.444-0.04,8.915-0.585,14.252-7.473c3.068-3.959,4.623-9.019,4.623-15.039V34.438c0-16.138-11.289-22.302-18.875-22.508
			c-0.086-0.002-0.173-0.004-0.259-0.004h-0.514c-0.044,0-0.087,0-0.13,0.001H28.447c-0.087,0-0.171,0.001-0.258,0.004
			c-7.587,0.226-18.876,6.371-18.876,22.511v11.785c-0.004,0.126-0.007,0.252-0.007,0.379v300.454c0,0.134,0.003,0.268,0.008,0.4
			v9.404C9.314,372.999,20.601,379.165,28.188,379.372z"/>
		<path style="fill:#6E6E6E;" d="M27.203,378.386c0.086,0.002,0.172,0.003,0.259,0.003h229.626c0.086,0,0.172-0.001,0.259-0.003
			c1.444-0.04,8.915-0.585,14.251-7.472c3.068-3.96,4.624-9.02,4.624-15.04V33.452c0-16.138-11.288-22.302-18.876-22.508
			c-0.086-0.003-0.172-0.003-0.258-0.003h-0.514c-0.043,0-0.087,0-0.13,0.001H27.461c-0.086,0-0.172,0.001-0.258,0.003
			c-7.587,0.226-18.876,6.372-18.876,22.511L8.328,45.24c-0.005,0.126-0.008,0.252-0.008,0.379v300.455
			c0,0.134,0.003,0.268,0.009,0.4v9.403C8.329,372.015,19.616,378.18,27.203,378.386z"/>
		<path style="fill:#606060;" d="M26.217,377.401c0.086,0.002,0.173,0.004,0.259,0.004h229.627c0.086,0,0.173-0.001,0.259-0.004
			c1.444-0.04,8.915-0.585,14.251-7.472c3.068-3.959,4.624-9.019,4.624-15.039V32.467c0-16.137-11.288-22.302-18.875-22.508
			c-0.086-0.002-0.172-0.003-0.258-0.003h-0.514c-0.044,0-0.087,0-0.131,0.001H26.476c-0.086,0-0.172,0.001-0.258,0.003
			C18.63,10.166,7.342,16.331,7.342,32.471l0,11.785c-0.005,0.125-0.008,0.251-0.008,0.379v300.454c0,0.134,0.003,0.268,0.009,0.4
			v9.403C7.344,371.029,18.631,377.194,26.217,377.401z"/>
	</g>
	<path style="fill:#FFFFFF;" d="M26.217,377.401c0.086,0.002,0.173,0.004,0.259,0.004h229.627c0.086,0,0.173-0.001,0.259-0.004
		c1.444-0.04,8.915-0.585,14.251-7.472c3.068-3.959,4.624-9.019,4.624-15.039V32.467c0-16.137-11.288-22.302-18.875-22.508
		c-0.086-0.002-0.172-0.003-0.258-0.003h-0.514c-0.044,0-0.087,0-0.131,0.001H26.476c-0.086,0-0.172,0.001-0.258,0.003
		C18.63,10.166,7.342,16.331,7.342,32.471l0,11.785c-0.005,0.125-0.008,0.251-0.008,0.379v300.454c0,0.134,0.003,0.268,0.009,0.4
		v9.403C7.344,371.029,18.631,377.194,26.217,377.401z"/>
	<g>
		<g>
			<g>
				<path style="fill:#FFFFFF;" d="M256.103,19.456H145.976h-9.373H26.476c0,0-9.634,0.262-9.634,13.014l0.001,86.915v148.59v86.917
					c0,12.751,9.632,13.013,9.632,13.013h110.127h9.373h110.127c0,0,9.633-0.262,9.633-13.013v-86.917v-148.59V32.47
					C265.735,19.718,256.103,19.456,256.103,19.456z"/>
				<defs>
					<filter id="Adobe_OpacityMaskFilter" filterUnits="userSpaceOnUse" x="16.844" y="207.504" width="248.892" height="160.401">
						<feFlood  style="flood-color:white;flood-opacity:1" result="back"/>
						<feBlend  in="SourceGraphic" in2="back" mode="normal"/>
					</filter>
				</defs>
				<mask maskUnits="userSpaceOnUse" x="16.844" y="207.504" width="248.892" height="160.401" id="SVGID_1_">
					<g style="filter:url(#Adobe_OpacityMaskFilter);">
						<defs>
							
								<filter id="Adobe_OpacityMaskFilter_00000143602536351385066260000017409830161581422269_" filterUnits="userSpaceOnUse" x="16.844" y="207.504" width="248.892" height="160.401">
								<feFlood  style="flood-color:white;flood-opacity:1" result="back"/>
								<feBlend  in="SourceGraphic" in2="back" mode="normal"/>
							</filter>
						</defs>
						<mask maskUnits="userSpaceOnUse" x="16.844" y="207.504" width="248.892" height="160.401" id="SVGID_1_">
							<g style="filter:url(#Adobe_OpacityMaskFilter_00000143602536351385066260000017409830161581422269_);">
							</g>
						</mask>
						
							<radialGradient id="SVGID_00000020360157226361328380000003772346220042292654_" cx="137.4382" cy="-99.3366" r="503.8683" gradientUnits="userSpaceOnUse">
							<stop  offset="0.6156" style="stop-color:#000000"/>
							<stop  offset="0.7516" style="stop-color:#020202"/>
							<stop  offset="0.8037" style="stop-color:#090909"/>
							<stop  offset="0.8413" style="stop-color:#151515"/>
							<stop  offset="0.8721" style="stop-color:#262626"/>
							<stop  offset="0.8986" style="stop-color:#3C3C3C"/>
							<stop  offset="0.9222" style="stop-color:#585858"/>
							<stop  offset="0.9436" style="stop-color:#797979"/>
							<stop  offset="0.9634" style="stop-color:#9F9F9F"/>
							<stop  offset="0.9817" style="stop-color:#CBCBCB"/>
							<stop  offset="0.9982" style="stop-color:#F9F9F9"/>
							<stop  offset="1" style="stop-color:#FFFFFF"/>
						</radialGradient>
						<path style="mask:url(#SVGID_1_);fill:url(#SVGID_00000020360157226361328380000003772346220042292654_);" d="
							M163.595,207.517c-48.918,0.011-97.833,0.031-146.751,0.051v147.324c0,12.751,9.632,13.013,9.632,13.013h229.627
							c0,0,9.633-0.262,9.633-13.013V207.504C231.689,207.508,197.642,207.51,163.595,207.517z"/>
					</g>
				</mask>
				
					<radialGradient id="SVGID_00000115495158919868507540000011663527998501148578_" cx="137.4382" cy="-99.3366" r="503.8683" gradientUnits="userSpaceOnUse">
					<stop  offset="0.6156" style="stop-color:#FFFFFF"/>
					<stop  offset="0.7878" style="stop-color:#FDFDFD"/>
					<stop  offset="0.8537" style="stop-color:#F6F6F6"/>
					<stop  offset="0.9014" style="stop-color:#EAEAEA"/>
					<stop  offset="0.9403" style="stop-color:#D9D9D9"/>
					<stop  offset="0.9735" style="stop-color:#C3C3C3"/>
					<stop  offset="1" style="stop-color:#ABABAB"/>
				</radialGradient>
				<path style="fill:url(#SVGID_00000115495158919868507540000011663527998501148578_);" d="M163.595,207.517
					c-48.918,0.011-97.833,0.031-146.751,0.051v147.324c0,12.751,9.632,13.013,9.632,13.013h229.627c0,0,9.633-0.262,9.633-13.013
					V207.504C231.689,207.508,197.642,207.51,163.595,207.517z"/>
				<defs>
					
						<filter id="Adobe_OpacityMaskFilter_00000020396420484612093710000017729965942213140124_" filterUnits="userSpaceOnUse" x="16.842" y="19.456" width="248.893" height="173.937">
						<feFlood  style="flood-color:white;flood-opacity:1" result="back"/>
						<feBlend  in="SourceGraphic" in2="back" mode="normal"/>
					</filter>
				</defs>
				
					<mask maskUnits="userSpaceOnUse" x="16.842" y="19.456" width="248.893" height="173.937" id="SVGID_00000092432969086524657910000001024351494133552045_">
					<g style="filter:url(#Adobe_OpacityMaskFilter_00000020396420484612093710000017729965942213140124_);">
						<defs>
							
								<filter id="Adobe_OpacityMaskFilter_00000070097111599003426190000017697674166042767281_" filterUnits="userSpaceOnUse" x="16.842" y="19.456" width="248.893" height="173.937">
								<feFlood  style="flood-color:white;flood-opacity:1" result="back"/>
								<feBlend  in="SourceGraphic" in2="back" mode="normal"/>
							</filter>
						</defs>
						
							<mask maskUnits="userSpaceOnUse" x="16.842" y="19.456" width="248.893" height="173.937" id="SVGID_00000092432969086524657910000001024351494133552045_">
							<g style="filter:url(#Adobe_OpacityMaskFilter_00000070097111599003426190000017697674166042767281_);">
							</g>
						</mask>
						
							<radialGradient id="SVGID_00000067224877167795535370000017164678932219144348_" cx="142.423" cy="341.0065" r="361.0528" gradientUnits="userSpaceOnUse">
							<stop  offset="0.6156" style="stop-color:#000000"/>
							<stop  offset="0.7096" style="stop-color:#020202"/>
							<stop  offset="0.7623" style="stop-color:#0A0A0A"/>
							<stop  offset="0.8047" style="stop-color:#181818"/>
							<stop  offset="0.8418" style="stop-color:#2C2C2C"/>
							<stop  offset="0.8752" style="stop-color:#464646"/>
							<stop  offset="0.9062" style="stop-color:#656565"/>
							<stop  offset="0.9352" style="stop-color:#8A8A8A"/>
							<stop  offset="0.9626" style="stop-color:#B6B6B6"/>
							<stop  offset="0.9879" style="stop-color:#E5E5E5"/>
							<stop  offset="1" style="stop-color:#FFFFFF"/>
						</radialGradient>
						
							<path style="mask:url(#SVGID_00000092432969086524657910000001024351494133552045_);fill:url(#SVGID_00000067224877167795535370000017164678932219144348_);" d="
							M16.844,193.303c20.946,0.016,41.891,0.031,62.837,0.043c60.362,0.035,120.724,0.039,181.087,0.046
							c1.655,0,3.31-0.001,4.968-0.001V32.47c0-12.752-9.633-13.014-9.633-13.014H26.476c0,0-9.634,0.262-9.634,13.014l0.001,86.915
							V193.303z"/>
					</g>
				</mask>
				
					<radialGradient id="SVGID_00000060029063482366238180000003990205017503009694_" cx="142.423" cy="341.0065" r="361.0528" gradientUnits="userSpaceOnUse">
					<stop  offset="0.6156" style="stop-color:#FFFFFF"/>
					<stop  offset="0.747" style="stop-color:#FDFDFD"/>
					<stop  offset="0.8206" style="stop-color:#F5F5F5"/>
					<stop  offset="0.8799" style="stop-color:#E7E7E7"/>
					<stop  offset="0.9316" style="stop-color:#D3D3D3"/>
					<stop  offset="0.9778" style="stop-color:#BABABA"/>
					<stop  offset="1" style="stop-color:#ABABAB"/>
				</radialGradient>
				<path style="fill:url(#SVGID_00000060029063482366238180000003990205017503009694_);" d="M16.844,193.303
					c20.946,0.016,41.891,0.031,62.837,0.043c60.362,0.035,120.724,0.039,181.087,0.046c1.655,0,3.31-0.001,4.968-0.001V32.47
					c0-12.752-9.633-13.014-9.633-13.014H26.476c0,0-9.634,0.262-9.634,13.014l0.001,86.915V193.303z"/>
			</g>
			<g>
				<defs>
					
						<filter id="Adobe_OpacityMaskFilter_00000154393148844807069180000008963047187627384475_" filterUnits="userSpaceOnUse" x="21.428" y="19.455" width="244.309" height="348.449">
						<feFlood  style="flood-color:white;flood-opacity:1" result="back"/>
						<feBlend  in="SourceGraphic" in2="back" mode="normal"/>
					</filter>
				</defs>
				
					<mask maskUnits="userSpaceOnUse" x="21.428" y="19.455" width="244.309" height="348.449" id="SVGID_00000167361479755763553230000016874928664742923939_">
					<g style="filter:url(#Adobe_OpacityMaskFilter_00000154393148844807069180000008963047187627384475_);">
						<defs>
							
								<filter id="Adobe_OpacityMaskFilter_00000090993907217470009400000002600768083715848082_" filterUnits="userSpaceOnUse" x="21.428" y="19.455" width="244.309" height="348.449">
								<feFlood  style="flood-color:white;flood-opacity:1" result="back"/>
								<feBlend  in="SourceGraphic" in2="back" mode="normal"/>
							</filter>
						</defs>
						
							<mask maskUnits="userSpaceOnUse" x="21.428" y="19.455" width="244.309" height="348.449" id="SVGID_00000167361479755763553230000016874928664742923939_">
							<g style="filter:url(#Adobe_OpacityMaskFilter_00000090993907217470009400000002600768083715848082_);">
							</g>
						</mask>
						
							<radialGradient id="SVGID_00000165953166984564621220000012690948992398906288_" cx="6.197" cy="19.2983" r="400.8939" gradientUnits="userSpaceOnUse">
							<stop  offset="0.0988" style="stop-color:#000000"/>
							<stop  offset="1" style="stop-color:#FFFFFF"/>
						</radialGradient>
						
							<path style="mask:url(#SVGID_00000167361479755763553230000016874928664742923939_);fill:url(#SVGID_00000165953166984564621220000012690948992398906288_);" d="
							M265.231,32.449v86.791v148.375l0.002,86.789c0,12.733-9.645,12.995-9.645,12.995H145.352h-9.383H25.73
							c0,0-2.078-0.059-4.303-1.392c2.482,1.822,5.048,1.897,5.048,1.897h110.129h9.372h110.125c0,0,9.634-0.262,9.634-13.015
							v-86.915v-148.59V32.467c0-12.75-9.634-13.012-9.634-13.012h-0.514C255.589,19.455,265.231,19.717,265.231,32.449z"/>
					</g>
				</mask>
				
					<radialGradient id="SVGID_00000173844437631299344910000003246968092393785769_" cx="6.197" cy="19.2983" r="400.8939" gradientUnits="userSpaceOnUse">
					<stop  offset="0.0988" style="stop-color:#FFFFFF"/>
					<stop  offset="1" style="stop-color:#ABABAB"/>
				</radialGradient>
				<path style="fill:url(#SVGID_00000173844437631299344910000003246968092393785769_);" d="M265.231,32.449v86.791v148.375
					l0.002,86.789c0,12.733-9.645,12.995-9.645,12.995H145.352h-9.383H25.73c0,0-2.078-0.059-4.303-1.392
					c2.482,1.822,5.048,1.897,5.048,1.897h110.129h9.372h110.125c0,0,9.634-0.262,9.634-13.015v-86.915v-148.59V32.467
					c0-12.75-9.634-13.012-9.634-13.012h-0.514C255.589,19.455,265.231,19.717,265.231,32.449z"/>
			</g>
			<defs>
				
					<filter id="Adobe_OpacityMaskFilter_00000099659898724164944120000008671947161680905149_" filterUnits="userSpaceOnUse" x="16.842" y="19.456" width="244.311" height="348.449">
					<feFlood  style="flood-color:white;flood-opacity:1" result="back"/>
					<feBlend  in="SourceGraphic" in2="back" mode="normal"/>
				</filter>
			</defs>
			
				<mask maskUnits="userSpaceOnUse" x="16.842" y="19.456" width="244.311" height="348.449" id="SVGID_00000018936636951178885430000004138757535649273019_">
				<g style="filter:url(#Adobe_OpacityMaskFilter_00000099659898724164944120000008671947161680905149_);">
					<defs>
						
							<filter id="Adobe_OpacityMaskFilter_00000165920341032557469730000013061851424490718857_" filterUnits="userSpaceOnUse" x="16.842" y="19.456" width="244.311" height="348.449">
							<feFlood  style="flood-color:white;flood-opacity:1" result="back"/>
							<feBlend  in="SourceGraphic" in2="back" mode="normal"/>
						</filter>
					</defs>
					
						<mask maskUnits="userSpaceOnUse" x="16.842" y="19.456" width="244.311" height="348.449" id="SVGID_00000018936636951178885430000004138757535649273019_">
						<g style="filter:url(#Adobe_OpacityMaskFilter_00000165920341032557469730000013061851424490718857_);">
						</g>
					</mask>
					
						<radialGradient id="SVGID_00000069390269999167516220000014763298842991173762_" cx="84.8275" cy="120.8648" r="341.4553" gradientUnits="userSpaceOnUse">
						<stop  offset="0" style="stop-color:#000000"/>
						<stop  offset="0.0074" style="stop-color:#090909"/>
						<stop  offset="0.0477" style="stop-color:#373737"/>
						<stop  offset="0.0931" style="stop-color:#626262"/>
						<stop  offset="0.1419" style="stop-color:#888888"/>
						<stop  offset="0.195" style="stop-color:#A8A8A8"/>
						<stop  offset="0.2537" style="stop-color:#C4C4C4"/>
						<stop  offset="0.32" style="stop-color:#DADADA"/>
						<stop  offset="0.3974" style="stop-color:#EBEBEB"/>
						<stop  offset="0.4931" style="stop-color:#F6F6F6"/>
						<stop  offset="0.6274" style="stop-color:#FDFDFD"/>
						<stop  offset="1" style="stop-color:#FFFFFF"/>
					</radialGradient>
					
						<path style="mask:url(#SVGID_00000018936636951178885430000004138757535649273019_);fill:url(#SVGID_00000069390269999167516220000014763298842991173762_);" d="
						M17.347,354.911V268.12V119.745v-86.79c0-12.734,9.643-12.995,9.643-12.995h110.237h9.382h110.24c0,0,2.077,0.059,4.304,1.392
						c-2.484-1.821-5.051-1.896-5.051-1.896H145.976h-9.373H26.476c0,0-9.634,0.262-9.634,13.014l0.001,86.915v148.59v86.917
						c0,12.751,9.632,13.013,9.632,13.013h0.514C26.99,367.905,17.347,367.643,17.347,354.911z"/>
				</g>
			</mask>
			
				<radialGradient id="SVGID_00000103244887137738854920000017986619081208668847_" cx="84.8275" cy="120.8648" r="341.4553" gradientUnits="userSpaceOnUse">
				<stop  offset="0" style="stop-color:#FFFFFF"/>
				<stop  offset="0.1413" style="stop-color:#FFFFFF"/>
				<stop  offset="1" style="stop-color:#FFFFFF"/>
			</radialGradient>
			<path style="fill:url(#SVGID_00000103244887137738854920000017986619081208668847_);" d="M17.347,354.911V268.12V119.745v-86.79
				c0-12.734,9.643-12.995,9.643-12.995h110.237h9.382h110.24c0,0,2.077,0.059,4.304,1.392c-2.484-1.821-5.051-1.896-5.051-1.896
				H145.976h-9.373H26.476c0,0-9.634,0.262-9.634,13.014l0.001,86.915v148.59v86.917c0,12.751,9.632,13.013,9.632,13.013h0.514
				C26.99,367.905,17.347,367.643,17.347,354.911z"/>
			<g>
				<defs>
					
						<filter id="Adobe_OpacityMaskFilter_00000117637564206837060760000014622103449011592080_" filterUnits="userSpaceOnUse" x="16.835" y="44.634" width="0.505" height="300.454">
						<feFlood  style="flood-color:white;flood-opacity:1" result="back"/>
						<feBlend  in="SourceGraphic" in2="back" mode="normal"/>
					</filter>
				</defs>
				
					<mask maskUnits="userSpaceOnUse" x="16.835" y="44.634" width="0.505" height="300.454" id="SVGID_00000158001898189297030990000004441681421148111799_">
					<g style="filter:url(#Adobe_OpacityMaskFilter_00000117637564206837060760000014622103449011592080_);">
						<defs>
							
								<filter id="Adobe_OpacityMaskFilter_00000124857512569589794850000006951971724761516459_" filterUnits="userSpaceOnUse" x="16.835" y="44.634" width="0.505" height="300.454">
								<feFlood  style="flood-color:white;flood-opacity:1" result="back"/>
								<feBlend  in="SourceGraphic" in2="back" mode="normal"/>
							</filter>
						</defs>
						
							<mask maskUnits="userSpaceOnUse" x="16.835" y="44.634" width="0.505" height="300.454" id="SVGID_00000158001898189297030990000004441681421148111799_">
							<g style="filter:url(#Adobe_OpacityMaskFilter_00000124857512569589794850000006951971724761516459_);">
							</g>
						</mask>
						
							<radialGradient id="SVGID_00000089569274118596574940000009500667539344184233_" cx="341.1118" cy="19.2973" r="400.8553" gradientTransform="matrix(-1 0 0 1 617.418 0)" gradientUnits="userSpaceOnUse">
							<stop  offset="0.0988" style="stop-color:#000000"/>
							<stop  offset="1" style="stop-color:#FFFFFF"/>
						</radialGradient>
						
							<path style="mask:url(#SVGID_00000158001898189297030990000004441681421148111799_);fill:url(#SVGID_00000089569274118596574940000009500667539344184233_);" d="
							M16.835,44.634v300.454c0.168-0.608,0.334-1.217,0.503-1.825l0.001-75.649V50.081C17.169,48.265,17,46.449,16.835,44.634z"/>
					</g>
				</mask>
				
					<radialGradient id="SVGID_00000022540063960301818260000018268899208287476144_" cx="341.1118" cy="19.2973" r="400.8553" gradientTransform="matrix(-1 0 0 1 617.418 0)" gradientUnits="userSpaceOnUse">
					<stop  offset="0.0988" style="stop-color:#FFFFFF"/>
					<stop  offset="1" style="stop-color:#ABABAB"/>
				</radialGradient>
				<path style="fill:url(#SVGID_00000022540063960301818260000018268899208287476144_);" d="M16.835,44.634v300.454
					c0.168-0.608,0.334-1.217,0.503-1.825l0.001-75.649V50.081C17.169,48.265,17,46.449,16.835,44.634z"/>
			</g>
		</g>
		<g>
			<g>
				<g>
					<path d="M37.552,88.711c-0.542,6.476-4.194,11.011-4.194,11.011h4.194h4.193C41.745,99.722,38.093,95.187,37.552,88.711z"/>
					<path d="M43.628,81.379c-0.833,0-1.627,0.17-2.349,0.474c-0.019-0.02-0.037-0.037-0.054-0.056
						c1.46-1.11,2.403-2.864,2.403-4.839c0-3.357-2.72-6.076-6.076-6.076c-3.355,0-6.075,2.719-6.075,6.076
						c0,2.113,1.079,3.975,2.718,5.063c-0.818-0.41-1.741-0.642-2.718-0.642c-3.357,0-6.077,2.72-6.077,6.077
						c0,3.354,2.72,6.075,6.077,6.075c3.266,0,5.93-2.578,6.069-5.81c0.004,0.002,0.008,0.004,0.013,0.008
						c0.143,3.229,2.804,5.802,6.069,5.802c3.355,0,6.077-2.72,6.077-6.075C49.705,84.1,46.983,81.379,43.628,81.379"/>
				</g>
				<path d="M32.305,63.669v-1.078c2.052,0,3.832-0.455,5.335-1.364c1.503-0.91,2.714-2.256,3.631-4.038
					c0.916-1.782,1.528-4.118,1.837-7.008l-0.22-0.089c-1.231,0.88-2.445,1.527-3.641,1.936c-1.196,0.412-2.49,0.617-3.884,0.617
					c-1.659,0-3.07-0.363-4.235-1.09c-1.167-0.727-2.044-1.745-2.63-3.059c-0.586-1.313-0.88-2.85-0.88-4.61
					c0-1.32,0.22-2.57,0.66-3.751c0.44-1.18,1.093-2.216,1.958-3.103c0.866-0.887,1.948-1.592,3.246-2.113
					c1.298-0.52,2.813-0.78,4.544-0.78c3.081,0,5.427,1.063,7.041,3.189c1.614,2.128,2.42,5.186,2.42,9.175
					c0,3.653-0.593,6.818-1.782,9.495c-1.188,2.677-2.853,4.761-4.994,6.25c-2.143,1.488-4.643,2.366-7.503,2.629L32.305,63.669z
					 M36.881,50.335c0.557,0,1.089-0.047,1.595-0.143c0.506-0.095,1.001-0.233,1.486-0.418c0.484-0.184,0.957-0.418,1.419-0.705
					c0.462-0.286,0.877-0.589,1.244-0.913c0.131-0.117,0.25-0.272,0.353-0.462c0.102-0.191,0.183-0.441,0.241-0.749
					c0.059-0.308,0.088-0.792,0.088-1.452c0-2.01-0.202-3.728-0.605-5.16c-0.403-1.431-1.02-2.508-1.849-3.233
					c-0.828-0.727-1.852-1.09-3.069-1.09c-1.1,0-2.031,0.191-2.795,0.572c-0.762,0.382-1.382,0.907-1.859,1.574
					c-0.476,0.667-0.824,1.451-1.044,2.354c-0.22,0.902-0.331,1.882-0.331,2.938c0,2.187,0.448,3.88,1.343,5.083
					C33.991,49.733,35.254,50.335,36.881,50.335z"/>
			</g>
			<g>
				<g>
					<path d="M246.127,297.734c0.54-6.476,4.192-11.011,4.192-11.011h-4.192h-4.194
						C241.934,286.723,245.584,291.258,246.127,297.734z"/>
					<path d="M240.051,305.065c0.833,0,1.627-0.17,2.349-0.474c0.018,0.019,0.037,0.037,0.055,0.056
						c-1.461,1.109-2.404,2.864-2.404,4.839c0,3.357,2.72,6.077,6.077,6.077c3.355,0,6.075-2.72,6.075-6.077
						c0-2.113-1.081-3.975-2.718-5.063c0.817,0.411,1.741,0.642,2.718,0.642c3.357,0,6.077-2.72,6.077-6.077
						c0-3.355-2.72-6.075-6.077-6.075c-3.266,0-5.93,2.579-6.069,5.81c-0.004-0.002-0.009-0.004-0.013-0.008
						c-0.144-3.229-2.806-5.803-6.069-5.803c-3.355,0-6.077,2.72-6.077,6.075C233.974,302.345,236.696,305.065,240.051,305.065"/>
				</g>
				<path d="M251.374,322.775v1.078c-2.055,0-3.832,0.455-5.337,1.365c-1.503,0.91-2.714,2.256-3.631,4.037
					c-0.915,1.782-1.529,4.119-1.837,7.008l0.22,0.089c1.233-0.88,2.446-1.527,3.641-1.936c1.196-0.412,2.491-0.617,3.885-0.617
					c1.657,0,3.069,0.363,4.235,1.089c1.167,0.727,2.042,1.746,2.629,3.059c0.588,1.313,0.882,2.85,0.882,4.61
					c0,1.32-0.222,2.569-0.662,3.751c-0.441,1.18-1.093,2.215-1.958,3.103c-0.866,0.888-1.946,1.592-3.246,2.113
					c-1.298,0.52-2.813,0.78-4.544,0.78c-3.08,0-5.427-1.063-7.04-3.19c-1.613-2.128-2.421-5.186-2.421-9.174
					c0-3.653,0.595-6.818,1.783-9.496c1.189-2.677,2.853-4.76,4.994-6.249c2.143-1.489,4.644-2.366,7.505-2.629L251.374,322.775z
					 M246.796,336.11c-0.557,0-1.088,0.047-1.595,0.143c-0.506,0.095-1.001,0.233-1.486,0.418c-0.483,0.183-0.957,0.418-1.419,0.704
					c-0.462,0.287-0.877,0.589-1.244,0.913c-0.131,0.116-0.248,0.271-0.351,0.462c-0.104,0.191-0.183,0.44-0.242,0.749
					c-0.059,0.307-0.089,0.792-0.089,1.452c0,2.01,0.203,3.729,0.605,5.16c0.403,1.431,1.02,2.509,1.849,3.234
					c0.829,0.727,1.853,1.09,3.068,1.09c1.101,0,2.032-0.191,2.796-0.572c0.762-0.382,1.382-0.907,1.859-1.574
					c0.476-0.668,0.826-1.452,1.044-2.354c0.221-0.903,0.331-1.882,0.331-2.938c0-2.187-0.448-3.881-1.343-5.083
					C249.686,336.711,248.425,336.11,246.796,336.11z"/>
			</g>
			<g>
				<g>
					<path d="M141.288,197.095c-1.075,12.853-8.322,21.854-8.322,21.854h8.322h8.323
						C149.612,218.949,142.365,209.948,141.288,197.095z"/>
					<path d="M153.349,182.544c-1.656,0-3.231,0.336-4.665,0.942c-0.036-0.037-0.073-0.074-0.106-0.113
						c2.897-2.201,4.771-5.682,4.771-9.605c0-6.661-5.4-12.058-12.061-12.058c-6.66,0-12.059,5.397-12.059,12.058
						c0,4.195,2.144,7.892,5.396,10.051c-1.625-0.815-3.456-1.275-5.396-1.275c-6.661,0-12.06,5.4-12.06,12.061
						c0,6.66,5.398,12.058,12.06,12.058c6.485,0,11.771-5.119,12.045-11.535c0.009,0.006,0.018,0.011,0.027,0.018
						c0.284,6.408,5.567,11.516,12.047,11.516c6.658,0,12.057-5.398,12.057-12.058C165.406,187.943,160.007,182.544,153.349,182.544
						z"/>
				</g>
				<g>
					<g>
						<path d="M187.263,95.934c-1.075,12.853-8.323,21.854-8.323,21.854h8.323h8.323
							C195.585,117.788,188.339,108.787,187.263,95.934z"/>
						<path d="M199.323,81.382c-1.654,0-3.229,0.337-4.664,0.942c-0.037-0.037-0.072-0.074-0.108-0.113
							c2.899-2.201,4.771-5.682,4.771-9.604c0-6.661-5.399-12.058-12.061-12.058c-6.66,0-12.057,5.397-12.057,12.058
							c0,4.195,2.143,7.892,5.396,10.051c-1.624-0.815-3.457-1.275-5.396-1.275c-6.661,0-12.06,5.4-12.06,12.061
							c0,6.66,5.399,12.058,12.06,12.058c6.482,0,11.77-5.119,12.044-11.535c0.01,0.005,0.018,0.01,0.026,0.018
							c0.285,6.409,5.568,11.517,12.047,11.517c6.66,0,12.059-5.398,12.059-12.058C211.382,86.783,205.983,81.382,199.323,81.382z"
							/>
					</g>
					<g>
						<path d="M187.263,291.426c1.075-12.853,8.323-21.854,8.323-21.854h-8.323h-8.323
							C178.94,269.572,186.186,278.573,187.263,291.426z"/>
						<path d="M175.203,305.978c1.656,0,3.231-0.336,4.665-0.942c0.036,0.037,0.073,0.074,0.106,0.113
							c-2.898,2.202-4.771,5.682-4.771,9.604c0,6.661,5.4,12.058,12.06,12.058c6.66,0,12.059-5.397,12.059-12.058
							c0-4.195-2.144-7.892-5.396-10.051c1.624,0.815,3.456,1.276,5.396,1.276c6.662,0,12.061-5.4,12.061-12.06
							c0-6.66-5.398-12.059-12.061-12.059c-6.484,0-11.771,5.119-12.045,11.535c-0.009-0.005-0.018-0.01-0.026-0.019
							c-0.284-6.408-5.567-11.516-12.047-11.516c-6.658,0-12.057,5.398-12.057,12.059
							C163.145,300.578,168.544,305.978,175.203,305.978z"/>
					</g>
					<g>
						<path d="M187.263,165.609c-1.075,12.853-8.323,21.854-8.323,21.854h8.323h8.323
							C195.585,187.462,188.339,178.462,187.263,165.609z"/>
						<path d="M199.323,151.057c-1.654,0-3.229,0.337-4.664,0.942c-0.037-0.037-0.072-0.074-0.108-0.113
							c2.899-2.202,4.771-5.682,4.771-9.605c0-6.661-5.399-12.058-12.061-12.058c-6.66,0-12.057,5.397-12.057,12.058
							c0,4.195,2.143,7.892,5.396,10.052c-1.624-0.815-3.457-1.276-5.396-1.276c-6.661,0-12.06,5.4-12.06,12.061
							c0,6.66,5.399,12.059,12.06,12.059c6.482,0,11.77-5.12,12.044-11.535c0.01,0.005,0.018,0.011,0.026,0.019
							c0.285,6.408,5.568,11.517,12.047,11.517c6.66,0,12.059-5.398,12.059-12.059C211.382,156.457,205.983,151.057,199.323,151.057
							z"/>
					</g>
					<g>
						<path d="M187.263,221.751c-1.075-12.852-8.323-21.853-8.323-21.853h8.323h8.323
							C195.585,199.898,188.339,208.899,187.263,221.751z"/>
						<path d="M211.382,224.242c0-6.66-5.398-12.058-12.059-12.058c-6.479,0-11.762,5.108-12.047,11.516
							c-0.009,0.008-0.017,0.014-0.026,0.019c-0.275-6.416-5.562-11.534-12.044-11.534c-6.661,0-12.06,5.398-12.06,12.058
							c0,6.661,5.399,12.061,12.06,12.061c1.939,0,3.771-0.461,5.396-1.276c-3.253,2.16-5.396,5.856-5.396,10.051
							c0,6.661,5.397,12.058,12.057,12.058c6.662,0,12.061-5.397,12.061-12.058c0-3.922-1.872-7.403-4.771-9.604
							c0.036-0.039,0.071-0.076,0.108-0.113c1.434,0.605,3.009,0.942,4.664,0.942C205.983,236.304,211.382,230.903,211.382,224.242z
							"/>
					</g>
				</g>
				<g>
					<g>
						<path d="M95.313,95.934c-1.076,12.853-8.323,21.854-8.323,21.854h8.323h8.322C103.636,117.788,96.39,108.787,95.313,95.934z"
							/>
						<path d="M107.373,81.382c-1.653,0-3.229,0.337-4.664,0.942c-0.037-0.037-0.072-0.074-0.107-0.113
							c2.899-2.201,4.771-5.682,4.771-9.604c0-6.661-5.398-12.058-12.06-12.058c-6.661,0-12.058,5.397-12.058,12.058
							c0,4.195,2.143,7.892,5.396,10.051c-1.624-0.815-3.457-1.275-5.396-1.275c-6.662,0-12.061,5.4-12.061,12.061
							c0,6.66,5.399,12.058,12.061,12.058c6.482,0,11.77-5.119,12.044-11.535c0.01,0.005,0.018,0.01,0.026,0.018
							c0.285,6.409,5.569,11.517,12.047,11.517c6.66,0,12.059-5.398,12.059-12.058C119.432,86.783,114.033,81.382,107.373,81.382z"
							/>
					</g>
					<g>
						<path d="M95.313,165.609c-1.076,12.853-8.323,21.854-8.323,21.854h8.323h8.322C103.636,187.462,96.39,178.462,95.313,165.609z
							"/>
						<path d="M107.373,151.057c-1.653,0-3.229,0.337-4.664,0.942c-0.037-0.037-0.072-0.074-0.107-0.113
							c2.899-2.202,4.771-5.682,4.771-9.605c0-6.661-5.398-12.058-12.06-12.058c-6.661,0-12.058,5.397-12.058,12.058
							c0,4.195,2.143,7.892,5.396,10.052c-1.624-0.815-3.457-1.276-5.396-1.276c-6.662,0-12.061,5.4-12.061,12.061
							c0,6.66,5.399,12.059,12.061,12.059c6.482,0,11.77-5.12,12.044-11.535c0.01,0.005,0.018,0.011,0.026,0.019
							c0.285,6.408,5.569,11.517,12.047,11.517c6.66,0,12.059-5.398,12.059-12.059C119.432,156.457,114.033,151.057,107.373,151.057
							z"/>
					</g>
					<g>
						<path d="M95.313,221.751c-1.076-12.852-8.323-21.853-8.323-21.853h8.323h8.322C103.636,199.898,96.39,208.899,95.313,221.751z
							"/>
						<path d="M119.432,224.242c0-6.66-5.399-12.058-12.059-12.058c-6.478,0-11.762,5.108-12.047,11.516
							c-0.009,0.008-0.016,0.014-0.026,0.019c-0.274-6.416-5.562-11.534-12.044-11.534c-6.662,0-12.061,5.398-12.061,12.058
							c0,6.661,5.399,12.061,12.061,12.061c1.938,0,3.771-0.461,5.396-1.276c-3.253,2.16-5.396,5.856-5.396,10.051
							c0,6.661,5.397,12.058,12.058,12.058c6.661,0,12.06-5.397,12.06-12.058c0-3.922-1.872-7.403-4.771-9.604
							c0.036-0.039,0.071-0.076,0.107-0.113c1.434,0.605,3.01,0.942,4.664,0.942C114.033,236.304,119.432,230.903,119.432,224.242z"
							/>
					</g>
					<g>
						<path d="M95.313,291.426c1.074-12.853,8.322-21.854,8.322-21.854h-8.322H86.99C86.99,269.572,94.236,278.573,95.313,291.426z"
							/>
						<path d="M83.253,305.978c1.655,0,3.231-0.336,4.665-0.942c0.035,0.037,0.072,0.074,0.106,0.113
							c-2.897,2.202-4.771,5.682-4.771,9.604c0,6.661,5.4,12.058,12.061,12.058c6.659,0,12.059-5.397,12.059-12.058
							c0-4.195-2.145-7.892-5.396-10.051c1.624,0.815,3.455,1.276,5.396,1.276c6.661,0,12.06-5.4,12.06-12.06
							c0-6.66-5.399-12.059-12.06-12.059c-6.484,0-11.771,5.119-12.046,11.535c-0.009-0.005-0.018-0.01-0.026-0.019
							c-0.283-6.408-5.567-11.516-12.047-11.516c-6.659,0-12.058,5.398-12.058,12.059C71.195,300.578,76.594,305.978,83.253,305.978
							z"/>
					</g>
				</g>
			</g>
		</g>
	</g>
</g>
</svg>
