<?xml version="1.0" encoding="utf-8"?>
<!-- Generator: Adobe Illustrator 27.5.0, SVG Export Plug-In . SVG Version: 6.00 Build 0)  -->
<svg version="1.1" id="Layer_1" xmlns="http://www.w3.org/2000/svg" xmlns:xlink="http://www.w3.org/1999/xlink" x="0px" y="0px"
	 viewBox="0 0 293.411 398.199" style="enable-background:new 0 0 293.411 398.199;" xml:space="preserve">
<g>
	<g>
		<path style="fill:#FFFFFF;" d="M267.199,20.798c-0.086-0.003-0.172-0.004-0.258-0.004h-0.514c-0.043,0-0.087,0-0.13,0.001H37.316
			c-0.086,0-0.172,0.002-0.258,0.004c-7.587,0.205-18.877,6.37-18.877,22.51v11.786c-0.005,0.126-0.007,0.253-0.007,0.379v300.454
			c0,0.134,0.003,0.267,0.008,0.4v9.403c0,16.138,11.288,22.302,18.874,22.509c0.086,0.002,0.172,0.004,0.259,0.004h229.626
			c0.086,0,0.172-0.002,0.259-0.004c1.444-0.04,8.917-0.584,14.252-7.474c3.067-3.958,4.623-9.018,4.623-15.038V43.307
			C286.075,27.168,274.787,21.003,267.199,20.798z"/>
		<path style="fill:#F1F1F1;" d="M266.214,19.813c-0.086-0.002-0.172-0.004-0.258-0.004h-0.514c-0.044,0-0.087,0-0.13,0.001H36.331
			c-0.086,0-0.172,0.002-0.258,0.004c-7.587,0.226-18.876,6.37-18.876,22.51v11.785c-0.005,0.126-0.008,0.253-0.008,0.38v300.453
			c0,0.134,0.003,0.268,0.009,0.4v9.404c0,16.137,11.288,22.283,18.875,22.508c0.086,0.003,0.172,0.004,0.259,0.004h229.625
			c0.087,0,0.172-0.001,0.259-0.004c1.443-0.042,8.917-0.584,14.252-7.473c3.067-3.959,4.624-9.018,4.624-15.038V42.321
			C285.09,26.183,273.801,20.038,266.214,19.813z"/>
		<path style="fill:#E2E2E2;" d="M265.228,18.827c-0.086-0.003-0.172-0.004-0.258-0.004h-0.513c-0.044,0-0.087,0-0.13,0.001H35.346
			c-0.086,0-0.173,0.001-0.258,0.004c-7.587,0.227-18.876,6.37-18.876,22.51v11.785c-0.005,0.127-0.007,0.253-0.007,0.38v300.453
			c0,0.134,0.002,0.269,0.008,0.4v9.404c0,16.137,11.288,22.283,18.874,22.509c0.087,0.002,0.173,0.003,0.26,0.003H264.97
			c0.086,0,0.173-0.001,0.259-0.003c1.444-0.043,8.917-0.585,14.251-7.474c3.068-3.958,4.624-9.019,4.624-15.038V41.336
			C284.104,25.197,272.815,19.054,265.228,18.827z"/>
		<path style="fill:#D4D4D4;" d="M264.243,17.842c-0.086-0.003-0.172-0.004-0.258-0.004h-0.514c-0.044,0-0.087,0-0.13,0.001H34.359
			c-0.086,0-0.172,0.001-0.258,0.004c-7.587,0.227-18.876,6.37-18.876,22.511v11.784c-0.005,0.127-0.007,0.253-0.007,0.38v300.453
			c0,0.134,0.003,0.268,0.008,0.4v9.404c0,16.137,11.288,22.283,18.874,22.509c0.086,0.003,0.173,0.003,0.259,0.003h229.626
			c0.086,0,0.172,0,0.259-0.003c1.444-0.043,8.917-0.585,14.251-7.474c3.068-3.958,4.624-9.018,4.624-15.038V40.351
			C283.119,24.213,271.83,18.068,264.243,17.842z"/>
		<path style="fill:#C5C5C5;" d="M263.258,16.856c-0.086-0.003-0.172-0.004-0.258-0.004h-0.514c-0.043,0-0.087,0-0.13,0.001H33.375
			c-0.086,0-0.172,0.001-0.258,0.004c-7.587,0.227-18.876,6.371-18.876,22.511v11.785c-0.005,0.126-0.007,0.252-0.007,0.379v300.453
			c0,0.134,0.003,0.269,0.008,0.401v9.403c0,16.137,11.288,22.283,18.875,22.509c0.086,0.003,0.172,0.004,0.259,0.004H263
			c0.086,0,0.172-0.001,0.259-0.004c1.444-0.043,8.917-0.585,14.252-7.473c3.067-3.959,4.623-9.02,4.623-15.039V39.365
			C282.134,23.228,270.845,17.082,263.258,16.856z"/>
		<path style="fill:#B7B7B7;" d="M262.272,15.871c-0.086-0.003-0.172-0.004-0.258-0.004h-0.514c-0.044,0-0.087,0-0.13,0.001H32.389
			c-0.085,0-0.172,0.001-0.257,0.004c-7.587,0.227-18.876,6.371-18.876,22.511v11.785c-0.005,0.126-0.007,0.252-0.007,0.379V351
			c0,0.134,0.003,0.268,0.008,0.401v9.403c0,16.137,11.288,22.282,18.874,22.509c0.086,0.003,0.173,0.004,0.259,0.004h229.626
			c0.087,0,0.172-0.001,0.259-0.004c1.444-0.043,8.917-0.585,14.252-7.473c3.067-3.959,4.623-9.019,4.623-15.039V38.38
			C281.148,22.242,269.859,16.097,262.272,15.871z"/>
		<path style="fill:#A8A8A8;" d="M261.287,14.886c-0.085-0.003-0.172-0.004-0.258-0.004h-0.513c-0.044,0-0.087,0-0.131,0.001H31.403
			c-0.086,0-0.171,0.001-0.258,0.004c-7.587,0.226-18.876,6.371-18.876,22.511v11.785c-0.005,0.126-0.008,0.252-0.008,0.379v300.453
			c0,0.134,0.003,0.269,0.009,0.401v9.403c0,16.137,11.288,22.282,18.874,22.509c0.087,0.002,0.173,0.004,0.259,0.004h229.626
			c0.086,0,0.172-0.002,0.259-0.004c1.444-0.043,8.917-0.585,14.252-7.473c3.067-3.959,4.624-9.018,4.624-15.039V37.395
			C280.164,21.257,268.874,15.111,261.287,14.886z"/>
		<path style="fill:#9A9A9A;" d="M260.302,13.899c-0.086-0.002-0.172-0.003-0.258-0.003h-0.513c-0.044,0-0.087,0-0.13,0.001H30.418
			c-0.085,0-0.172,0.001-0.258,0.004c-7.587,0.226-18.876,6.371-18.876,22.511v11.784c-0.005,0.127-0.007,0.252-0.007,0.38v300.453
			c0,0.133,0.002,0.268,0.008,0.4v9.403c0,16.138,11.288,22.283,18.874,22.509c0.086,0.003,0.173,0.004,0.259,0.004h229.625
			c0.086,0,0.173-0.001,0.259-0.004c1.444-0.043,8.917-0.584,14.252-7.472c3.068-3.96,4.624-9.02,4.624-15.039V36.409
			C279.178,20.271,267.889,14.126,260.302,13.899z"/>
		<path style="fill:#8B8B8B;" d="M259.316,12.914c-0.086-0.002-0.172-0.003-0.258-0.003h-0.514c-0.043,0-0.087,0-0.13,0.001H29.433
			c-0.086,0-0.172,0.001-0.258,0.003c-7.587,0.227-18.876,6.371-18.876,22.511v11.785c-0.005,0.126-0.007,0.252-0.007,0.38v300.453
			c0,0.134,0.003,0.268,0.008,0.4v9.403c0,16.138,11.288,22.283,18.874,22.509c0.087,0.003,0.173,0.004,0.259,0.004h229.625
			c0.086,0,0.172-0.001,0.259-0.004c1.443-0.042,8.917-0.584,14.251-7.473c3.068-3.959,4.624-9.019,4.624-15.038V35.423
			C278.192,19.285,266.903,13.141,259.316,12.914z"/>
		<path style="fill:#7D7D7D;" d="M258.331,11.93c-0.086-0.002-0.172-0.004-0.258-0.004h-0.514c-0.044,0-0.087,0-0.13,0.001H28.448
			c-0.086,0-0.172,0.001-0.258,0.003C20.603,12.156,9.314,18.301,9.314,34.44v11.785c-0.005,0.126-0.008,0.253-0.008,0.38v300.453
			c0,0.134,0.003,0.268,0.008,0.4v9.403c0,16.138,11.289,22.283,18.875,22.509c0.086,0.003,0.172,0.004,0.259,0.004h229.626
			c0.086,0,0.172-0.001,0.259-0.004c1.443-0.042,8.917-0.584,14.252-7.473c3.067-3.959,4.622-9.019,4.622-15.039V34.438
			C277.207,18.3,265.918,12.155,258.331,11.93z"/>
		<path style="fill:#6E6E6E;" d="M257.345,10.944c-0.086-0.003-0.172-0.004-0.258-0.004h-0.514c-0.043,0-0.087,0-0.13,0.001H27.462
			c-0.086,0-0.172,0.001-0.258,0.004c-7.586,0.226-18.876,6.37-18.876,22.51V45.24c-0.005,0.126-0.008,0.253-0.008,0.38v300.453
			c0,0.134,0.003,0.268,0.009,0.4v9.403c0,16.138,11.288,22.283,18.874,22.509c0.086,0.003,0.173,0.004,0.259,0.004h229.626
			c0.086,0,0.172-0.001,0.259-0.004c1.444-0.042,8.917-0.584,14.252-7.473c3.067-3.958,4.624-9.019,4.624-15.038V33.453
			C276.222,17.314,264.932,11.17,257.345,10.944z"/>
		<path style="fill:#606060;" d="M256.36,9.959c-0.085-0.003-0.172-0.004-0.258-0.004h-0.513c-0.044,0-0.087,0-0.13,0.001H26.477
			c-0.086,0-0.172,0.001-0.258,0.004c-7.587,0.206-18.876,6.37-18.876,22.51v11.785c-0.005,0.126-0.007,0.253-0.007,0.38v300.453
			c0,0.134,0.003,0.268,0.008,0.4v9.404c0,16.137,11.287,22.302,18.874,22.508c0.086,0.003,0.173,0.004,0.259,0.004h229.625
			c0.087,0,0.173-0.001,0.259-0.004c1.444-0.038,8.917-0.584,14.252-7.473c3.067-3.958,4.624-9.019,4.624-15.038V32.468
			C275.236,16.329,263.947,10.165,256.36,9.959z"/>
	</g>
	<path style="fill:#FFFFFF;" d="M256.36,9.959c-0.085-0.003-0.172-0.004-0.258-0.004h-0.513c-0.044,0-0.087,0-0.13,0.001H26.477
		c-0.086,0-0.172,0.001-0.258,0.004c-7.587,0.206-18.876,6.37-18.876,22.51v11.785c-0.005,0.126-0.007,0.253-0.007,0.38v300.453
		c0,0.134,0.003,0.268,0.008,0.4v9.404c0,16.137,11.287,22.302,18.874,22.508c0.086,0.003,0.173,0.004,0.259,0.004h229.625
		c0.087,0,0.173-0.001,0.259-0.004c1.444-0.038,8.917-0.584,14.252-7.473c3.067-3.958,4.624-9.019,4.624-15.038V32.468
		C275.236,16.329,263.947,10.165,256.36,9.959z"/>
	<g>
		<g>
			<g>
				<path style="fill:#FFFFFF;" d="M256.102,19.456H145.976h-9.373H26.477c0,0-9.634,0.262-9.634,13.014l0.001,86.915v148.59v86.918
					c0,12.749,9.633,13.012,9.633,13.012h110.126h9.373h110.126c0,0,9.633-0.263,9.633-13.012v-86.918v-148.59V32.47
					C265.735,19.718,256.102,19.456,256.102,19.456z"/>
				<defs>
					<filter id="Adobe_OpacityMaskFilter" filterUnits="userSpaceOnUse" x="16.844" y="207.504" width="248.891" height="160.4">
						<feFlood  style="flood-color:white;flood-opacity:1" result="back"/>
						<feBlend  in="SourceGraphic" in2="back" mode="normal"/>
					</filter>
				</defs>
				<mask maskUnits="userSpaceOnUse" x="16.844" y="207.504" width="248.891" height="160.4" id="SVGID_1_">
					<g style="filter:url(#Adobe_OpacityMaskFilter);">
						<defs>
							
								<filter id="Adobe_OpacityMaskFilter_00000052798020385459188120000000199345061486741899_" filterUnits="userSpaceOnUse" x="16.844" y="207.504" width="248.891" height="160.4">
								<feFlood  style="flood-color:white;flood-opacity:1" result="back"/>
								<feBlend  in="SourceGraphic" in2="back" mode="normal"/>
							</filter>
						</defs>
						<mask maskUnits="userSpaceOnUse" x="16.844" y="207.504" width="248.891" height="160.4" id="SVGID_1_">
							<g style="filter:url(#Adobe_OpacityMaskFilter_00000052798020385459188120000000199345061486741899_);">
							</g>
						</mask>
						
							<radialGradient id="SVGID_00000000191166099767337790000007857060521540940928_" cx="137.438" cy="-99.3356" r="503.8668" gradientUnits="userSpaceOnUse">
							<stop  offset="0.6156" style="stop-color:#000000"/>
							<stop  offset="0.7516" style="stop-color:#020202"/>
							<stop  offset="0.8037" style="stop-color:#090909"/>
							<stop  offset="0.8413" style="stop-color:#151515"/>
							<stop  offset="0.8721" style="stop-color:#262626"/>
							<stop  offset="0.8986" style="stop-color:#3C3C3C"/>
							<stop  offset="0.9222" style="stop-color:#585858"/>
							<stop  offset="0.9436" style="stop-color:#797979"/>
							<stop  offset="0.9634" style="stop-color:#9F9F9F"/>
							<stop  offset="0.9817" style="stop-color:#CBCBCB"/>
							<stop  offset="0.9982" style="stop-color:#F9F9F9"/>
							<stop  offset="1" style="stop-color:#FFFFFF"/>
						</radialGradient>
						<path style="mask:url(#SVGID_1_);fill:url(#SVGID_00000000191166099767337790000007857060521540940928_);" d="
							M163.595,207.517c-48.917,0.011-97.834,0.031-146.751,0.052v147.324c0,12.749,9.633,13.012,9.633,13.012h229.625
							c0,0,9.633-0.263,9.633-13.012V207.504C231.688,207.508,197.642,207.51,163.595,207.517z"/>
					</g>
				</mask>
				
					<radialGradient id="SVGID_00000106867194831415360110000015756894929789210553_" cx="137.438" cy="-99.3356" r="503.8668" gradientUnits="userSpaceOnUse">
					<stop  offset="0.6156" style="stop-color:#FFFFFF"/>
					<stop  offset="0.7878" style="stop-color:#FDFDFD"/>
					<stop  offset="0.8537" style="stop-color:#F6F6F6"/>
					<stop  offset="0.9014" style="stop-color:#EAEAEA"/>
					<stop  offset="0.9403" style="stop-color:#D9D9D9"/>
					<stop  offset="0.9735" style="stop-color:#C3C3C3"/>
					<stop  offset="1" style="stop-color:#ABABAB"/>
				</radialGradient>
				<path style="fill:url(#SVGID_00000106867194831415360110000015756894929789210553_);" d="M163.595,207.517
					c-48.917,0.011-97.834,0.031-146.751,0.052v147.324c0,12.749,9.633,13.012,9.633,13.012h229.625c0,0,9.633-0.263,9.633-13.012
					V207.504C231.688,207.508,197.642,207.51,163.595,207.517z"/>
				<defs>
					
						<filter id="Adobe_OpacityMaskFilter_00000134968460590493995170000011645682186092000387_" filterUnits="userSpaceOnUse" x="16.843" y="19.456" width="248.892" height="173.936">
						<feFlood  style="flood-color:white;flood-opacity:1" result="back"/>
						<feBlend  in="SourceGraphic" in2="back" mode="normal"/>
					</filter>
				</defs>
				
					<mask maskUnits="userSpaceOnUse" x="16.843" y="19.456" width="248.892" height="173.936" id="SVGID_00000003810220460075229290000010354899404909100172_">
					<g style="filter:url(#Adobe_OpacityMaskFilter_00000134968460590493995170000011645682186092000387_);">
						<defs>
							
								<filter id="Adobe_OpacityMaskFilter_00000061429920268977921700000013023560082382218139_" filterUnits="userSpaceOnUse" x="16.843" y="19.456" width="248.892" height="173.936">
								<feFlood  style="flood-color:white;flood-opacity:1" result="back"/>
								<feBlend  in="SourceGraphic" in2="back" mode="normal"/>
							</filter>
						</defs>
						
							<mask maskUnits="userSpaceOnUse" x="16.843" y="19.456" width="248.892" height="173.936" id="SVGID_00000003810220460075229290000010354899404909100172_">
							<g style="filter:url(#Adobe_OpacityMaskFilter_00000061429920268977921700000013023560082382218139_);">
							</g>
						</mask>
						
							<radialGradient id="SVGID_00000086693084315246016200000014457235106676884363_" cx="142.423" cy="341.0055" r="361.0517" gradientUnits="userSpaceOnUse">
							<stop  offset="0.6156" style="stop-color:#000000"/>
							<stop  offset="0.7096" style="stop-color:#020202"/>
							<stop  offset="0.7623" style="stop-color:#0A0A0A"/>
							<stop  offset="0.8047" style="stop-color:#181818"/>
							<stop  offset="0.8418" style="stop-color:#2C2C2C"/>
							<stop  offset="0.8752" style="stop-color:#464646"/>
							<stop  offset="0.9062" style="stop-color:#656565"/>
							<stop  offset="0.9352" style="stop-color:#8A8A8A"/>
							<stop  offset="0.9626" style="stop-color:#B6B6B6"/>
							<stop  offset="0.9879" style="stop-color:#E5E5E5"/>
							<stop  offset="1" style="stop-color:#FFFFFF"/>
						</radialGradient>
						
							<path style="mask:url(#SVGID_00000003810220460075229290000010354899404909100172_);fill:url(#SVGID_00000086693084315246016200000014457235106676884363_);" d="
							M16.844,193.303c20.945,0.016,41.891,0.032,62.836,0.044c60.363,0.034,120.725,0.038,181.087,0.046c1.656,0,3.312,0,4.968,0
							V32.47c0-12.752-9.633-13.014-9.633-13.014H26.477c0,0-9.634,0.262-9.634,13.014l0.001,86.915V193.303z"/>
					</g>
				</mask>
				
					<radialGradient id="SVGID_00000103232737965981736010000006245771300186012087_" cx="142.423" cy="341.0055" r="361.0517" gradientUnits="userSpaceOnUse">
					<stop  offset="0.6156" style="stop-color:#FFFFFF"/>
					<stop  offset="0.747" style="stop-color:#FDFDFD"/>
					<stop  offset="0.8206" style="stop-color:#F5F5F5"/>
					<stop  offset="0.8799" style="stop-color:#E7E7E7"/>
					<stop  offset="0.9316" style="stop-color:#D3D3D3"/>
					<stop  offset="0.9778" style="stop-color:#BABABA"/>
					<stop  offset="1" style="stop-color:#ABABAB"/>
				</radialGradient>
				<path style="fill:url(#SVGID_00000103232737965981736010000006245771300186012087_);" d="M16.844,193.303
					c20.945,0.016,41.891,0.032,62.836,0.044c60.363,0.034,120.725,0.038,181.087,0.046c1.656,0,3.312,0,4.968,0V32.47
					c0-12.752-9.633-13.014-9.633-13.014H26.477c0,0-9.634,0.262-9.634,13.014l0.001,86.915V193.303z"/>
			</g>
			<g>
				<defs>
					
						<filter id="Adobe_OpacityMaskFilter_00000170269711886129831320000004510007345058095515_" filterUnits="userSpaceOnUse" x="21.427" y="19.455" width="244.309" height="348.448">
						<feFlood  style="flood-color:white;flood-opacity:1" result="back"/>
						<feBlend  in="SourceGraphic" in2="back" mode="normal"/>
					</filter>
				</defs>
				
					<mask maskUnits="userSpaceOnUse" x="21.427" y="19.455" width="244.309" height="348.448" id="SVGID_00000070815475919405619890000010629379912809119150_">
					<g style="filter:url(#Adobe_OpacityMaskFilter_00000170269711886129831320000004510007345058095515_);">
						<defs>
							
								<filter id="Adobe_OpacityMaskFilter_00000146467873833567800780000007709273928198091144_" filterUnits="userSpaceOnUse" x="21.427" y="19.455" width="244.309" height="348.448">
								<feFlood  style="flood-color:white;flood-opacity:1" result="back"/>
								<feBlend  in="SourceGraphic" in2="back" mode="normal"/>
							</filter>
						</defs>
						
							<mask maskUnits="userSpaceOnUse" x="21.427" y="19.455" width="244.309" height="348.448" id="SVGID_00000070815475919405619890000010629379912809119150_">
							<g style="filter:url(#Adobe_OpacityMaskFilter_00000146467873833567800780000007709273928198091144_);">
							</g>
						</mask>
						
							<radialGradient id="SVGID_00000032632685859280955890000011315609402142559129_" cx="6.1961" cy="19.2982" r="400.8942" gradientUnits="userSpaceOnUse">
							<stop  offset="0.0988" style="stop-color:#000000"/>
							<stop  offset="1" style="stop-color:#FFFFFF"/>
						</radialGradient>
						
							<path style="mask:url(#SVGID_00000070815475919405619890000010629379912809119150_);fill:url(#SVGID_00000032632685859280955890000011315609402142559129_);" d="
							M265.231,32.449v86.79v148.375l0.002,86.79c0,12.734-9.645,12.994-9.645,12.994H145.352h-9.383H25.73
							c0,0-2.078-0.058-4.304-1.391c2.482,1.82,5.05,1.895,5.05,1.895h110.128h9.372h110.125c0,0,9.634-0.263,9.634-13.014v-86.915
							V119.384V32.468c0-12.751-9.634-13.013-9.634-13.013h-0.514C255.588,19.455,265.231,19.717,265.231,32.449z"/>
					</g>
				</mask>
				
					<radialGradient id="SVGID_00000156552981539223475270000002810528595245929600_" cx="6.1961" cy="19.2982" r="400.8942" gradientUnits="userSpaceOnUse">
					<stop  offset="0.0988" style="stop-color:#FFFFFF"/>
					<stop  offset="1" style="stop-color:#ABABAB"/>
				</radialGradient>
				<path style="fill:url(#SVGID_00000156552981539223475270000002810528595245929600_);" d="M265.231,32.449v86.79v148.375
					l0.002,86.79c0,12.734-9.645,12.994-9.645,12.994H145.352h-9.383H25.73c0,0-2.078-0.058-4.304-1.391
					c2.482,1.82,5.05,1.895,5.05,1.895h110.128h9.372h110.125c0,0,9.634-0.263,9.634-13.014v-86.915V119.384V32.468
					c0-12.751-9.634-13.013-9.634-13.013h-0.514C255.588,19.455,265.231,19.717,265.231,32.449z"/>
			</g>
			<defs>
				
					<filter id="Adobe_OpacityMaskFilter_00000112615979474306300210000007460238605069043377_" filterUnits="userSpaceOnUse" x="16.843" y="19.456" width="244.31" height="348.448">
					<feFlood  style="flood-color:white;flood-opacity:1" result="back"/>
					<feBlend  in="SourceGraphic" in2="back" mode="normal"/>
				</filter>
			</defs>
			
				<mask maskUnits="userSpaceOnUse" x="16.843" y="19.456" width="244.31" height="348.448" id="SVGID_00000102518551579138872600000002711681467055753406_">
				<g style="filter:url(#Adobe_OpacityMaskFilter_00000112615979474306300210000007460238605069043377_);">
					<defs>
						
							<filter id="Adobe_OpacityMaskFilter_00000153676739433569315960000006570994625369760440_" filterUnits="userSpaceOnUse" x="16.843" y="19.456" width="244.31" height="348.448">
							<feFlood  style="flood-color:white;flood-opacity:1" result="back"/>
							<feBlend  in="SourceGraphic" in2="back" mode="normal"/>
						</filter>
					</defs>
					
						<mask maskUnits="userSpaceOnUse" x="16.843" y="19.456" width="244.31" height="348.448" id="SVGID_00000102518551579138872600000002711681467055753406_">
						<g style="filter:url(#Adobe_OpacityMaskFilter_00000153676739433569315960000006570994625369760440_);">
						</g>
					</mask>
					
						<radialGradient id="SVGID_00000145774352564229646010000015742977435881859493_" cx="84.8277" cy="120.8646" r="341.4546" gradientUnits="userSpaceOnUse">
						<stop  offset="0" style="stop-color:#000000"/>
						<stop  offset="0.0074" style="stop-color:#090909"/>
						<stop  offset="0.0477" style="stop-color:#373737"/>
						<stop  offset="0.0931" style="stop-color:#626262"/>
						<stop  offset="0.1419" style="stop-color:#888888"/>
						<stop  offset="0.195" style="stop-color:#A8A8A8"/>
						<stop  offset="0.2537" style="stop-color:#C4C4C4"/>
						<stop  offset="0.32" style="stop-color:#DADADA"/>
						<stop  offset="0.3974" style="stop-color:#EBEBEB"/>
						<stop  offset="0.4931" style="stop-color:#F6F6F6"/>
						<stop  offset="0.6274" style="stop-color:#FDFDFD"/>
						<stop  offset="1" style="stop-color:#FFFFFF"/>
					</radialGradient>
					
						<path style="mask:url(#SVGID_00000102518551579138872600000002711681467055753406_);fill:url(#SVGID_00000145774352564229646010000015742977435881859493_);" d="
						M17.347,354.911v-86.792V119.745v-86.79c0-12.733,9.643-12.995,9.643-12.995h110.238h9.381H256.85c0,0,2.076,0.059,4.303,1.392
						c-2.484-1.821-5.051-1.896-5.051-1.896H145.976h-9.373H26.477c0,0-9.634,0.262-9.634,13.014l0.001,86.915v148.59v86.918
						c0,12.749,9.633,13.012,9.633,13.012h0.513C26.99,367.904,17.347,367.642,17.347,354.911z"/>
				</g>
			</mask>
			
				<radialGradient id="SVGID_00000096032399989109751830000010848946035140732546_" cx="84.8277" cy="120.8646" r="341.4546" gradientUnits="userSpaceOnUse">
				<stop  offset="0" style="stop-color:#FFFFFF"/>
				<stop  offset="0.1413" style="stop-color:#FFFFFF"/>
				<stop  offset="1" style="stop-color:#FFFFFF"/>
			</radialGradient>
			<path style="fill:url(#SVGID_00000096032399989109751830000010848946035140732546_);" d="M17.347,354.911v-86.792V119.745v-86.79
				c0-12.733,9.643-12.995,9.643-12.995h110.238h9.381H256.85c0,0,2.076,0.059,4.303,1.392c-2.484-1.821-5.051-1.896-5.051-1.896
				H145.976h-9.373H26.477c0,0-9.634,0.262-9.634,13.014l0.001,86.915v148.59v86.918c0,12.749,9.633,13.012,9.633,13.012h0.513
				C26.99,367.904,17.347,367.642,17.347,354.911z"/>
			<g>
				<defs>
					
						<filter id="Adobe_OpacityMaskFilter_00000145019464465867609270000001157588699678984087_" filterUnits="userSpaceOnUse" x="16.835" y="44.634" width="0.505" height="300.455">
						<feFlood  style="flood-color:white;flood-opacity:1" result="back"/>
						<feBlend  in="SourceGraphic" in2="back" mode="normal"/>
					</filter>
				</defs>
				
					<mask maskUnits="userSpaceOnUse" x="16.835" y="44.634" width="0.505" height="300.455" id="SVGID_00000077289807165811226410000002197269729798889128_">
					<g style="filter:url(#Adobe_OpacityMaskFilter_00000145019464465867609270000001157588699678984087_);">
						<defs>
							
								<filter id="Adobe_OpacityMaskFilter_00000110448685560749394750000014664564697120652683_" filterUnits="userSpaceOnUse" x="16.835" y="44.634" width="0.505" height="300.455">
								<feFlood  style="flood-color:white;flood-opacity:1" result="back"/>
								<feBlend  in="SourceGraphic" in2="back" mode="normal"/>
							</filter>
						</defs>
						
							<mask maskUnits="userSpaceOnUse" x="16.835" y="44.634" width="0.505" height="300.455" id="SVGID_00000077289807165811226410000002197269729798889128_">
							<g style="filter:url(#Adobe_OpacityMaskFilter_00000110448685560749394750000014664564697120652683_);">
							</g>
						</mask>
						
							<radialGradient id="SVGID_00000178915066746599390000000006292998055645158313_" cx="340.9061" cy="19.2967" r="400.9793" gradientTransform="matrix(-1 0 0 1 617.418 0)" gradientUnits="userSpaceOnUse">
							<stop  offset="0.0988" style="stop-color:#000000"/>
							<stop  offset="1" style="stop-color:#FFFFFF"/>
						</radialGradient>
						
							<path style="mask:url(#SVGID_00000077289807165811226410000002197269729798889128_);fill:url(#SVGID_00000178915066746599390000000006292998055645158313_);" d="
							M16.835,44.634v300.455c0.168-0.608,0.334-1.218,0.504-1.826l0.001-75.648V50.08C17.168,48.265,17,46.449,16.835,44.634z"/>
					</g>
				</mask>
				
					<radialGradient id="SVGID_00000113322619189000659590000017182244886620835244_" cx="340.9061" cy="19.2967" r="400.9793" gradientTransform="matrix(-1 0 0 1 617.418 0)" gradientUnits="userSpaceOnUse">
					<stop  offset="0.0988" style="stop-color:#FFFFFF"/>
					<stop  offset="1" style="stop-color:#ABABAB"/>
				</radialGradient>
				<path style="fill:url(#SVGID_00000113322619189000659590000017182244886620835244_);" d="M16.835,44.634v300.455
					c0.168-0.608,0.334-1.218,0.504-1.826l0.001-75.648V50.08C17.168,48.265,17,46.449,16.835,44.634z"/>
			</g>
		</g>
		<g>
			<g>
				<path style="fill:#FF2601;" d="M44.438,86.751c-5.195,3.811-7.761,7.795-7.828,7.897v0.006l-0.002-0.003l-0.001,0.003v-0.006
					c-0.066-0.103-2.634-4.087-7.828-7.897c-5.263-3.861-6.461-8.677-4.578-12.312c1.883-3.634,9.411-5.404,12.407,1.814
					c2.997-7.219,10.525-5.448,12.408-1.814C50.899,78.074,49.702,82.89,44.438,86.751z"/>
				<path style="fill:#FF2601;" d="M40.229,64.774v-1.077c0.732-0.147,1.279-0.309,1.64-0.484c0.36-0.176,0.627-0.421,0.803-0.737
					c0.176-0.315,0.265-0.736,0.265-1.265c0-0.499-0.06-1.038-0.178-1.617c-0.117-0.58-0.285-1.229-0.504-1.947l-0.814-2.838H31.185
					l-0.749,2.155c-0.381,1.086-0.631,1.907-0.747,2.465c-0.118,0.558-0.177,1.063-0.177,1.519c0,0.879,0.224,1.525,0.672,1.935
					c0.448,0.412,1.132,0.685,2.057,0.815v1.077h-9.395v-1.077c0.821-0.131,1.536-0.609,2.144-1.431
					c0.61-0.821,1.201-1.995,1.772-3.521l9.175-24.358h3.478l7.48,24.533c0.354,1.145,0.664,2.018,0.936,2.619
					c0.271,0.601,0.598,1.07,0.979,1.408c0.381,0.338,0.902,0.587,1.563,0.748v1.077H40.229z M31.779,52.894h9.199l-4.182-14.192
					L31.779,52.894z"/>
			</g>
			<g>
				<path style="fill:#FF2601;" d="M237.461,300.03c5.195-3.81,7.762-7.794,7.828-7.897v-0.006l0.002,0.003l0.001-0.003v0.006
					c0.066,0.103,2.634,4.088,7.828,7.897c5.262,3.861,6.459,8.678,4.578,12.312c-1.884,3.634-9.412,5.404-12.408-1.814
					c-2.996,7.218-10.525,5.447-12.407,1.814C231.001,308.708,232.198,303.892,237.461,300.03z"/>
				<path style="fill:#FF2601;" d="M241.67,322.007v1.078c-0.732,0.147-1.279,0.308-1.639,0.484
					c-0.36,0.175-0.627,0.421-0.803,0.736c-0.176,0.314-0.264,0.737-0.264,1.266c0,0.498,0.059,1.037,0.177,1.617
					c0.117,0.579,0.285,1.228,0.505,1.947l0.814,2.838h10.254l0.749-2.156c0.381-1.085,0.63-1.906,0.748-2.464
					c0.118-0.558,0.177-1.063,0.177-1.518c0-0.88-0.225-1.527-0.672-1.936c-0.448-0.411-1.133-0.683-2.057-0.815v-1.078h9.396v1.078
					c-0.821,0.132-1.537,0.609-2.145,1.431c-0.61,0.82-1.201,1.994-1.772,3.52l-9.175,24.357h-3.477l-7.481-24.533
					c-0.352-1.145-0.663-2.017-0.934-2.617c-0.271-0.603-0.598-1.072-0.979-1.41c-0.38-0.336-0.901-0.587-1.561-0.747v-1.078H241.67
					z M250.12,333.889h-9.198l4.182,14.192L250.12,333.889z"/>
			</g>
			<path style="fill:#FF2601;" d="M156.782,201.193c-10.309,7.563-15.402,15.469-15.535,15.676v0.011l-0.003-0.006l-0.003,0.006
				v-0.011c-0.133-0.207-5.227-8.113-15.535-15.676c-10.446-7.665-12.823-17.222-9.087-24.434
				c3.736-7.212,18.677-10.728,24.625,3.599c5.945-14.326,20.89-10.811,24.626-3.599
				C169.607,183.972,167.229,193.528,156.782,201.193z"/>
		</g>
	</g>
</g>
</svg>
