<?xml version="1.0" encoding="utf-8"?>
<!-- Generator: Adobe Illustrator 27.5.0, SVG Export Plug-In . SVG Version: 6.00 Build 0)  -->
<svg version="1.1" id="Layer_1" xmlns="http://www.w3.org/2000/svg" xmlns:xlink="http://www.w3.org/1999/xlink" x="0px" y="0px"
	 viewBox="0 0 2000 2000" style="enable-background:new 0 0 2000 2000;" xml:space="preserve">
<rect style="fill:#FFFFFF;" width="2000" height="2000"/>
<g>
	<g>
		<g>
			<path style="fill:#FFFFFF;" d="M592.479,1826.357c-49.075,0-88.999-39.925-88.999-88.999V263.499
				c0-49.074,39.924-88.999,88.999-88.999h815.633c49.075,0,88.999,39.925,88.999,88.999v1473.859
				c0,49.075-39.925,88.999-88.999,88.999H592.479z"/>
		</g>
		<g>
			<path d="M1408.102,177.683c47.319,0,85.816,38.497,85.816,85.816v1473.859c0,47.319-38.497,85.816-85.816,85.816H592.469
				c-47.319,0-85.816-38.497-85.816-85.816V263.499c0-47.319,38.497-85.816,85.816-85.816H1408.102 M1408.102,171.315H592.469
				c-50.912,0-92.184,41.272-92.184,92.184v1473.859c0,50.912,41.272,92.184,92.184,92.184h815.633
				c50.911,0,92.184-41.272,92.184-92.184V263.499C1500.286,212.587,1459.014,171.315,1408.102,171.315L1408.102,171.315z"/>
		</g>
	</g>
	<g>
		<path d="M1067.002,965.099c-0.346,0-0.688,0.014-1.032,0.019c4.217-9.02,6.508-19.063,6.368-29.638
			c-0.503-37.805-32.472-68.555-71.534-68.821c-40.034-0.272-72.575,31.056-72.575,69.74c0,8.909,1.729,17.427,4.875,25.259
			c-39.798,0.245-71.942,31.712-71.589,70.368c0.353,38.548,33.394,69.711,73.218,69.101c21.876-0.335,41.381-10.108,54.367-25.294
			c0.68-0.795,2.046-0.289,1.944,0.739c-0.032,0.326-0.088,0.658-0.169,0.993c-4.172,17.207-9.824,33.047-17.433,45.774
			c-2.885,4.822,0.662,10.861,6.417,10.861h38.64c5.762,0,9.301-6.04,6.417-10.861c-7.587-12.685-13.223-28.474-17.396-45.624
			c-0.003-0.012-0.006-0.024-0.009-0.037c-0.261-1.096,1.249-1.755,1.949-0.857c12.929,16.576,33.324,27.39,56.347,27.752
			c39.887,0.627,72.969-30.621,73.25-69.23C1139.34,996.595,1106.971,965.099,1067.002,965.099z"/>
		<path d="M1018.501,1134.861h-38.64c-2.993,0-5.642-1.519-7.085-4.064c-1.391-2.453-1.353-5.368,0.101-7.798
			c7.037-11.77,12.876-27.109,17.358-45.59c0.073-0.305,0.124-0.605,0.154-0.903c0.021-0.219-0.137-0.32-0.234-0.361
			c-0.151-0.065-0.388-0.073-0.551,0.117c-13.594,15.896-33.589,25.199-54.86,25.526c-19.927,0.281-38.636-7.114-52.754-20.89
			c-13.461-13.136-20.967-30.49-21.135-48.866c-0.168-18.415,6.961-35.891,20.076-49.208c13.52-13.728,31.673-21.453,51.208-21.815
			c-3.033-7.865-4.57-16.14-4.57-24.61c0-18.466,7.331-35.917,20.641-49.137c13.818-13.725,32.293-21.265,52.07-21.265
			c0.176,0,0.352,0.001,0.529,0.002c39.3,0.267,71.684,31.432,72.191,69.472c0.134,10.081-1.88,19.822-5.99,28.968
			c19.968,0.002,38.588,7.681,52.429,21.623c13.213,13.309,20.416,30.814,20.282,49.286c-0.134,18.405-7.627,35.792-21.1,48.959
			c-14.13,13.808-32.865,21.245-52.821,20.927c-22.526-0.354-43.25-10.562-56.857-28.007c-0.207-0.265-0.508-0.14-0.566-0.112
			c-0.106,0.051-0.276,0.172-0.219,0.41c4.493,18.47,10.321,33.758,17.329,45.475c1.455,2.432,1.493,5.347,0.102,7.8
			C1024.144,1133.342,1021.496,1134.861,1018.501,1134.861z M989.952,1074.781c0.241,0,0.486,0.048,0.72,0.148
			c0.699,0.297,1.103,0.968,1.031,1.707c-0.035,0.356-0.096,0.717-0.184,1.083c-4.513,18.612-10.404,34.074-17.508,45.958
			c-1.206,2.017-1.239,4.434-0.085,6.467c1.205,2.126,3.424,3.394,5.935,3.394h38.64c2.513,0,4.732-1.268,5.937-3.392
			c1.153-2.034,1.12-4.452-0.087-6.469c-7.076-11.831-12.955-27.243-17.471-45.808c-0.196-0.822,0.178-1.589,0.922-1.946
			c0.771-0.372,1.668-0.169,2.181,0.49c13.36,17.128,33.712,27.151,55.836,27.499c19.599,0.325,38.001-6.99,51.876-20.551
			c13.219-12.918,20.571-29.974,20.702-48.023c0.132-18.119-6.935-35.288-19.898-48.346c-13.593-13.692-31.881-21.232-51.497-21.232
			c-0.208,0-0.415,0.005-0.622,0.01l-0.401,0.008c-0.234,0.003-0.441-0.11-0.565-0.302c-0.123-0.191-0.14-0.432-0.044-0.639
			c4.321-9.241,6.442-19.116,6.306-29.349c-0.497-37.326-32.293-67.906-70.878-68.168c-19.641-0.17-37.969,7.281-51.658,20.879
			c-13.059,12.971-20.251,30.088-20.251,48.2c0,8.622,1.624,17.038,4.827,25.013c0.082,0.203,0.057,0.433-0.064,0.615
			c-0.122,0.181-0.326,0.291-0.545,0.292c-19.547,0.12-37.743,7.732-51.235,21.432c-12.867,13.065-19.862,30.207-19.696,48.269
			c0.165,18.021,7.53,35.044,20.737,47.932c13.864,13.528,32.336,20.813,51.81,20.514c20.892-0.32,40.529-9.455,53.876-25.063
			C988.945,1074.999,989.44,1074.781,989.952,1074.781z"/>
	</g>
	<g>
		<g>
			<g>
				<path d="M643.345,415.227c-0.143,0-0.284,0.006-0.426,0.008c1.741-3.725,2.688-7.873,2.63-12.24
					c-0.208-15.613-13.411-28.313-29.543-28.422c-16.533-0.112-29.973,12.826-29.973,28.802c0,3.679,0.714,7.197,2.013,10.432
					c-16.436,0.101-29.712,13.097-29.565,29.061c0.146,15.92,13.791,28.79,30.238,28.538c9.035-0.138,17.09-4.175,22.453-10.446
					c0.281-0.329,0.845-0.119,0.803,0.305c-0.013,0.135-0.036,0.272-0.07,0.41c-1.723,7.106-4.057,13.648-7.199,18.904
					c-1.191,1.991,0.273,4.486,2.65,4.486h15.958c2.38,0,3.841-2.494,2.65-4.486c-3.133-5.238-5.461-11.759-7.184-18.842
					c-0.001-0.005-0.002-0.01-0.004-0.015c-0.108-0.453,0.516-0.725,0.805-0.354c5.34,6.845,13.763,11.312,23.271,11.461
					c16.473,0.259,30.135-12.646,30.252-28.591C673.22,428.235,659.852,415.227,643.345,415.227z"/>
				<path d="M623.315,485.701h-15.958c-1.369,0-2.581-0.697-3.242-1.863c-0.64-1.128-0.623-2.469,0.045-3.587
					c2.84-4.749,5.206-10.921,7.035-18.352c-5.667,6.323-13.814,10.01-22.465,10.142c-8.334,0.128-16.146-2.973-22.046-8.73
					c-5.63-5.493-8.768-12.752-8.839-20.439c-0.07-7.703,2.911-15.012,8.396-20.581c5.532-5.617,12.919-8.83,20.887-9.104
					c-1.149-3.146-1.731-6.443-1.731-9.814c0-7.724,3.066-15.023,8.632-20.552c5.827-5.787,13.586-8.967,21.982-8.887
					c16.427,0.111,29.964,13.143,30.175,29.05c0.053,4.031-0.715,7.931-2.284,11.61c8.134,0.139,15.7,3.335,21.357,9.032
					c5.525,5.566,8.538,12.887,8.482,20.614c-0.056,7.699-3.189,14.971-8.823,20.477c-5.905,5.77-13.711,8.876-22.075,8.747
					c-9.13-0.144-17.552-4.162-23.24-11.055c1.817,7.215,4.139,13.21,6.908,17.84c0.669,1.118,0.686,2.459,0.047,3.588
					C625.897,485.005,624.684,485.701,623.315,485.701z M611.524,460.161c0.147,0,0.298,0.03,0.441,0.091
					c0.438,0.187,0.691,0.609,0.644,1.076c-0.016,0.162-0.044,0.329-0.084,0.497c-1.873,7.723-4.319,14.142-7.272,19.08
					c-0.43,0.72-0.442,1.581-0.03,2.305c0.432,0.762,1.23,1.217,2.134,1.217h15.958c0.905,0,1.703-0.455,2.135-1.216
					c0.41-0.725,0.399-1.586-0.032-2.305c-2.942-4.919-5.383-11.318-7.257-19.019c-0.12-0.504,0.119-0.998,0.578-1.218
					c0.471-0.228,1.027-0.102,1.345,0.307c5.449,6.986,13.752,11.074,22.779,11.217c7.984,0.131,15.504-2.852,21.165-8.384
					c5.389-5.267,8.386-12.219,8.44-19.575c0.054-7.385-2.827-14.385-8.112-19.708c-5.545-5.585-13.005-8.661-21.009-8.661
					l-0.418,0.007c-0.253-0.038-0.425-0.107-0.543-0.292c-0.119-0.184-0.135-0.416-0.042-0.615c1.761-3.766,2.626-7.791,2.57-11.962
					c-0.202-15.219-13.171-27.687-28.911-27.794c-8.038-0.066-15.491,2.97-21.076,8.517c-5.324,5.288-8.256,12.266-8.256,19.648
					c0,3.514,0.662,6.944,1.967,10.194c0.079,0.196,0.055,0.418-0.062,0.593c-0.117,0.175-0.314,0.28-0.525,0.282
					c-7.975,0.049-15.398,3.154-20.903,8.742c-5.246,5.326-8.097,12.314-8.03,19.676c0.067,7.345,3.07,14.285,8.455,19.539
					c5.656,5.519,13.174,8.483,21.137,8.368c8.523-0.13,16.534-3.856,21.979-10.224
					C610.902,460.295,611.208,460.161,611.524,460.161z"/>
			</g>
			<path d="M580.463,351.927l16.213,3.754c0,0.683-0.114,1.707-0.341,3.072c-0.229,1.365-0.968,2.048-2.219,2.048
				c-1.138,0-3.044-0.056-5.717-0.171c-2.674-0.112-7.083-0.283-13.227-0.512c-4.893,0.229-8.448,0.4-10.667,0.512
				c-2.219,0.114-3.84,0.171-4.864,0.171c-1.25,0-1.989-0.709-2.219-2.133c-0.227-1.421-0.341-2.416-0.341-2.987l12.8-3.754
				l39.253-110.591h12.971l39.595,110.591l12.8,3.754c0,0.571-0.114,1.566-0.341,2.987c-0.23,1.424-0.968,2.133-2.219,2.133
				c-1.48,0-3.413-0.056-5.802-0.171c-2.39-0.112-6.089-0.283-11.093-0.512c-6.144,0.229-10.64,0.4-13.483,0.512
				c-2.846,0.114-5.12,0.171-6.827,0.171c-1.253,0-1.992-0.683-2.219-2.048c-0.229-1.366-0.341-2.389-0.341-3.072l15.36-3.754
				l-10.752-30.208l-46.934,2.389L580.463,351.927z M613.402,255.16l-20.139,59.05h40.96L613.402,255.16z"/>
		</g>
		<g>
			<g>
				<path d="M1357.226,1585.63c0.143,0,0.284-0.006,0.426-0.008c-1.741,3.725-2.688,7.873-2.63,12.24
					c0.208,15.613,13.411,28.313,29.543,28.422c16.533,0.112,29.973-12.826,29.973-28.802c0-3.679-0.714-7.197-2.013-10.432
					c16.436-0.101,29.712-13.097,29.565-29.061c-0.146-15.92-13.791-28.79-30.238-28.538c-9.035,0.138-17.09,4.175-22.453,10.446
					c-0.281,0.328-0.845,0.119-0.803-0.305c0.013-0.135,0.036-0.272,0.07-0.41c1.723-7.106,4.057-13.648,7.2-18.904
					c1.191-1.991-0.274-4.486-2.65-4.486h-15.958c-2.38,0-3.841,2.494-2.65,4.486c3.133,5.239,5.461,11.76,7.184,18.842
					c0.001,0.005,0.003,0.01,0.004,0.015c0.108,0.453-0.516,0.725-0.805,0.354c-5.34-6.846-13.763-11.312-23.271-11.461
					c-16.473-0.259-30.135,12.646-30.251,28.591C1327.352,1572.622,1340.719,1585.63,1357.226,1585.63z"/>
				<path d="M1377.257,1515.156h15.958c1.369,0,2.581,0.697,3.242,1.863c0.64,1.128,0.623,2.469-0.045,3.587
					c-2.839,4.749-5.206,10.922-7.035,18.352c5.667-6.323,13.814-10.01,22.465-10.142c8.334-0.128,16.146,2.973,22.046,8.73
					c5.63,5.493,8.768,12.752,8.839,20.439c0.07,7.703-2.911,15.011-8.396,20.581c-5.532,5.617-12.919,8.83-20.887,9.104
					c1.149,3.146,1.731,6.443,1.731,9.814c0,7.724-3.066,15.023-8.632,20.552c-5.827,5.786-13.586,8.967-21.982,8.887
					c-16.427-0.111-29.964-13.143-30.175-29.05c-0.053-4.031,0.714-7.931,2.283-11.61c-8.134-0.139-15.7-3.334-21.356-9.032
					c-5.525-5.566-8.538-12.887-8.482-20.614c0.056-7.699,3.189-14.971,8.823-20.477c5.905-5.77,13.711-8.876,22.075-8.747
					c9.13,0.144,17.552,4.161,23.24,11.054c-1.817-7.215-4.139-13.21-6.908-17.84c-0.669-1.118-0.686-2.459-0.047-3.588
					C1374.675,1515.852,1375.887,1515.156,1377.257,1515.156z M1389.048,1540.696c-0.147,0-0.298-0.03-0.441-0.091
					c-0.438-0.187-0.691-0.609-0.644-1.076c0.016-0.162,0.043-0.329,0.085-0.497c1.872-7.723,4.319-14.142,7.272-19.081
					c0.43-0.719,0.442-1.581,0.031-2.305c-0.432-0.762-1.23-1.217-2.134-1.217h-15.958c-0.905,0-1.703,0.455-2.135,1.216
					c-0.41,0.724-0.399,1.586,0.032,2.305c2.942,4.918,5.383,11.318,7.257,19.019c0.12,0.504-0.119,0.998-0.578,1.218
					c-0.471,0.228-1.027,0.102-1.344-0.307c-5.45-6.986-13.752-11.074-22.779-11.217c-7.984-0.131-15.504,2.852-21.165,8.384
					c-5.389,5.267-8.386,12.219-8.44,19.575c-0.053,7.385,2.827,14.385,8.112,19.708c5.545,5.585,13.005,8.661,21.009,8.661
					l0.418-0.007c0.253,0.038,0.425,0.108,0.543,0.292c0.119,0.184,0.135,0.416,0.042,0.615c-1.76,3.766-2.626,7.791-2.57,11.962
					c0.202,15.219,13.171,27.687,28.91,27.794c8.038,0.066,15.491-2.97,21.076-8.517c5.324-5.288,8.256-12.266,8.256-19.648
					c0-3.514-0.662-6.945-1.967-10.194c-0.079-0.196-0.055-0.418,0.062-0.593c0.118-0.175,0.314-0.281,0.525-0.282
					c7.975-0.049,15.398-3.153,20.902-8.742c5.246-5.326,8.097-12.314,8.03-19.676c-0.067-7.345-3.07-14.285-8.455-19.539
					c-5.656-5.519-13.174-8.482-21.137-8.368c-8.524,0.13-16.535,3.856-21.979,10.224
					C1389.669,1540.562,1389.363,1540.696,1389.048,1540.696z"/>
			</g>
			<path d="M1420.108,1648.93l-16.213-3.754c0-0.683,0.114-1.707,0.341-3.072c0.229-1.365,0.968-2.048,2.219-2.048
				c1.138,0,3.044,0.056,5.717,0.171c2.674,0.112,7.083,0.283,13.227,0.512c4.893-0.23,8.448-0.4,10.667-0.512
				c2.219-0.115,3.84-0.171,4.864-0.171c1.25,0,1.989,0.709,2.219,2.133c0.227,1.421,0.341,2.416,0.341,2.987l-12.8,3.754
				l-39.253,110.592h-12.971l-39.595-110.592l-12.8-3.754c0-0.571,0.115-1.566,0.341-2.987c0.23-1.424,0.968-2.133,2.219-2.133
				c1.48,0,3.413,0.056,5.802,0.171c2.39,0.112,6.089,0.283,11.093,0.512c6.144-0.23,10.64-0.4,13.483-0.512
				c2.845-0.115,5.12-0.171,6.827-0.171c1.253,0,1.992,0.683,2.219,2.048c0.229,1.365,0.341,2.389,0.341,3.072l-15.36,3.754
				l10.752,30.208l46.934-2.389L1420.108,1648.93z M1387.169,1745.697l20.139-59.05h-40.96L1387.169,1745.697z"/>
		</g>
	</g>
</g>
</svg>
